SplineFontDB: 2.0
FontName: THFahkwang-Bold
FullName: THFahkwang-Bold
FamilyName: TH Fah kwang
Weight: Bold
Copyright: Copyright (c) 2006 by Department of Intellectual Property (DIP), Ministry of Commerce and Software Industry Promotion Agency (Public Organization) (SIPA). All rights reserved.
Version: 1.1
ItalicAngle: 0
UnderlinePosition: -35
UnderlineWidth: 30
Ascent: 800
Descent: 200
Order2: 1
XUID: [1021 375 425136265 717862]
FSType: 0
OS2Version: 3
OS2_WeightWidthSlopeOnly: 0
OS2_UseTypoMetrics: 1
CreationTime: 1158667080
ModificationTime: 1196263513
PfmFamily: 17
TTFWeight: 700
TTFWidth: 5
LineGap: 60
VLineGap: 0
Panose: 2 0 5 6 0 0 0 2 0 4
OS2TypoAscent: 0
OS2TypoAOffset: 1
OS2TypoDescent: 0
OS2TypoDOffset: 1
OS2TypoLinegap: 0
OS2WinAscent: -5
OS2WinAOffset: 1
OS2WinDescent: -231
OS2WinDOffset: 1
HheadAscent: -5
HheadAOffset: 1
HheadDescent: 231
HheadDOffset: 1
OS2SubXSize: 700
OS2SubYSize: 650
OS2SubXOff: 0
OS2SubYOff: 140
OS2SupXSize: 700
OS2SupYSize: 650
OS2SupXOff: 0
OS2SupYOff: 477
OS2StrikeYSize: 30
OS2StrikeYPos: 250
OS2FamilyClass: 773
OS2Vendor: 'ipth'
Lookup: 4 0 0 "'frac' Diagonal Fractions in Latin lookup 0"  {"'frac' Diagonal Fractions in Latin lookup 0 subtable"  } ['frac' ('latn' <'dflt' > ) ]
Lookup: 6 0 0 "'liga' Standard Ligatures in Latin lookup 1"  {"'liga' Standard Ligatures in Latin lookup 1 subtable"  } ['liga' ('latn' <'dflt' > ) ]
Lookup: 6 0 0 "'liga' Standard Ligatures in Latin lookup 2"  {"'liga' Standard Ligatures in Latin lookup 2 subtable"  } ['liga' ('latn' <'dflt' > ) ]
Lookup: 6 0 0 "'liga' Standard Ligatures in Latin lookup 3"  {"'liga' Standard Ligatures in Latin lookup 3 subtable"  } ['liga' ('latn' <'dflt' > ) ]
Lookup: 6 0 0 "'liga' Standard Ligatures in Latin lookup 4"  {"'liga' Standard Ligatures in Latin lookup 4 subtable"  } ['liga' ('latn' <'dflt' > ) ]
Lookup: 6 0 0 "'liga' Standard Ligatures in Latin lookup 5"  {"'liga' Standard Ligatures in Latin lookup 5 subtable"  } ['liga' ('latn' <'dflt' > ) ]

StartChar: .notdef
Encoding: 65536 -1 0
Width: 576
VWidth: 1533
Flags: W
HStem: 2 56<110 461> 724 59<112 461>
VStem: 0 74<133 649> 503 73<129 650>
Fore
0 2 m 1,0,-1
 0 783 l 1,1,-1
 576 783 l 1,2,-1
 576 2 l 1,3,-1
 0 2 l 1,0,-1
461 724 m 1,4,-1
 112 724 l 1,5,-1
 287 458 l 1,6,-1
 461 724 l 1,4,-1
244 389 m 1,7,-1
 74 649 l 1,8,-1
 74 133 l 1,9,-1
 244 389 l 1,7,-1
110 58 m 1,10,-1
 461 58 l 1,11,-1
 287 324 l 1,12,-1
 110 58 l 1,10,-1
330 389 m 1,13,-1
 503 129 l 1,14,-1
 503 650 l 1,15,-1
 330 389 l 1,13,-1
EndSplineSet
EndChar
StartChar: numbersign
Encoding: 35 35 4
Width: 772
VWidth: 1533
Flags: W
HStem: 0 21G<195 288.062 397 491.967> 209 65<103 225 328 428 530 641> 412 68<133 256 357 460 560 670>
Fore
550 412 m 1,0,-1
 530 274 l 1,1,-1
 641 274 l 1,2,-1
 641 209 l 1,3,-1
 520 209 l 1,4,-1
 489 0 l 1,5,-1
 397 0 l 1,6,-1
 428 209 l 1,7,-1
 317 209 l 1,8,-1
 285 0 l 1,9,-1
 195 0 l 1,10,-1
 225 209 l 1,11,-1
 103 209 l 1,12,-1
 103 274 l 1,13,-1
 236 274 l 1,14,-1
 256 412 l 1,15,-1
 133 412 l 1,16,-1
 133 480 l 1,17,-1
 265 480 l 1,18,-1
 296 687 l 1,19,-1
 388 687 l 1,20,-1
 357 480 l 1,21,-1
 468 480 l 1,22,-1
 500 687 l 1,23,-1
 590 687 l 1,24,-1
 560 480 l 1,25,-1
 670 480 l 1,26,-1
 670 412 l 1,27,-1
 550 412 l 1,0,-1
348 412 m 1,28,-1
 328 274 l 1,29,-1
 438 274 l 1,30,-1
 460 412 l 1,31,-1
 348 412 l 1,28,-1
EndSplineSet
EndChar
StartChar: dollar
Encoding: 36 36 5
Width: 778
VWidth: 1533
Flags: W
HStem: -83 160<368.285 442.942> 17 60<298.389 366> 616 155<366.079 442.186> 616 60<443 496.597>
VStem: 110 126<473.962 565.164> 366 77<-83 17 676 771> 580 125<140.442 249.521>
Fore
705 224 m 0,0,1
 705 170 705 170 680.5 133.5 c 128,-1,2
 656 97 656 97 618.5 72.5 c 128,-1,3
 581 48 581 48 534.5 35.5 c 128,-1,4
 488 23 488 23 443 18 c 1,5,-1
 443 -83 l 1,6,-1
 366 -83 l 1,7,-1
 366 17 l 1,8,9
 317 20 317 20 267.5 34 c 128,-1,10
 218 48 218 48 176.5 75.5 c 128,-1,11
 135 103 135 103 107.5 143.5 c 128,-1,12
 80 184 80 184 74 239 c 1,13,-1
 207 239 l 1,14,15
 210 169 210 169 262 123 c 128,-1,16
 314 77 314 77 399 77 c 0,17,18
 428 77 428 77 459.5 83 c 128,-1,19
 491 89 491 89 517.5 103.5 c 128,-1,20
 544 118 544 118 562 142 c 128,-1,21
 580 166 580 166 580 202 c 128,-1,22
 580 238 580 238 545.5 258.5 c 128,-1,23
 511 279 511 279 458.5 294.5 c 128,-1,24
 406 310 406 310 345 323 c 128,-1,25
 284 336 284 336 231.5 356 c 128,-1,26
 179 376 179 376 144.5 408 c 128,-1,27
 110 440 110 440 110 494 c 0,28,29
 110 543 110 543 134.5 576.5 c 128,-1,30
 159 610 159 610 197.5 631.5 c 128,-1,31
 236 653 236 653 281.5 663 c 128,-1,32
 327 673 327 673 366 676 c 1,33,-1
 366 771 l 1,34,-1
 443 771 l 1,35,-1
 443 675 l 1,36,37
 534 665 534 665 600.5 621.5 c 128,-1,38
 667 578 667 578 701 491 c 1,39,-1
 575 491 l 1,40,41
 558 546 558 546 516.5 581 c 128,-1,42
 475 616 475 616 397 616 c 0,43,44
 373 616 373 616 344.5 611 c 128,-1,45
 316 606 316 606 292 594.5 c 128,-1,46
 268 583 268 583 252 562 c 128,-1,47
 236 541 236 541 236 512 c 256,48,49
 236 483 236 483 270.5 466 c 128,-1,50
 305 449 305 449 357 436 c 128,-1,51
 409 423 409 423 470.5 409.5 c 128,-1,52
 532 396 532 396 584 373.5 c 128,-1,53
 636 351 636 351 670.5 316 c 128,-1,54
 705 281 705 281 705 224 c 0,0,1
EndSplineSet
EndChar
StartChar: percent
Encoding: 37 37 6
Width: 841
VWidth: 1533
Flags: W
HStem: -2 57<573.58 674.069> 282 55<167.266 267.897> 351 55<574.446 674.069> 633 57<168.09 268.243>
VStem: 37 104<399.118 573.312> 294 103<399.118 573.312> 443 104<115.718 289.139> 701 102<115.016 289.851>
Fore
803 202 m 256,0,1
 803 161 803 161 789.5 124 c 128,-1,2
 776 87 776 87 752 59.5 c 128,-1,3
 728 32 728 32 695 15 c 128,-1,4
 662 -2 662 -2 624 -2 c 0,5,6
 584 -2 584 -2 551 15 c 128,-1,7
 518 32 518 32 494.5 59.5 c 128,-1,8
 471 87 471 87 457 124 c 128,-1,9
 443 161 443 161 443 202 c 256,10,11
 443 244 443 244 457 280.5 c 128,-1,12
 471 317 471 317 494.5 345 c 128,-1,13
 518 373 518 373 551 389.5 c 128,-1,14
 584 406 584 406 624 406 c 0,15,16
 662 406 662 406 695 389.5 c 128,-1,17
 728 373 728 373 752 345 c 128,-1,18
 776 317 776 317 789.5 280.5 c 128,-1,19
 803 244 803 244 803 202 c 256,0,1
239 -17 m 1,20,-1
 149 -17 l 1,21,-1
 598 705 l 1,22,-1
 690 705 l 1,23,-1
 239 -17 l 1,20,-1
397 486 m 256,24,25
 397 445 397 445 383.5 408 c 128,-1,26
 370 371 370 371 346 343.5 c 128,-1,27
 322 316 322 316 289 299 c 128,-1,28
 256 282 256 282 218 282 c 0,29,30
 178 282 178 282 145 299 c 128,-1,31
 112 316 112 316 88 343.5 c 128,-1,32
 64 371 64 371 50.5 408 c 128,-1,33
 37 445 37 445 37 486 c 256,34,35
 37 527 37 527 50.5 564 c 128,-1,36
 64 601 64 601 88 628.5 c 128,-1,37
 112 656 112 656 145 673 c 128,-1,38
 178 690 178 690 218 690 c 0,39,40
 256 690 256 690 289 673 c 128,-1,41
 322 656 322 656 346 628.5 c 128,-1,42
 370 601 370 601 383.5 564 c 128,-1,43
 397 527 397 527 397 486 c 256,24,25
701 202 m 256,44,45
 701 288 701 288 681.5 319.5 c 128,-1,46
 662 351 662 351 624 351 c 0,47,48
 587 351 587 351 567 319.5 c 128,-1,49
 547 288 547 288 547 202 c 256,50,51
 547 117 547 117 566.5 86 c 128,-1,52
 586 55 586 55 624 55 c 256,53,54
 662 55 662 55 681.5 86 c 128,-1,55
 701 117 701 117 701 202 c 256,44,45
294 486 m 256,56,57
 294 572 294 572 275 602.5 c 128,-1,58
 256 633 256 633 218 633 c 0,59,60
 181 633 181 633 161 602.5 c 128,-1,61
 141 572 141 572 141 486 c 256,62,63
 141 400 141 400 160 368.5 c 128,-1,64
 179 337 179 337 218 337 c 256,65,66
 256 337 256 337 275 368.5 c 128,-1,67
 294 400 294 400 294 486 c 256,56,57
EndSplineSet
EndChar
StartChar: ampersand
Encoding: 38 38 7
Width: 838
VWidth: 1533
Flags: W
HStem: -21 59<315.693 458.193> 627 60<313.274 410.027>
VStem: 64 132<131.945 244.032> 170 104<480.101 573.008> 437 112<480.422 600.072>
Fore
659 -2 m 1,0,1
 639 9 639 9 621.5 22 c 128,-1,2
 604 35 604 35 576 51 c 1,3,4
 527 15 527 15 469 -3 c 128,-1,5
 411 -21 411 -21 345 -21 c 0,6,7
 296 -21 296 -21 245.5 -11.5 c 128,-1,8
 195 -2 195 -2 155 21 c 128,-1,9
 115 44 115 44 89.5 80.5 c 128,-1,10
 64 117 64 117 64 169 c 0,11,12
 64 207 64 207 78 237 c 128,-1,13
 92 267 92 267 115 290 c 128,-1,14
 138 313 138 313 168 330.5 c 128,-1,15
 198 348 198 348 228 363 c 1,16,17
 202 394 202 394 186 428.5 c 128,-1,18
 170 463 170 463 170 498 c 0,19,20
 170 537 170 537 185.5 571.5 c 128,-1,21
 201 606 201 606 228 632 c 128,-1,22
 255 658 255 658 291.5 672.5 c 128,-1,23
 328 687 328 687 373 687 c 0,24,25
 403 687 403 687 434.5 678.5 c 128,-1,26
 466 670 466 670 491.5 653 c 128,-1,27
 517 636 517 636 533 610 c 128,-1,28
 549 584 549 584 549 550 c 0,29,30
 549 515 549 515 536 488 c 128,-1,31
 523 461 523 461 500.5 440 c 128,-1,32
 478 419 478 419 450 401 c 128,-1,33
 422 383 422 383 389 368 c 1,34,35
 440 314 440 314 493 266.5 c 128,-1,36
 546 219 546 219 595 181 c 1,37,38
 612 221 612 221 617 264.5 c 128,-1,39
 622 308 622 308 613 371 c 1,40,-1
 745 371 l 1,41,42
 741 294 741 294 719.5 236.5 c 128,-1,43
 698 179 698 179 662 133 c 1,44,45
 702 107 702 107 752 69.5 c 128,-1,46
 802 32 802 32 845 -2 c 1,47,-1
 659 -2 l 1,0,1
437 541 m 0,48,49
 437 578 437 578 413 602.5 c 128,-1,50
 389 627 389 627 348 627 c 0,51,52
 331 627 331 627 318 619.5 c 128,-1,53
 305 612 305 612 295 600.5 c 128,-1,54
 285 589 285 589 279.5 576 c 128,-1,55
 274 563 274 563 274 552 c 0,56,57
 274 512 274 512 292.5 482 c 128,-1,58
 311 452 311 452 343 417 c 1,59,60
 385 438 385 438 411 466.5 c 128,-1,61
 437 495 437 495 437 541 c 0,48,49
520 94 m 1,62,63
 466 136 466 136 404 191.5 c 128,-1,64
 342 247 342 247 278 311 c 1,65,66
 239 290 239 290 217.5 264 c 128,-1,67
 196 238 196 238 196 199 c 0,68,69
 196 166 196 166 212 136.5 c 128,-1,70
 228 107 228 107 253.5 85 c 128,-1,71
 279 63 279 63 310.5 50.5 c 128,-1,72
 342 38 342 38 371 38 c 0,73,74
 417 38 417 38 454 55 c 128,-1,75
 491 72 491 72 520 94 c 1,62,63
EndSplineSet
EndChar
StartChar: quotesingle
Encoding: 39 39 8
Width: 259
VWidth: 1533
Flags: W
HStem: 386 351<109 149>
VStem: 70.5 118.5<664.282 685.595 664 686 686 686>
Fore
149 386 m 1,0,-1
 109 386 l 1,1,-1
 71 664 l 2,2,3
 69 673 69 673 70.5 686 c 128,-1,4
 72 699 72 699 78 710.5 c 128,-1,5
 84 722 84 722 96.5 729.5 c 128,-1,6
 109 737 109 737 129 737 c 256,7,8
 149 737 149 737 161 729.5 c 128,-1,9
 173 722 173 722 180 710.5 c 128,-1,10
 187 699 187 699 188.5 686 c 128,-1,11
 190 673 190 673 189 664 c 2,12,-1
 149 386 l 1,0,-1
EndSplineSet
EndChar
StartChar: parenleft
Encoding: 40 40 9
Width: 354
VWidth: 1533
Flags: W
HStem: 719 20G<195 297>
VStem: 57 116<114.03 401.196>
Fore
238 -224 m 1,0,1
 152 -110 152 -110 104.5 3.5 c 128,-1,2
 57 117 57 117 57 258 c 256,3,4
 57 399 57 399 104.5 512.5 c 128,-1,5
 152 626 152 626 238 739 c 1,6,-1
 297 739 l 1,7,8
 267 685 267 685 244 637.5 c 128,-1,9
 221 590 221 590 205 535.5 c 128,-1,10
 189 481 189 481 181 415.5 c 128,-1,11
 173 350 173 350 173 258 c 0,12,13
 173 164 173 164 179.5 99 c 128,-1,14
 186 34 186 34 200.5 -18.5 c 128,-1,15
 215 -71 215 -71 238.5 -118.5 c 128,-1,16
 262 -166 262 -166 297 -224 c 1,17,-1
 238 -224 l 1,0,1
EndSplineSet
EndChar
StartChar: parenright
Encoding: 41 41 10
Width: 354
VWidth: 1533
Flags: W
HStem: 719 20G<57 159>
VStem: 181 116<115.205 400.027>
Fore
297 258 m 256,0,1
 297 117 297 117 249 3.5 c 128,-1,2
 201 -110 201 -110 117 -224 c 1,3,-1
 57 -224 l 1,4,5
 92 -166 92 -166 116 -118.5 c 128,-1,6
 140 -71 140 -71 154.5 -18.5 c 128,-1,7
 169 34 169 34 175 99 c 128,-1,8
 181 164 181 164 181 258 c 0,9,10
 181 350 181 350 172.5 415.5 c 128,-1,11
 164 481 164 481 148.5 535.5 c 128,-1,12
 133 590 133 590 109.5 637.5 c 128,-1,13
 86 685 86 685 57 739 c 1,14,-1
 117 739 l 1,15,16
 201 626 201 626 249 512.5 c 128,-1,17
 297 399 297 399 297 258 c 256,0,1
EndSplineSet
EndChar
StartChar: asterisk
Encoding: 42 42 11
Width: 558
VWidth: 1533
Flags: W
HStem: 324 390<209 354 209 209>
VStem: 57 444<520 520 520 520>
Fore
328 500 m 1,0,-1
 463 394 l 1,1,-1
 354 324 l 1,2,-1
 279 474 l 1,3,-1
 204 324 l 1,4,-1
 95 394 l 1,5,-1
 230 500 l 1,6,-1
 57 520 l 1,7,-1
 98 636 l 1,8,-1
 251 557 l 1,9,-1
 209 714 l 1,10,-1
 345 714 l 1,11,-1
 302 553 l 1,12,-1
 460 636 l 1,13,-1
 501 520 l 1,14,-1
 328 500 l 1,0,-1
EndSplineSet
EndChar
StartChar: plus
Encoding: 43 43 12
Width: 719
VWidth: 1533
Flags: W
HStem: 0 21G<310 409> 251 80<52 310 409 667>
VStem: 310 99<0 251 331 581>
Fore
409 251 m 1,0,-1
 409 0 l 1,1,-1
 310 0 l 1,2,-1
 310 251 l 1,3,-1
 52 251 l 1,4,-1
 52 331 l 1,5,-1
 310 331 l 1,6,-1
 310 581 l 1,7,-1
 409 581 l 1,8,-1
 409 331 l 1,9,-1
 667 331 l 1,10,-1
 667 251 l 1,11,-1
 409 251 l 1,0,-1
EndSplineSet
EndChar
StartChar: comma
Encoding: 44 44 13
Width: 403
VWidth: 1533
Flags: W
HStem: -144 265<155 193 193 193>
VStem: 210 60<-52.842 -11>
Fore
270 29 m 0,0,1
 270 -20 270 -20 238.5 -70 c 128,-1,2
 207 -120 207 -120 155 -144 c 1,3,-1
 133 -115 l 1,4,5
 159 -104 159 -104 183 -76.5 c 128,-1,6
 207 -49 207 -49 210 -11 c 1,7,8
 192 -17 192 -17 175 -13 c 128,-1,9
 158 -9 158 -9 145 0 c 128,-1,10
 132 9 132 9 125 21.5 c 128,-1,11
 118 34 118 34 118 48 c 0,12,13
 118 74 118 74 137 97.5 c 128,-1,14
 156 121 156 121 193 121 c 0,15,16
 232 121 232 121 251 95 c 128,-1,17
 270 69 270 69 270 29 c 0,0,1
EndSplineSet
EndChar
StartChar: hyphen
Encoding: 45 45 14
Width: 492
VWidth: 1533
Flags: W
HStem: 261 84<23 469>
VStem: 23 446<261 345 261 345 261 261>
Fore
469 261 m 1,0,-1
 23 261 l 1,1,-1
 23 345 l 1,2,-1
 469 345 l 1,3,-1
 469 261 l 1,0,-1
EndSplineSet
EndChar
StartChar: period
Encoding: 46 46 15
Width: 407
VWidth: 1533
Flags: W
HStem: -12 141<153.628 253.888>
VStem: 133 141<8.62744 108.372>
Fore
274 58 m 256,0,1
 274 28 274 28 254.5 8 c 128,-1,2
 235 -12 235 -12 204 -12 c 256,3,4
 173 -12 173 -12 153 8 c 128,-1,5
 133 28 133 28 133 58 c 256,6,7
 133 89 133 89 153 109 c 128,-1,8
 173 129 173 129 204 129 c 256,9,10
 235 129 235 129 254.5 109 c 128,-1,11
 274 89 274 89 274 58 c 256,0,1
EndSplineSet
EndChar
StartChar: slash
Encoding: 47 47 16
Width: 361
VWidth: 1533
Flags: W
HStem: -23 21G<-23 85.1053> 717 20G<276.895 385>
VStem: -23 408<-23 737 -23 -23>
Fore
77 -23 m 1,0,-1
 -23 -23 l 1,1,-1
 285 737 l 1,2,-1
 385 737 l 1,3,-1
 77 -23 l 1,0,-1
EndSplineSet
EndChar
StartChar: zero
Encoding: 48 48 17
Width: 722
VWidth: 1533
Flags: W
HStem: -11 62<279.02 443.186> 647 61<279.02 443.186>
VStem: 32 129<219.371 480.044> 561 127<217.45 481.067>
Fore
688 350 m 256,0,1
 688 276 688 276 664.5 211 c 128,-1,2
 641 146 641 146 597 96 c 128,-1,3
 553 46 553 46 492.5 17.5 c 128,-1,4
 432 -11 432 -11 360 -11 c 256,5,6
 288 -11 288 -11 228.5 17.5 c 128,-1,7
 169 46 169 46 125 96 c 128,-1,8
 81 146 81 146 56.5 211 c 128,-1,9
 32 276 32 276 32 350 c 256,10,11
 32 423 32 423 56.5 488 c 128,-1,12
 81 553 81 553 125 602.5 c 128,-1,13
 169 652 169 652 228.5 680 c 128,-1,14
 288 708 288 708 360 708 c 256,15,16
 432 708 432 708 492.5 680 c 128,-1,17
 553 652 553 652 597 602.5 c 128,-1,18
 641 553 641 553 664.5 488 c 128,-1,19
 688 423 688 423 688 350 c 256,0,1
561 350 m 256,20,21
 561 426 561 426 545.5 482 c 128,-1,22
 530 538 530 538 503.5 575 c 128,-1,23
 477 612 477 612 440 629.5 c 128,-1,24
 403 647 403 647 360 647 c 0,25,26
 319 647 319 647 282 629.5 c 128,-1,27
 245 612 245 612 218.5 575 c 128,-1,28
 192 538 192 538 176.5 482 c 128,-1,29
 161 426 161 426 161 350 c 256,30,31
 161 273 161 273 176.5 216 c 128,-1,32
 192 159 192 159 218.5 122.5 c 128,-1,33
 245 86 245 86 282 68.5 c 128,-1,34
 319 51 319 51 360 51 c 0,35,36
 403 51 403 51 440 68.5 c 128,-1,37
 477 86 477 86 503.5 122.5 c 128,-1,38
 530 159 530 159 545.5 216 c 128,-1,39
 561 273 561 273 561 350 c 256,20,21
EndSplineSet
EndChar
StartChar: one
Encoding: 49 49 18
Width: 722
VWidth: 1533
Flags: W
HStem: 0 21G<308 432> 541 58<136 220.978> 687 20G<345.5 432>
VStem: 308 124<0 541>
Fore
308 0 m 1,0,-1
 308 541 l 1,1,-1
 136 541 l 1,2,-1
 136 599 l 1,3,4
 192 599 192 599 226.5 603 c 128,-1,5
 261 607 261 607 284 618.5 c 128,-1,6
 307 630 307 630 322 651 c 128,-1,7
 337 672 337 672 354 707 c 1,8,-1
 432 707 l 1,9,-1
 432 0 l 1,10,-1
 308 0 l 1,0,-1
EndSplineSet
EndChar
StartChar: two
Encoding: 50 50 19
Width: 722
VWidth: 1533
Flags: W
HStem: 0 97<176 667> 644 58<249.556 429.622>
VStem: 526 126<427.262 536.37>
Fore
41 0 m 1,0,1
 52 74 52 74 88 121.5 c 128,-1,2
 124 169 124 169 173 203.5 c 128,-1,3
 222 238 222 238 280.5 264 c 128,-1,4
 339 290 339 290 396 320 c 0,5,6
 420 334 420 334 444 348.5 c 128,-1,7
 468 363 468 363 486 382.5 c 128,-1,8
 504 402 504 402 515 425.5 c 128,-1,9
 526 449 526 449 526 480 c 0,10,11
 526 509 526 509 514.5 539 c 128,-1,12
 503 569 503 569 480 592 c 128,-1,13
 457 615 457 615 422.5 629.5 c 128,-1,14
 388 644 388 644 342 644 c 0,15,16
 264 644 264 644 209.5 593.5 c 128,-1,17
 155 543 155 543 153 455 c 1,18,-1
 25 455 l 1,19,20
 34 520 34 520 63 566 c 128,-1,21
 92 612 92 612 135 642.5 c 128,-1,22
 178 673 178 673 231 687.5 c 128,-1,23
 284 702 284 702 342 702 c 0,24,25
 403 702 403 702 459 688.5 c 128,-1,26
 515 675 515 675 558 647 c 128,-1,27
 601 619 601 619 626.5 577 c 128,-1,28
 652 535 652 535 652 478 c 0,29,30
 652 417 652 417 621 373.5 c 128,-1,31
 590 330 590 330 543.5 297.5 c 128,-1,32
 497 265 497 265 439.5 240.5 c 128,-1,33
 382 216 382 216 329 194 c 128,-1,34
 276 172 276 172 234.5 149 c 128,-1,35
 193 126 193 126 176 97 c 1,36,-1
 667 97 l 1,37,-1
 667 0 l 1,38,-1
 41 0 l 1,0,1
EndSplineSet
EndChar
StartChar: three
Encoding: 51 51 20
Width: 722
VWidth: 1533
Flags: W
HStem: -11 60<256.763 421.667> 335.5 65.5<293.012 452.123> 644 58<273.209 438.072>
VStem: 75 126<487.542 577.392> 523 126<463.11 582.669> 561 126<143.503 273.077>
Fore
687 209 m 0,0,1
 687 150 687 150 657 108.5 c 128,-1,2
 627 67 627 67 579.5 40.5 c 128,-1,3
 532 14 532 14 471.5 1.5 c 128,-1,4
 411 -11 411 -11 351 -11 c 0,5,6
 293 -11 293 -11 239.5 3.5 c 128,-1,7
 186 18 186 18 143 48 c 128,-1,8
 100 78 100 78 70.5 125 c 128,-1,9
 41 172 41 172 32 236 c 1,10,-1
 161 236 l 1,11,12
 163 149 163 149 217 99 c 128,-1,13
 271 49 271 49 351 49 c 0,14,15
 394 49 394 49 431.5 61.5 c 128,-1,16
 469 74 469 74 498 96 c 128,-1,17
 527 118 527 118 544 147 c 128,-1,18
 561 176 561 176 561 210 c 0,19,20
 561 250 561 250 536 277 c 128,-1,21
 511 304 511 304 468.5 319 c 128,-1,22
 426 334 426 334 371 335.5 c 128,-1,23
 316 337 316 337 256 327 c 1,24,-1
 256 405 l 1,25,26
 319 396 319 396 369 401 c 128,-1,27
 419 406 419 406 453.5 423 c 128,-1,28
 488 440 488 440 505.5 465.5 c 128,-1,29
 523 491 523 491 523 520 c 0,30,31
 523 566 523 566 481.5 605 c 128,-1,32
 440 644 440 644 356 644 c 0,33,34
 287 644 287 644 247 600.5 c 128,-1,35
 207 557 207 557 201 478 c 1,36,-1
 75 478 l 1,37,38
 80 535 80 535 104.5 577 c 128,-1,39
 129 619 129 619 166.5 647 c 128,-1,40
 204 675 204 675 253 688.5 c 128,-1,41
 302 702 302 702 356 702 c 0,42,43
 412 702 412 702 465 691.5 c 128,-1,44
 518 681 518 681 558.5 659.5 c 128,-1,45
 599 638 599 638 624 602.5 c 128,-1,46
 649 567 649 567 649 520 c 0,47,48
 649 466 649 466 617.5 431 c 128,-1,49
 586 396 586 396 544 376 c 1,50,51
 603 359 603 359 645 318.5 c 128,-1,52
 687 278 687 278 687 209 c 0,0,1
EndSplineSet
EndChar
StartChar: four
Encoding: 52 52 21
Width: 722
VWidth: 1533
Flags: W
HStem: 0 21G<388 514> 169 73<143 389 514 644> 687 20G<453.188 514>
VStem: 389 125<0 169 242 504>
Fore
644 169 m 1,0,-1
 514 169 l 1,1,-1
 514 0 l 1,2,-1
 388 0 l 1,3,-1
 389 169 l 1,4,-1
 26 169 l 1,5,-1
 -3 202 l 1,6,-1
 472 707 l 1,7,-1
 514 707 l 1,8,-1
 514 242 l 1,9,-1
 684 242 l 1,10,-1
 644 169 l 1,0,-1
389 504 m 1,11,-1
 143 242 l 1,12,-1
 389 242 l 1,13,-1
 389 504 l 1,11,-1
EndSplineSet
EndChar
StartChar: five
Encoding: 53 53 22
Width: 722
VWidth: 1533
Flags: W
HStem: -11 59<263.885 424.504> 389 63<270.691 441.324> 598 97<202 618>
VStem: 558 130<146.495 289.707>
Fore
688 215 m 0,0,1
 688 155 688 155 657 112 c 128,-1,2
 626 69 626 69 577.5 42 c 128,-1,3
 529 15 529 15 470.5 2 c 128,-1,4
 412 -11 412 -11 357 -11 c 0,5,6
 299 -11 299 -11 245.5 3.5 c 128,-1,7
 192 18 192 18 149.5 48 c 128,-1,8
 107 78 107 78 77.5 124 c 128,-1,9
 48 170 48 170 38 235 c 1,10,-1
 167 235 l 1,11,12
 169 149 169 149 223.5 98.5 c 128,-1,13
 278 48 278 48 356 48 c 0,14,15
 399 48 399 48 435.5 61.5 c 128,-1,16
 472 75 472 75 499.5 98 c 128,-1,17
 527 121 527 121 542.5 151.5 c 128,-1,18
 558 182 558 182 558 216 c 0,19,20
 558 253 558 253 542.5 284.5 c 128,-1,21
 527 316 527 316 499.5 339 c 128,-1,22
 472 362 472 362 432 375.5 c 128,-1,23
 392 389 392 389 345 389 c 0,24,25
 288 389 288 389 243 370 c 128,-1,26
 198 351 198 351 150 320 c 1,27,-1
 92 336 l 1,28,-1
 130 695 l 1,29,-1
 653 695 l 1,30,-1
 618 598 l 1,31,-1
 202 598 l 1,32,-1
 186 423 l 1,33,34
 221 437 221 437 267 444.5 c 128,-1,35
 313 452 313 452 357 452 c 0,36,37
 428 452 428 452 489 437 c 128,-1,38
 550 422 550 422 594 392 c 128,-1,39
 638 362 638 362 663 317.5 c 128,-1,40
 688 273 688 273 688 215 c 0,0,1
EndSplineSet
EndChar
StartChar: six
Encoding: 54 54 23
Width: 722
VWidth: 1533
Flags: W
HStem: -11 63<273.745 464.736> 428 67<274.245 465.515> 639 63<292.667 453.706>
VStem: 34 152<202.019 339.133> 553 132<147.424 338.793>
Fore
685 251 m 0,0,1
 685 190 685 190 660 141 c 128,-1,2
 635 92 635 92 592 58.5 c 128,-1,3
 549 25 549 25 491.5 7 c 128,-1,4
 434 -11 434 -11 368 -11 c 0,5,6
 294 -11 294 -11 233 15 c 128,-1,7
 172 41 172 41 127.5 87 c 128,-1,8
 83 133 83 133 58.5 194.5 c 128,-1,9
 34 256 34 256 34 328 c 0,10,11
 34 403 34 403 55.5 471.5 c 128,-1,12
 77 540 77 540 120.5 591 c 128,-1,13
 164 642 164 642 229 672 c 128,-1,14
 294 702 294 702 382 702 c 0,15,16
 429 702 429 702 473.5 693.5 c 128,-1,17
 518 685 518 685 556.5 664.5 c 128,-1,18
 595 644 595 644 623.5 610 c 128,-1,19
 652 576 652 576 667 527 c 1,20,-1
 543 527 l 1,21,22
 517 581 517 581 480 610 c 128,-1,23
 443 639 443 639 379 639 c 0,24,25
 330 639 330 639 291.5 617.5 c 128,-1,26
 253 596 253 596 227 563 c 128,-1,27
 201 530 201 530 185.5 489 c 128,-1,28
 170 448 170 448 166 409 c 1,29,30
 199 445 199 445 253.5 470 c 128,-1,31
 308 495 308 495 386 495 c 0,32,33
 451 495 451 495 505.5 478 c 128,-1,34
 560 461 560 461 599.5 430 c 128,-1,35
 639 399 639 399 662 353.5 c 128,-1,36
 685 308 685 308 685 251 c 0,0,1
553 241 m 0,37,38
 553 327 553 327 504 377.5 c 128,-1,39
 455 428 455 428 370 428 c 128,-1,40
 285 428 285 428 235.5 377.5 c 128,-1,41
 186 327 186 327 186 241 c 0,42,43
 186 153 186 153 235 102.5 c 128,-1,44
 284 52 284 52 370 52 c 0,45,46
 454 52 454 52 503.5 102.5 c 128,-1,47
 553 153 553 153 553 241 c 0,37,38
EndSplineSet
EndChar
StartChar: seven
Encoding: 55 55 24
Width: 722
VWidth: 1533
Flags: W
HStem: 0 21G<195 327> 599 96<77 566>
VStem: 195 132<0 157.643>
Fore
688 695 m 1,0,1
 688 636 688 636 659 590 c 128,-1,2
 630 544 630 544 595 504 c 0,3,4
 537 440 537 440 487.5 389.5 c 128,-1,5
 438 339 438 339 403 285.5 c 128,-1,6
 368 232 368 232 347.5 165 c 128,-1,7
 327 98 327 98 327 0 c 1,8,-1
 195 0 l 1,9,10
 195 123 195 123 238.5 215 c 128,-1,11
 282 307 282 307 371 392 c 0,12,13
 388 409 388 409 417 435 c 128,-1,14
 446 461 446 461 475 491 c 128,-1,15
 504 521 504 521 529.5 549.5 c 128,-1,16
 555 578 555 578 566 599 c 1,17,-1
 44 599 l 1,18,-1
 77 695 l 1,19,-1
 688 695 l 1,0,1
EndSplineSet
EndChar
StartChar: eight
Encoding: 56 56 25
Width: 722
VWidth: 1533
Flags: W
HStem: -11 63<269.603 447.444> 650 60<281.925 448.256>
VStem: 25 134<134.121 252.447> 74 121<502.341 603.751> 527 125<495.862 601.737> 572 126<133.487 253.481>
Fore
698 215 m 0,0,1
 698 155 698 155 666.5 112 c 128,-1,2
 635 69 635 69 586 41.5 c 128,-1,3
 537 14 537 14 476 1.5 c 128,-1,4
 415 -11 415 -11 357 -11 c 0,5,6
 301 -11 301 -11 241.5 0 c 128,-1,7
 182 11 182 11 134 36 c 128,-1,8
 86 61 86 61 55.5 102 c 128,-1,9
 25 143 25 143 25 201 c 0,10,11
 25 236 25 236 41 265 c 128,-1,12
 57 294 57 294 82 317 c 128,-1,13
 107 340 107 340 139.5 356.5 c 128,-1,14
 172 373 172 373 204 382 c 1,15,16
 150 402 150 402 112 438.5 c 128,-1,17
 74 475 74 475 74 530 c 0,18,19
 74 578 74 578 101.5 612.5 c 128,-1,20
 129 647 129 647 172 668.5 c 128,-1,21
 215 690 215 690 267 700 c 128,-1,22
 319 710 319 710 368 710 c 0,23,24
 420 710 420 710 470.5 700 c 128,-1,25
 521 690 521 690 562 669.5 c 128,-1,26
 603 649 603 649 627.5 618 c 128,-1,27
 652 587 652 587 652 546 c 0,28,29
 652 492 652 492 606 450.5 c 128,-1,30
 560 409 560 409 497 391 c 1,31,32
 535 385 535 385 571 370.5 c 128,-1,33
 607 356 607 356 635.5 333.5 c 128,-1,34
 664 311 664 311 681 281 c 128,-1,35
 698 251 698 251 698 215 c 0,0,1
527 541 m 0,36,37
 527 595 527 595 479.5 622.5 c 128,-1,38
 432 650 432 650 366 650 c 0,39,40
 296 650 296 650 245.5 624.5 c 128,-1,41
 195 599 195 599 195 547 c 0,42,43
 195 521 195 521 216.5 502 c 128,-1,44
 238 483 238 483 269.5 469 c 128,-1,45
 301 455 301 455 334.5 445 c 128,-1,46
 368 435 368 435 392 429 c 1,47,48
 415 435 415 435 439 445 c 128,-1,49
 463 455 463 455 482 469 c 128,-1,50
 501 483 501 483 514 500.5 c 128,-1,51
 527 518 527 518 527 541 c 0,36,37
572 207 m 0,52,53
 572 232 572 232 552 253 c 128,-1,54
 532 274 532 274 496 292.5 c 128,-1,55
 460 311 460 311 411 325 c 128,-1,56
 362 339 362 339 302 348 c 1,57,58
 273 343 273 343 247 331 c 128,-1,59
 221 319 221 319 201.5 301.5 c 128,-1,60
 182 284 182 284 170.5 261.5 c 128,-1,61
 159 239 159 239 159 215 c 0,62,63
 159 147 159 147 208.5 99.5 c 128,-1,64
 258 52 258 52 357 52 c 0,65,66
 458 52 458 52 515 96 c 128,-1,67
 572 140 572 140 572 207 c 0,52,53
EndSplineSet
EndChar
StartChar: nine
Encoding: 57 57 26
Width: 722
VWidth: 1533
Flags: W
HStem: -11 63<268.294 429.091> 196 68<257.016 449.187> 639 63<257.49 449.499>
VStem: 38 132<352.885 543.653> 537 151<353.473 487.765>
Fore
688 363 m 0,0,1
 688 287 688 287 666.5 219.5 c 128,-1,2
 645 152 645 152 601.5 100.5 c 128,-1,3
 558 49 558 49 493 19 c 128,-1,4
 428 -11 428 -11 340 -11 c 0,5,6
 293 -11 293 -11 248.5 -2.5 c 128,-1,7
 204 6 204 6 165.5 27 c 128,-1,8
 127 48 127 48 99 81.5 c 128,-1,9
 71 115 71 115 55 164 c 1,10,-1
 179 164 l 1,11,12
 205 110 205 110 242 81 c 128,-1,13
 279 52 279 52 343 52 c 0,14,15
 392 52 392 52 430 73.5 c 128,-1,16
 468 95 468 95 494.5 128 c 128,-1,17
 521 161 521 161 536.5 201.5 c 128,-1,18
 552 242 552 242 557 282 c 1,19,20
 523 247 523 247 468.5 221.5 c 128,-1,21
 414 196 414 196 337 196 c 0,22,23
 273 196 273 196 218.5 213 c 128,-1,24
 164 230 164 230 123.5 261.5 c 128,-1,25
 83 293 83 293 60.5 338 c 128,-1,26
 38 383 38 383 38 440 c 0,27,28
 38 501 38 501 62.5 550 c 128,-1,29
 87 599 87 599 130 633 c 128,-1,30
 173 667 173 667 230.5 684.5 c 128,-1,31
 288 702 288 702 354 702 c 0,32,33
 428 702 428 702 489 676 c 128,-1,34
 550 650 550 650 594.5 604 c 128,-1,35
 639 558 639 558 663.5 496 c 128,-1,36
 688 434 688 434 688 363 c 0,0,1
537 451 m 0,37,38
 537 538 537 538 487.5 588.5 c 128,-1,39
 438 639 438 639 354 639 c 0,40,41
 268 639 268 639 219 588.5 c 128,-1,42
 170 538 170 538 170 451 c 0,43,44
 170 365 170 365 219 314.5 c 128,-1,45
 268 264 268 264 353 264 c 128,-1,46
 438 264 438 264 487.5 314.5 c 128,-1,47
 537 365 537 365 537 451 c 0,37,38
EndSplineSet
EndChar
StartChar: colon
Encoding: 58 58 27
Width: 400
VWidth: 1533
Flags: W
HStem: -12 141<147.143 246.857> 370 142<147.143 246.857>
VStem: 126 142<8.62744 108.372 391.143 490.857>
Fore
268 442 m 0,0,1
 268 411 268 411 247.5 390.5 c 128,-1,2
 227 370 227 370 196 370 c 0,3,4
 167 370 167 370 146.5 390.5 c 128,-1,5
 126 411 126 411 126 442 c 0,6,7
 126 471 126 471 146.5 491.5 c 128,-1,8
 167 512 167 512 196 512 c 0,9,10
 227 512 227 512 247.5 491.5 c 128,-1,11
 268 471 268 471 268 442 c 0,0,1
268 58 m 256,12,13
 268 28 268 28 247.5 8 c 128,-1,14
 227 -12 227 -12 196 -12 c 0,15,16
 167 -12 167 -12 146.5 8 c 128,-1,17
 126 28 126 28 126 58 c 256,18,19
 126 89 126 89 146.5 109 c 128,-1,20
 167 129 167 129 196 129 c 0,21,22
 227 129 227 129 247.5 109 c 128,-1,23
 268 89 268 89 268 58 c 256,12,13
EndSplineSet
EndChar
StartChar: semicolon
Encoding: 59 59 28
Width: 418
VWidth: 1533
Flags: W
HStem: -31 20G<216 223.5> 370 142<161.143 260.857>
VStem: 140 142<29.0541 94.1841 391.143 490.857> 225 60<-52.842 -11>
Fore
282 442 m 0,0,1
 282 411 282 411 261.5 390.5 c 128,-1,2
 241 370 241 370 212 370 c 0,3,4
 181 370 181 370 160.5 390.5 c 128,-1,5
 140 411 140 411 140 442 c 0,6,7
 140 471 140 471 160.5 491.5 c 128,-1,8
 181 512 181 512 212 512 c 0,9,10
 241 512 241 512 261.5 491.5 c 128,-1,11
 282 471 282 471 282 442 c 0,0,1
285 29 m 0,12,13
 285 -20 285 -20 253.5 -70 c 128,-1,14
 222 -120 222 -120 169 -144 c 1,15,-1
 147 -115 l 1,16,17
 173 -104 173 -104 197.5 -76.5 c 128,-1,18
 222 -49 222 -49 225 -11 c 1,19,20
 207 -17 207 -17 190 -13 c 128,-1,21
 173 -9 173 -9 160 0 c 128,-1,22
 147 9 147 9 140 21.5 c 128,-1,23
 133 34 133 34 133 48 c 0,24,25
 133 74 133 74 151.5 97.5 c 128,-1,26
 170 121 170 121 209 121 c 256,27,28
 247 121 247 121 266 95 c 128,-1,29
 285 69 285 69 285 29 c 0,12,13
EndSplineSet
EndChar
StartChar: less
Encoding: 60 60 29
Width: 720
VWidth: 1533
Flags: W
HStem: -11 21G<615.87 662>
Fore
198 291 m 1,0,-1
 662 92 l 1,1,-1
 662 -11 l 1,2,-1
 60 250 l 1,3,-1
 60 331 l 1,4,-1
 662 592 l 1,5,-1
 662 491 l 1,6,-1
 198 291 l 1,0,-1
EndSplineSet
EndChar
StartChar: equal
Encoding: 61 61 30
Width: 719
VWidth: 1533
Flags: W
HStem: 153 74<52 667> 363 74<52 667>
Fore
52 363 m 1,0,-1
 52 437 l 1,1,-1
 667 437 l 1,2,-1
 667 363 l 1,3,-1
 52 363 l 1,0,-1
52 153 m 1,4,-1
 52 227 l 1,5,-1
 667 227 l 1,6,-1
 667 153 l 1,7,-1
 52 153 l 1,4,-1
EndSplineSet
EndChar
StartChar: greater
Encoding: 62 62 31
Width: 720
VWidth: 1533
Flags: W
HStem: -11 21G<60 106.13>
Fore
60 -11 m 1,0,-1
 60 92 l 1,1,-1
 523 291 l 1,2,-1
 60 491 l 1,3,-1
 60 592 l 1,4,-1
 662 331 l 1,5,-1
 662 250 l 1,6,-1
 60 -11 l 1,0,-1
EndSplineSet
EndChar
StartChar: question
Encoding: 63 63 32
Width: 608
VWidth: 1533
Flags: W
HStem: -17 144<226.659 328.342> 681 56<226.201 358.449>
VStem: 205 145<4.65845 105.857> 247 61<181 264.449> 408 145<469.082 602.386>
Fore
553 527 m 0,0,1
 553 486 553 486 535.5 458.5 c 128,-1,2
 518 431 518 431 491.5 409.5 c 128,-1,3
 465 388 465 388 433.5 368 c 128,-1,4
 402 348 402 348 374.5 323.5 c 128,-1,5
 347 299 347 299 328.5 265.5 c 128,-1,6
 310 232 310 232 308 181 c 1,7,-1
 247 181 l 1,8,9
 244 241 244 241 254.5 281.5 c 128,-1,10
 265 322 265 322 283.5 350.5 c 128,-1,11
 302 379 302 379 323.5 398 c 128,-1,12
 345 417 345 417 363.5 435.5 c 128,-1,13
 382 454 382 454 395 475.5 c 128,-1,14
 408 497 408 497 408 529 c 256,15,16
 408 561 408 561 404 589.5 c 128,-1,17
 400 618 400 618 387 638 c 128,-1,18
 374 658 374 658 351 669.5 c 128,-1,19
 328 681 328 681 291 681 c 0,20,21
 251 681 251 681 226.5 661.5 c 128,-1,22
 202 642 202 642 188.5 612.5 c 128,-1,23
 175 583 175 583 170.5 547.5 c 128,-1,24
 166 512 166 512 166 480 c 1,25,-1
 40 480 l 1,26,27
 40 599 40 599 108 668 c 128,-1,28
 176 737 176 737 294 737 c 0,29,30
 342 737 342 737 388.5 725 c 128,-1,31
 435 713 435 713 472 687 c 128,-1,32
 509 661 509 661 531 621 c 128,-1,33
 553 581 553 581 553 527 c 0,0,1
350 55 m 256,34,35
 350 25 350 25 329 4 c 128,-1,36
 308 -17 308 -17 278 -17 c 256,37,38
 247 -17 247 -17 226 4 c 128,-1,39
 205 25 205 25 205 55 c 256,40,41
 205 86 205 86 226 106.5 c 128,-1,42
 247 127 247 127 278 127 c 256,43,44
 308 127 308 127 329 106.5 c 128,-1,45
 350 86 350 86 350 55 c 256,34,35
EndSplineSet
EndChar
StartChar: at
Encoding: 64 64 33
Width: 942
VWidth: 1533
Flags: W
HStem: -23 64<384.635 623.398> 143 59<641.829 713.047> 144 69<399.656 483.77> 495 66<479.227 562.911> 685 52<382.135 609.593>
VStem: 66 130<227.057 471.751> 293 118<255.631 365.576> 793 84<345.308 510.973>
Fore
877 411 m 0,0,1
 877 366 877 366 861 319.5 c 128,-1,2
 845 273 845 273 815 233 c 128,-1,3
 785 193 785 193 743 168 c 128,-1,4
 701 143 701 143 649 143 c 0,5,6
 612 143 612 143 583.5 170.5 c 128,-1,7
 555 198 555 198 544 227 c 1,8,9
 518 193 518 193 487.5 168.5 c 128,-1,10
 457 144 457 144 412 144 c 0,11,12
 377 144 377 144 354 158 c 128,-1,13
 331 172 331 172 317.5 194 c 128,-1,14
 304 216 304 216 298.5 241.5 c 128,-1,15
 293 267 293 267 293 290 c 0,16,17
 293 328 293 328 306.5 375.5 c 128,-1,18
 320 423 320 423 348.5 464.5 c 128,-1,19
 377 506 377 506 419 533.5 c 128,-1,20
 461 561 461 561 520 561 c 0,21,22
 581 561 581 561 606 498 c 1,23,-1
 639 550 l 1,24,-1
 727 550 l 1,25,-1
 649 265 l 2,26,27
 641 239 641 239 641.5 220.5 c 128,-1,28
 642 202 642 202 661 202 c 0,29,30
 688 202 688 202 712.5 222 c 128,-1,31
 737 242 737 242 755 273 c 128,-1,32
 773 304 773 304 783 340 c 128,-1,33
 793 376 793 376 793 408 c 0,34,35
 793 465 793 465 770 514.5 c 128,-1,36
 747 564 747 564 706 602.5 c 128,-1,37
 665 641 665 641 611 663 c 128,-1,38
 557 685 557 685 494 685 c 0,39,40
 425 685 425 685 369.5 657.5 c 128,-1,41
 314 630 314 630 276 582.5 c 128,-1,42
 238 535 238 535 217 473.5 c 128,-1,43
 196 412 196 412 196 345 c 256,44,45
 196 278 196 278 220 222 c 128,-1,46
 244 166 244 166 285.5 126 c 128,-1,47
 327 86 327 86 382.5 63.5 c 128,-1,48
 438 41 438 41 501 41 c 0,49,50
 566 41 566 41 622.5 61 c 128,-1,51
 679 81 679 81 728 112 c 1,52,-1
 767 51 l 1,53,54
 707 20 707 20 644 -1.5 c 128,-1,55
 581 -23 581 -23 507 -23 c 0,56,57
 414 -23 414 -23 333.5 4.5 c 128,-1,58
 253 32 253 32 193 81 c 128,-1,59
 133 130 133 130 99.5 197 c 128,-1,60
 66 264 66 264 66 342 c 0,61,62
 66 425 66 425 98 497 c 128,-1,63
 130 569 130 569 187 622.5 c 128,-1,64
 244 676 244 676 322 706.5 c 128,-1,65
 400 737 400 737 492 737 c 0,66,67
 573 737 573 737 643.5 713.5 c 128,-1,68
 714 690 714 690 765.5 647 c 128,-1,69
 817 604 817 604 847 543.5 c 128,-1,70
 877 483 877 483 877 411 c 0,0,1
572 425 m 0,71,72
 572 457 572 457 562.5 476 c 128,-1,73
 553 495 553 495 538 495 c 0,74,75
 486 495 486 495 448.5 439 c 128,-1,76
 411 383 411 383 411 294 c 0,77,78
 411 262 411 262 421 237.5 c 128,-1,79
 431 213 431 213 457 213 c 0,80,81
 475 213 475 213 495 232 c 128,-1,82
 515 251 515 251 532 281 c 128,-1,83
 549 311 549 311 560.5 349.5 c 128,-1,84
 572 388 572 388 572 425 c 0,71,72
EndSplineSet
EndChar
StartChar: A
Encoding: 65 65 34
Width: 892
VWidth: 1533
Flags: W
HStem: 0 21G<8 103.362 725.928 885> 345 77<331 504> 719 20G<425.39 490.961>
Fore
737 0 m 1,0,-1
 546 345 l 1,1,-1
 288 345 l 1,2,-1
 92 0 l 1,3,-1
 8 0 l 1,4,-1
 437 739 l 1,5,-1
 480 739 l 1,6,-1
 885 0 l 1,7,-1
 737 0 l 1,0,-1
420 581 m 1,8,-1
 331 422 l 1,9,-1
 504 422 l 1,10,-1
 420 581 l 1,8,-1
EndSplineSet
EndChar
StartChar: B
Encoding: 66 66 35
Width: 863
VWidth: 1533
Flags: W
HStem: 0 61<204 520.754> 351 63<204 485.914> 653 61<204 448.797 448.797 498.968 498.968 546.452>
VStem: 77 127<61 351 414 653> 624 133<477.241 595.271> 685 140<139.627 274.176>
Fore
825 205 m 0,0,1
 825 138 825 138 786 98 c 128,-1,2
 747 58 747 58 688 36 c 128,-1,3
 629 14 629 14 560.5 7 c 128,-1,4
 492 0 492 0 434 0 c 2,5,-1
 77 0 l 1,6,-1
 77 714 l 1,7,-1
 449 714 l 2,8,9
 498 714 498 714 552.5 707.5 c 128,-1,10
 607 701 607 701 652.5 681.5 c 128,-1,11
 698 662 698 662 727.5 628.5 c 128,-1,12
 757 595 757 595 757 541 c 256,13,14
 757 488 757 488 719 449.5 c 128,-1,15
 681 411 681 411 624 389 c 1,16,17
 664 380 664 380 700 365.5 c 128,-1,18
 736 351 736 351 763.5 329 c 128,-1,19
 791 307 791 307 808 277 c 128,-1,20
 825 247 825 247 825 205 c 0,0,1
624 535 m 0,21,22
 624 573 624 573 602.5 596 c 128,-1,23
 581 619 581 619 547.5 631.5 c 128,-1,24
 514 644 514 644 474 648.5 c 128,-1,25
 434 653 434 653 397 653 c 2,26,-1
 204 653 l 1,27,-1
 204 414 l 1,28,-1
 400 414 l 2,29,30
 506 414 506 414 565 447.5 c 128,-1,31
 624 481 624 481 624 535 c 0,21,22
685 199 m 0,32,33
 685 250 685 250 658.5 280 c 128,-1,34
 632 310 632 310 590.5 326 c 128,-1,35
 549 342 549 342 498.5 346.5 c 128,-1,36
 448 351 448 351 400 351 c 2,37,-1
 204 351 l 1,38,-1
 204 61 l 1,39,-1
 489 61 l 2,40,41
 527 61 527 61 563 71 c 128,-1,42
 599 81 599 81 626 99.5 c 128,-1,43
 653 118 653 118 669 143.5 c 128,-1,44
 685 169 685 169 685 199 c 0,32,33
EndSplineSet
EndChar
StartChar: C
Encoding: 67 67 36
Width: 903
VWidth: 1533
Flags: W
HStem: -23 58<375.532 582.573> 679 60<370.53 564.892>
VStem: 38 143<239.784 479.047>
Fore
865 207 m 1,0,1
 806 87 806 87 708 32 c 128,-1,2
 610 -23 610 -23 486 -23 c 0,3,4
 392 -23 392 -23 311 6 c 128,-1,5
 230 35 230 35 169.5 85.5 c 128,-1,6
 109 136 109 136 73.5 204.5 c 128,-1,7
 38 273 38 273 38 353 c 0,8,9
 38 440 38 440 73.5 511.5 c 128,-1,10
 109 583 109 583 169.5 633.5 c 128,-1,11
 230 684 230 684 312 711.5 c 128,-1,12
 394 739 394 739 488 739 c 0,13,14
 544 739 544 739 600 726 c 128,-1,15
 656 713 656 713 705 685.5 c 128,-1,16
 754 658 754 658 795.5 614 c 128,-1,17
 837 570 837 570 865 509 c 1,18,-1
 711 509 l 1,19,20
 681 586 681 586 622.5 632.5 c 128,-1,21
 564 679 564 679 486 679 c 0,22,23
 422 679 422 679 366 655.5 c 128,-1,24
 310 632 310 632 269 589.5 c 128,-1,25
 228 547 228 547 204.5 489.5 c 128,-1,26
 181 432 181 432 181 363 c 256,27,28
 181 294 181 294 204.5 234.5 c 128,-1,29
 228 175 228 175 269 130.5 c 128,-1,30
 310 86 310 86 366 60.5 c 128,-1,31
 422 35 422 35 486 35 c 0,32,33
 564 35 564 35 624 82 c 128,-1,34
 684 129 684 129 714 207 c 1,35,-1
 865 207 l 1,0,1
EndSplineSet
EndChar
StartChar: D
Encoding: 68 68 37
Width: 898
VWidth: 1533
Flags: W
HStem: 0 61<204 534.312> 653 61<204 536.094>
VStem: 77 127<61 653> 714 146<244.257 490.48>
Fore
860 379 m 0,0,1
 860 299 860 299 835.5 230 c 128,-1,2
 811 161 811 161 753 109.5 c 128,-1,3
 695 58 695 58 599 29 c 128,-1,4
 503 0 503 0 359 0 c 2,5,-1
 77 0 l 1,6,-1
 77 714 l 1,7,-1
 353 714 l 2,8,9
 491 714 491 714 586.5 689 c 128,-1,10
 682 664 682 664 743.5 618.5 c 128,-1,11
 805 573 805 573 832.5 512 c 128,-1,12
 860 451 860 451 860 379 c 0,0,1
714 379 m 0,13,14
 714 434 714 434 698 484 c 128,-1,15
 682 534 682 534 643 571.5 c 128,-1,16
 604 609 604 609 539 631 c 128,-1,17
 474 653 474 653 374 653 c 2,18,-1
 204 653 l 1,19,-1
 204 61 l 1,20,-1
 374 61 l 2,21,22
 472 61 472 61 538 83.5 c 128,-1,23
 604 106 604 106 643 147.5 c 128,-1,24
 682 189 682 189 698 248 c 128,-1,25
 714 307 714 307 714 379 c 0,13,14
EndSplineSet
EndChar
StartChar: E
Encoding: 69 69 38
Width: 742
VWidth: 1533
Flags: W
HStem: 0 61<204 719> 353 61<202 610> 653 61<202 719>
VStem: 77 125<61 353 414 653>
Fore
77 0 m 1,0,-1
 77 714 l 1,1,-1
 719 714 l 1,2,-1
 719 653 l 1,3,-1
 202 653 l 1,4,-1
 202 414 l 1,5,-1
 610 414 l 1,6,-1
 610 353 l 1,7,-1
 202 353 l 1,8,-1
 204 61 l 1,9,-1
 719 61 l 1,10,-1
 719 0 l 1,11,-1
 77 0 l 1,0,-1
EndSplineSet
EndChar
StartChar: F
Encoding: 70 70 39
Width: 742
VWidth: 1533
Flags: W
HStem: 0 21G<77 204> 353 61<202 610> 653 61<202 719>
VStem: 77 125<0 353 414 653>
Fore
202 653 m 1,0,-1
 202 414 l 1,1,-1
 610 414 l 1,2,-1
 610 353 l 1,3,-1
 202 353 l 1,4,-1
 204 0 l 1,5,-1
 77 0 l 1,6,-1
 77 714 l 1,7,-1
 719 714 l 1,8,-1
 719 653 l 1,9,-1
 202 653 l 1,0,-1
EndSplineSet
EndChar
StartChar: G
Encoding: 71 71 40
Width: 932
VWidth: 1533
Flags: W
HStem: -23 60<366.778 567.133> 324 62<461 719> 679 60<366.096 557.745>
VStem: 37 145<234.783 480.047> 719 126<140 324>
Fore
711 509 m 1,0,1
 678 587 678 587 619 633 c 128,-1,2
 560 679 560 679 475 679 c 0,3,4
 415 679 415 679 362.5 656 c 128,-1,5
 310 633 310 633 270 591 c 128,-1,6
 230 549 230 549 206 491.5 c 128,-1,7
 182 434 182 434 182 365 c 0,8,9
 182 288 182 288 207 227 c 128,-1,10
 232 166 232 166 272.5 123.5 c 128,-1,11
 313 81 313 81 365 59 c 128,-1,12
 417 37 417 37 471 37 c 0,13,14
 549 37 549 37 614 67 c 128,-1,15
 679 97 679 97 719 140 c 1,16,-1
 719 324 l 1,17,-1
 461 324 l 1,18,-1
 461 386 l 1,19,-1
 845 386 l 1,20,-1
 845 107 l 1,21,22
 808 72 808 72 763.5 47.5 c 128,-1,23
 719 23 719 23 670.5 7 c 128,-1,24
 622 -9 622 -9 571 -16 c 128,-1,25
 520 -23 520 -23 471 -23 c 0,26,27
 396 -23 396 -23 319 2.5 c 128,-1,28
 242 28 242 28 179.5 76 c 128,-1,29
 117 124 117 124 77 194 c 128,-1,30
 37 264 37 264 37 353 c 0,31,32
 37 440 37 440 72 511.5 c 128,-1,33
 107 583 107 583 167.5 633.5 c 128,-1,34
 228 684 228 684 308 711.5 c 128,-1,35
 388 739 388 739 475 739 c 0,36,37
 530 739 530 739 587.5 727.5 c 128,-1,38
 645 716 645 716 696.5 690 c 128,-1,39
 748 664 748 664 792 619.5 c 128,-1,40
 836 575 836 575 863 509 c 1,41,-1
 711 509 l 1,0,1
EndSplineSet
EndChar
StartChar: H
Encoding: 72 72 41
Width: 883
VWidth: 1533
Flags: W
HStem: 0 21G<77 202 681 806> 353 61<202 681> 694 20G<77 202 681 806>
VStem: 77 125<0 353 414 714> 681 125<0 353 414 714>
Fore
806 0 m 1,0,-1
 681 0 l 1,1,-1
 681 353 l 1,2,-1
 202 353 l 1,3,-1
 202 0 l 1,4,-1
 77 0 l 1,5,-1
 77 714 l 1,6,-1
 202 714 l 1,7,-1
 202 414 l 1,8,-1
 681 414 l 1,9,-1
 681 714 l 1,10,-1
 806 714 l 1,11,-1
 806 0 l 1,0,-1
EndSplineSet
EndChar
StartChar: I
Encoding: 73 73 42
Width: 279
VWidth: 1533
Flags: W
HStem: 0 714<77 202 77 202 77 77>
VStem: 77 125<0 714>
Fore
77 0 m 1,0,-1
 77 714 l 1,1,-1
 202 714 l 1,2,-1
 202 0 l 1,3,-1
 77 0 l 1,0,-1
EndSplineSet
EndChar
StartChar: J
Encoding: 74 74 43
Width: 574
VWidth: 1533
Flags: W
HStem: -31 59<190.267 311.063> 694 20G<371 498>
VStem: 371 127<116.503 207 207 714>
Fore
498 225 m 1,0,1
 498 163 498 163 478 115 c 128,-1,2
 458 67 458 67 423.5 35 c 128,-1,3
 389 3 389 3 344 -14 c 128,-1,4
 299 -31 299 -31 250 -31 c 0,5,6
 204 -31 204 -31 159.5 -18.5 c 128,-1,7
 115 -6 115 -6 79 18.5 c 128,-1,8
 43 43 43 43 20 80.5 c 128,-1,9
 -3 118 -3 118 -6 169 c 1,10,-1
 126 169 l 1,11,12
 129 109 129 109 159.5 68.5 c 128,-1,13
 190 28 190 28 247 28 c 0,14,15
 301 28 301 28 336 76 c 128,-1,16
 371 124 371 124 371 207 c 2,17,-1
 371 714 l 1,18,-1
 498 714 l 1,19,-1
 498 225 l 1,0,1
EndSplineSet
EndChar
StartChar: K
Encoding: 75 75 44
Width: 807
VWidth: 1533
Flags: W
HStem: 0 21G<77 202 632.652 800> 694 20G<77 202 587.312 741>
VStem: 77 125<0 302 394 714>
Fore
647 0 m 1,0,-1
 350 414 l 1,1,-1
 202 302 l 1,2,-1
 202 0 l 1,3,-1
 77 0 l 1,4,-1
 77 714 l 1,5,-1
 202 714 l 1,6,-1
 202 394 l 1,7,-1
 613 714 l 1,8,-1
 741 714 l 1,9,-1
 446 489 l 1,10,-1
 800 0 l 1,11,-1
 647 0 l 1,0,-1
EndSplineSet
EndChar
StartChar: L
Encoding: 76 76 45
Width: 656
VWidth: 1533
Flags: W
HStem: 0 61<202 649> 694 20G<77 202>
VStem: 77 125<61 714>
Fore
77 0 m 1,0,-1
 77 714 l 1,1,-1
 202 714 l 1,2,-1
 202 61 l 1,3,-1
 649 61 l 1,4,-1
 649 0 l 1,5,-1
 77 0 l 1,0,-1
EndSplineSet
EndChar
StartChar: M
Encoding: 77 77 46
Width: 987
VWidth: 1533
Flags: W
HStem: 0 21G<77 153 437.631 498.588 785 911> 694 20G<77 229.309 783.437 911>
VStem: 77 76<0 557> 785 126<0 549>
Fore
785 0 m 1,0,-1
 785 549 l 1,1,-1
 488 -12 l 1,2,-1
 448 -12 l 1,3,-1
 153 557 l 1,4,-1
 153 0 l 1,5,-1
 77 0 l 1,6,-1
 77 714 l 1,7,-1
 219 714 l 1,8,-1
 503 163 l 1,9,-1
 794 714 l 1,10,-1
 911 714 l 1,11,-1
 911 0 l 1,12,-1
 785 0 l 1,0,-1
EndSplineSet
EndChar
StartChar: N
Encoding: 78 78 47
Width: 863
VWidth: 1533
Flags: W
HStem: -23 21<77 153 724.591 787> 694 20G<77 220.427 710 787>
VStem: 77 76<-2 586> 710 77<190 714>
Fore
744 -23 m 1,0,-1
 153 586 l 1,1,-1
 153 -2 l 1,2,-1
 77 -2 l 1,3,-1
 77 714 l 1,4,-1
 201 714 l 1,5,-1
 710 190 l 1,6,-1
 710 714 l 1,7,-1
 787 714 l 1,8,-1
 787 -23 l 1,9,-1
 744 -23 l 1,0,-1
EndSplineSet
EndChar
StartChar: O
Encoding: 79 79 48
Width: 956
VWidth: 1533
Flags: W
HStem: -26 55<364.537 589.161> 685 54<367.118 590.964>
VStem: 38 146<235.132 475.668> 773 145<238.455 477.201>
Fore
918 357 m 256,0,1
 918 278 918 278 883 208 c 128,-1,2
 848 138 848 138 788 86 c 128,-1,3
 728 34 728 34 647.5 4 c 128,-1,4
 567 -26 567 -26 477 -26 c 256,5,6
 386 -26 386 -26 306.5 4 c 128,-1,7
 227 34 227 34 167 85 c 128,-1,8
 107 136 107 136 72.5 206 c 128,-1,9
 38 276 38 276 38 356 c 256,10,11
 38 435 38 435 72.5 505 c 128,-1,12
 107 575 107 575 167 627 c 128,-1,13
 227 679 227 679 307.5 709 c 128,-1,14
 388 739 388 739 478 739 c 256,15,16
 569 739 569 739 649.5 709 c 128,-1,17
 730 679 730 679 789.5 627.5 c 128,-1,18
 849 576 849 576 883.5 506.5 c 128,-1,19
 918 437 918 437 918 357 c 256,0,1
773 357 m 256,20,21
 773 426 773 426 752 486 c 128,-1,22
 731 546 731 546 692 590.5 c 128,-1,23
 653 635 653 635 598.5 660 c 128,-1,24
 544 685 544 685 478 685 c 0,25,26
 411 685 411 685 357.5 659 c 128,-1,27
 304 633 304 633 264.5 588.5 c 128,-1,28
 225 544 225 544 204.5 484.5 c 128,-1,29
 184 425 184 425 184 356 c 256,30,31
 184 287 184 287 204.5 228 c 128,-1,32
 225 169 225 169 263.5 124.5 c 128,-1,33
 302 80 302 80 355.5 54.5 c 128,-1,34
 409 29 409 29 477 29 c 256,35,36
 544 29 544 29 598.5 54.5 c 128,-1,37
 653 80 653 80 692 124.5 c 128,-1,38
 731 169 731 169 752 228.5 c 128,-1,39
 773 288 773 288 773 357 c 256,20,21
EndSplineSet
EndChar
StartChar: P
Encoding: 80 80 49
Width: 803
VWidth: 1533
Flags: W
HStem: 0 21G<77 202> 308 63<202 437.958> 653 61<202 443.786>
VStem: 77 125<0 308 371 653> 626 139<450.209 570.833>
Fore
765 517 m 0,0,1
 765 451 765 451 729 410.5 c 128,-1,2
 693 370 693 370 633 347 c 128,-1,3
 573 324 573 324 493.5 316 c 128,-1,4
 414 308 414 308 327 308 c 2,5,-1
 202 308 l 1,6,-1
 202 0 l 1,7,-1
 77 0 l 1,8,-1
 77 714 l 1,9,-1
 330 714 l 2,10,11
 429 714 429 714 509.5 705 c 128,-1,12
 590 696 590 696 647 673 c 128,-1,13
 704 650 704 650 734.5 611.5 c 128,-1,14
 765 573 765 573 765 517 c 0,0,1
626 520 m 0,15,16
 626 543 626 543 611 566.5 c 128,-1,17
 596 590 596 590 562.5 609.5 c 128,-1,18
 529 629 529 629 473 641 c 128,-1,19
 417 653 417 653 333 653 c 2,20,-1
 202 653 l 1,21,-1
 202 371 l 1,22,-1
 328 371 l 2,23,24
 488 371 488 371 557 409.5 c 128,-1,25
 626 448 626 448 626 520 c 0,15,16
EndSplineSet
EndChar
StartChar: Q
Encoding: 81 81 50
Width: 956
VWidth: 1533
Flags: W
HStem: -236 69<667.318 690 736.5 804.464> 684 55<367.118 587.914>
VStem: 38 146<230.167 472.845> 773 145<232.935 475.165>
Fore
417 -31 m 1,0,1
 336 -21 336 -21 266 12.5 c 128,-1,2
 196 46 196 46 145.5 97.5 c 128,-1,3
 95 149 95 149 66.5 214 c 128,-1,4
 38 279 38 279 38 351 c 0,5,6
 38 431 38 431 72.5 502 c 128,-1,7
 107 573 107 573 167 625.5 c 128,-1,8
 227 678 227 678 307.5 708.5 c 128,-1,9
 388 739 388 739 478 739 c 256,10,11
 569 739 569 739 649.5 709 c 128,-1,12
 730 679 730 679 789.5 627 c 128,-1,13
 849 575 849 575 883.5 504.5 c 128,-1,14
 918 434 918 434 918 353 c 0,15,16
 918 284 918 284 891.5 221 c 128,-1,17
 865 158 865 158 818 107.5 c 128,-1,18
 771 57 771 57 707.5 22.5 c 128,-1,19
 644 -12 644 -12 570 -25 c 1,20,21
 576 -57 576 -57 600 -88.5 c 128,-1,22
 624 -120 624 -120 658.5 -140.5 c 128,-1,23
 693 -161 693 -161 736.5 -167 c 128,-1,24
 780 -173 780 -173 826 -156 c 1,25,-1
 810 -212 l 1,26,27
 751 -239 751 -239 690 -236 c 128,-1,28
 629 -233 629 -233 573.5 -207 c 128,-1,29
 518 -181 518 -181 476.5 -135 c 128,-1,30
 435 -89 435 -89 417 -31 c 1,0,1
773 353 m 256,31,32
 773 422 773 422 752 482.5 c 128,-1,33
 731 543 731 543 692 587.5 c 128,-1,34
 653 632 653 632 598.5 658 c 128,-1,35
 544 684 544 684 478 684 c 0,36,37
 411 684 411 684 357.5 658 c 128,-1,38
 304 632 304 632 264.5 586.5 c 128,-1,39
 225 541 225 541 204.5 480.5 c 128,-1,40
 184 420 184 420 184 351 c 256,41,42
 184 282 184 282 204.5 222.5 c 128,-1,43
 225 163 225 163 263.5 117.5 c 128,-1,44
 302 72 302 72 355.5 46.5 c 128,-1,45
 409 21 409 21 477 21 c 256,46,47
 544 21 544 21 598.5 47.5 c 128,-1,48
 653 74 653 74 692 118.5 c 128,-1,49
 731 163 731 163 752 223.5 c 128,-1,50
 773 284 773 284 773 353 c 256,31,32
EndSplineSet
EndChar
StartChar: R
Encoding: 82 82 51
Width: 818
VWidth: 1533
Flags: W
HStem: 0 21G<38 166 636.5 803> 308 63<166 399.527> 653 61<166 391.643>
VStem: 38 128<0 308 371 653> 584 149<457.861 579.383>
Fore
652 0 m 1,0,1
 621 28 621 28 602.5 69 c 128,-1,2
 584 110 584 110 570 152 c 2,3,-1
 555 201 l 2,4,5
 540 245 540 245 510.5 276.5 c 128,-1,6
 481 308 481 308 435 308 c 2,7,-1
 166 308 l 1,8,-1
 166 0 l 1,9,-1
 38 0 l 1,10,-1
 38 714 l 1,11,-1
 291 714 l 2,12,13
 371 714 371 714 450 708 c 128,-1,14
 529 702 529 702 592 682 c 128,-1,15
 655 662 655 662 694 622.5 c 128,-1,16
 733 583 733 583 733 517 c 0,17,18
 733 486 733 486 715.5 458.5 c 128,-1,19
 698 431 698 431 670 409.5 c 128,-1,20
 642 388 642 388 608.5 372.5 c 128,-1,21
 575 357 575 357 543 350 c 1,22,23
 604 337 604 337 641.5 299 c 128,-1,24
 679 261 679 261 693 218 c 2,25,-1
 722 130 l 2,26,27
 730 104 730 104 748.5 69 c 128,-1,28
 767 34 767 34 803 0 c 1,29,-1
 652 0 l 1,0,1
584 520 m 0,30,31
 584 549 584 549 571 573.5 c 128,-1,32
 558 598 558 598 526.5 615.5 c 128,-1,33
 495 633 495 633 441.5 643 c 128,-1,34
 388 653 388 653 308 653 c 2,35,-1
 166 653 l 1,36,-1
 166 371 l 1,37,-1
 316 371 l 2,38,39
 392 371 392 371 443.5 380 c 128,-1,40
 495 389 495 389 526.5 408.5 c 128,-1,41
 558 428 558 428 571 455.5 c 128,-1,42
 584 483 584 483 584 520 c 0,30,31
EndSplineSet
EndChar
StartChar: S
Encoding: 83 83 52
Width: 789
VWidth: 1533
Flags: W
HStem: -25 60<307.417 453.343> 678 58<305.346 494.875>
VStem: 63 135<498.915 609.761> 616 135<122.855 238.464>
Fore
751 213 m 0,0,1
 751 146 751 146 720.5 100.5 c 128,-1,2
 690 55 690 55 640 27.5 c 128,-1,3
 590 0 590 0 525.5 -12.5 c 128,-1,4
 461 -25 461 -25 394 -25 c 0,5,6
 325 -25 325 -25 263.5 -8 c 128,-1,7
 202 9 202 9 154 41.5 c 128,-1,8
 106 74 106 74 75 123 c 128,-1,9
 44 172 44 172 38 236 c 1,10,-1
 186 236 l 1,11,12
 187 193 187 193 204 156.5 c 128,-1,13
 221 120 221 120 248.5 93 c 128,-1,14
 276 66 276 66 313 50.5 c 128,-1,15
 350 35 350 35 394 35 c 0,16,17
 442 35 442 35 482.5 46.5 c 128,-1,18
 523 58 523 58 553 78 c 128,-1,19
 583 98 583 98 599.5 126.5 c 128,-1,20
 616 155 616 155 616 187 c 0,21,22
 616 216 616 216 600 235.5 c 128,-1,23
 584 255 584 255 559.5 268 c 128,-1,24
 535 281 535 281 507.5 289 c 128,-1,25
 480 297 480 297 457 302 c 0,26,27
 408 314 408 314 340.5 326.5 c 128,-1,28
 273 339 273 339 211 362 c 128,-1,29
 149 385 149 385 106 423 c 128,-1,30
 63 461 63 461 63 527 c 0,31,32
 63 584 63 584 93.5 624 c 128,-1,33
 124 664 124 664 172.5 689 c 128,-1,34
 221 714 221 714 280 725 c 128,-1,35
 339 736 339 736 394 736 c 0,36,37
 535 736 535 736 628 681.5 c 128,-1,38
 721 627 721 627 739 524 c 1,39,-1
 604 524 l 1,40,41
 599 552 599 552 586 579 c 128,-1,42
 573 606 573 606 548.5 628 c 128,-1,43
 524 650 524 650 486.5 664 c 128,-1,44
 449 678 449 678 394 678 c 0,45,46
 307 678 307 678 252.5 640.5 c 128,-1,47
 198 603 198 603 198 547 c 0,48,49
 198 520 198 520 214 501.5 c 128,-1,50
 230 483 230 483 254.5 470 c 128,-1,51
 279 457 279 457 306.5 449.5 c 128,-1,52
 334 442 334 442 356 437 c 0,53,54
 405 425 405 425 473 412.5 c 128,-1,55
 541 400 541 400 603 378 c 128,-1,56
 665 356 665 356 708 317 c 128,-1,57
 751 278 751 278 751 213 c 0,0,1
EndSplineSet
EndChar
StartChar: T
Encoding: 84 84 53
Width: 746
VWidth: 1533
Flags: W
HStem: 0 21G<308 438> 653 61<15 308 438 731>
VStem: 308 130<0 653>
Fore
438 653 m 1,0,-1
 438 0 l 1,1,-1
 308 0 l 1,2,-1
 308 653 l 1,3,-1
 15 653 l 1,4,-1
 15 714 l 1,5,-1
 731 714 l 1,6,-1
 731 653 l 1,7,-1
 438 653 l 1,0,-1
EndSplineSet
EndChar
StartChar: U
Encoding: 85 85 54
Width: 927
VWidth: 1533
Flags: W
HStem: -25 59<351.07 571.311> 694 20G<77 202 721 846>
VStem: 77 125<185.376 714> 721 125<185.376 278 278 714>
Fore
846 294 m 1,0,1
 846 216 846 216 818 156.5 c 128,-1,2
 790 97 790 97 739 57 c 128,-1,3
 688 17 688 17 617 -4 c 128,-1,4
 546 -25 546 -25 461 -25 c 128,-1,5
 376 -25 376 -25 305.5 -4 c 128,-1,6
 235 17 235 17 184 57 c 128,-1,7
 133 97 133 97 105 156.5 c 128,-1,8
 77 216 77 216 77 294 c 2,9,-1
 77 714 l 1,10,-1
 202 714 l 1,11,-1
 202 278 l 2,12,13
 202 228 202 228 220 184 c 128,-1,14
 238 140 238 140 271 107 c 128,-1,15
 304 74 304 74 352 54 c 128,-1,16
 400 34 400 34 461 34 c 256,17,18
 523 34 523 34 570.5 54 c 128,-1,19
 618 74 618 74 651.5 107 c 128,-1,20
 685 140 685 140 703 184 c 128,-1,21
 721 228 721 228 721 278 c 2,22,-1
 721 714 l 1,23,-1
 846 714 l 1,24,-1
 846 294 l 1,0,1
EndSplineSet
EndChar
StartChar: V
Encoding: 86 86 55
Width: 861
VWidth: 1533
Flags: W
HStem: -20 21G<386.401 451.281> 694 20G<8 162.563 756.873 854>
Fore
440 -20 m 1,0,-1
 397 -20 l 1,1,-1
 8 714 l 1,2,-1
 152 714 l 1,3,-1
 452 146 l 1,4,-1
 768 714 l 1,5,-1
 854 714 l 1,6,-1
 440 -20 l 1,0,-1
EndSplineSet
EndChar
StartChar: W
Encoding: 87 87 56
Width: 1113
VWidth: 1533
Flags: W
HStem: -20 21G<296.907 358.422 753.367 814.147> 694 20G<8 155.187 545.359 597.571 1021.77 1105>
Fore
806 -20 m 1,0,-1
 762 -20 l 1,1,-1
 541 492 l 1,2,-1
 351 -20 l 1,3,-1
 305 -20 l 1,4,-1
 8 714 l 1,5,-1
 147 714 l 1,6,-1
 357 201 l 1,7,-1
 553 714 l 1,8,-1
 589 714 l 1,9,-1
 814 189 l 1,10,-1
 1030 714 l 1,11,-1
 1105 714 l 1,12,-1
 806 -20 l 1,0,-1
EndSplineSet
EndChar
StartChar: X
Encoding: 88 88 57
Width: 748
VWidth: 1533
Flags: W
HStem: -2 21G<8 113.02 574.232 737> 694 20G<32 194.664 634.587 741>
Fore
440 382 m 1,0,-1
 737 -2 l 1,1,-1
 590 -2 l 1,2,-1
 359 291 l 1,3,-1
 95 -2 l 1,4,-1
 8 -2 l 1,5,-1
 322 339 l 1,6,-1
 32 714 l 1,7,-1
 179 714 l 1,8,-1
 403 428 l 1,9,-1
 652 714 l 1,10,-1
 741 714 l 1,11,-1
 440 382 l 1,0,-1
EndSplineSet
EndChar
StartChar: Y
Encoding: 89 89 58
Width: 829
VWidth: 1533
Flags: W
HStem: 0 21G<339 468> 694 20G<8 171.235 712.412 822>
VStem: 339 129<0 302>
Fore
468 317 m 1,0,-1
 468 0 l 1,1,-1
 339 0 l 1,2,-1
 339 302 l 1,3,-1
 8 714 l 1,4,-1
 155 714 l 1,5,-1
 431 374 l 1,6,-1
 730 714 l 1,7,-1
 822 714 l 1,8,-1
 468 317 l 1,0,-1
EndSplineSet
EndChar
StartChar: Z
Encoding: 90 90 59
Width: 745
VWidth: 1533
Flags: W
HStem: 0 61<213 676> 653 61<92 537>
Fore
213 61 m 1,0,-1
 704 61 l 1,1,-1
 676 0 l 1,2,-1
 15 0 l 1,3,-1
 537 653 l 1,4,-1
 63 653 l 1,5,-1
 92 714 l 1,6,-1
 730 714 l 1,7,-1
 213 61 l 1,0,-1
EndSplineSet
EndChar
StartChar: bracketleft
Encoding: 91 91 60
Width: 349
VWidth: 1533
Flags: W
HStem: -201 21G<170 271> 717 20G<170 271>
VStem: 69 109<-84.7316 596.861> 69 202<-201 -161 698 737>
Fore
271 -201 m 1,0,1
 69 -201 69 -201 69 17 c 2,2,-1
 69 520 l 2,3,4
 69 737 69 737 271 737 c 1,5,-1
 271 698 l 1,6,7
 239 693 239 693 220.5 684.5 c 128,-1,8
 202 676 202 676 193 660.5 c 128,-1,9
 184 645 184 645 181 620.5 c 128,-1,10
 178 596 178 596 178 560 c 2,11,-1
 178 -25 l 2,12,13
 178 -61 178 -61 181 -85.5 c 128,-1,14
 184 -110 184 -110 193 -125.5 c 128,-1,15
 202 -141 202 -141 220.5 -148.5 c 128,-1,16
 239 -156 239 -156 271 -161 c 1,17,-1
 271 -201 l 1,0,1
EndSplineSet
EndChar
StartChar: backslash
Encoding: 92 92 61
Width: 371
VWidth: 1533
Flags: W
HStem: -23 21G<279.816 399> 717 20G<-23 94.2368>
VStem: -23 422<-23 737 737 737>
Fore
288 -23 m 1,0,-1
 -23 737 l 1,1,-1
 86 737 l 1,2,-1
 399 -23 l 1,3,-1
 288 -23 l 1,0,-1
EndSplineSet
EndChar
StartChar: bracketright
Encoding: 93 93 62
Width: 349
VWidth: 1533
Flags: W
HStem: -201 21G<78 179.5> 717 20G<78 179.5>
VStem: 170 111<-84.7316 -25 -25 596.861>
Fore
281 17 m 1,0,1
 281 -201 281 -201 78 -201 c 1,2,-1
 78 -161 l 1,3,4
 110 -156 110 -156 128.5 -148.5 c 128,-1,5
 147 -141 147 -141 156.5 -125.5 c 128,-1,6
 166 -110 166 -110 168 -85.5 c 128,-1,7
 170 -61 170 -61 170 -25 c 2,8,-1
 170 560 l 2,9,10
 170 596 170 596 168 620.5 c 128,-1,11
 166 645 166 645 156.5 660.5 c 128,-1,12
 147 676 147 676 128.5 684.5 c 128,-1,13
 110 693 110 693 78 698 c 1,14,-1
 78 737 l 1,15,16
 281 737 281 737 281 520 c 2,17,-1
 281 17 l 1,0,1
EndSplineSet
EndChar
StartChar: asciicircum
Encoding: 94 94 63
Width: 731
VWidth: 1533
Flags: W
HStem: 281 406<320 518 320 320>
Fore
518 281 m 1,0,-1
 366 553 l 1,1,-1
 215 281 l 1,2,-1
 97 281 l 1,3,-1
 320 687 l 1,4,-1
 412 687 l 1,5,-1
 638 281 l 1,6,-1
 518 281 l 1,0,-1
EndSplineSet
EndChar
StartChar: underscore
Encoding: 95 95 64
Width: 619
VWidth: 1533
Flags: W
HStem: -140 56<8 612>
Fore
8 -140 m 1,0,-1
 8 -84 l 1,1,-1
 612 -84 l 1,2,-1
 612 -140 l 1,3,-1
 8 -140 l 1,0,-1
EndSplineSet
EndChar
StartChar: grave
Encoding: 96 96 65
Width: 349
VWidth: 1533
Flags: W
HStem: 652 196<41 227 41 41>
VStem: -5 309<652 797 797 797>
Fore
227 652 m 1,0,-1
 54 737 l 2,1,2
 -5 767 -5 767 -5 797 c 0,3,4
 -5 814 -5 814 5 831 c 128,-1,5
 15 848 15 848 41 848 c 0,6,7
 58 848 58 848 73.5 840.5 c 128,-1,8
 89 833 89 833 101 823 c 2,9,-1
 304 652 l 1,10,-1
 227 652 l 1,0,-1
EndSplineSet
EndChar
StartChar: a
Encoding: 97 97 66
Width: 657
VWidth: 1533
Flags: W
HStem: -15 58<245.044 377.128> 285 60<336.552 408.631 408.631 449.546 449.546 475> 491 59<239.731 414.91>
VStem: 31 128<115.939 213.55> 475 111<163.643 285 347 426.413>
Fore
504 -2 m 1,0,1
 498 15 498 15 493 32 c 128,-1,2
 488 49 488 49 486 67 c 1,3,4
 446 23 446 23 390 4 c 128,-1,5
 334 -15 334 -15 274 -15 c 0,6,7
 230 -15 230 -15 186.5 -4.5 c 128,-1,8
 143 6 143 6 108.5 27.5 c 128,-1,9
 74 49 74 49 52.5 82 c 128,-1,10
 31 115 31 115 31 159 c 0,11,12
 31 218 31 218 67.5 254.5 c 128,-1,13
 104 291 104 291 159.5 311 c 128,-1,14
 215 331 215 331 277.5 338 c 128,-1,15
 340 345 340 345 394 345 c 0,16,17
 397 345 397 345 424 346 c 128,-1,18
 451 347 451 347 475 347 c 1,19,20
 475 403 475 403 440 447 c 128,-1,21
 405 491 405 491 324 491 c 0,22,23
 268 491 268 491 233 464.5 c 128,-1,24
 198 438 198 438 186 379 c 1,25,-1
 58 379 l 1,26,27
 84 466 84 466 158.5 508 c 128,-1,28
 233 550 233 550 324 550 c 0,29,30
 458 550 458 550 522 494 c 128,-1,31
 586 438 586 438 586 345 c 2,32,-1
 586 132 l 2,33,34
 586 92 586 92 594.5 58.5 c 128,-1,35
 603 25 603 25 612 -2 c 1,36,-1
 504 -2 l 1,0,1
396 285 m 2,37,38
 348 285 348 285 305 276.5 c 128,-1,39
 262 268 262 268 230 252 c 128,-1,40
 198 236 198 236 178.5 212.5 c 128,-1,41
 159 189 159 189 159 156 c 0,42,43
 159 135 159 135 170 115 c 128,-1,44
 181 95 181 95 201 79 c 128,-1,45
 221 63 221 63 246 53 c 128,-1,46
 271 43 271 43 302 43 c 0,47,48
 339 43 339 43 370.5 57.5 c 128,-1,49
 402 72 402 72 425.5 99 c 128,-1,50
 449 126 449 126 462 162.5 c 128,-1,51
 475 199 475 199 475 245 c 2,52,-1
 475 285 l 1,53,-1
 396 285 l 2,37,38
EndSplineSet
Substitution2: "Single Substitution lookup 22 subtable" uni0E38
Substitution2: "Single Substitution lookup 22 subtable" uni0E38
EndChar
StartChar: b
Encoding: 98 98 67
Width: 709
VWidth: 1533
Flags: W
HStem: -17 61<292.265 438.999> 501 60<291.865 438.999>
VStem: 69 110<-2 67 183.798 358.171 469 742> 553 126<171.059 370.616>
Fore
382 -17 m 0,0,1
 317 -17 317 -17 266 5.5 c 128,-1,2
 215 28 215 28 179 67 c 1,3,-1
 179 -2 l 1,4,-1
 69 -2 l 1,5,-1
 69 742 l 1,6,-1
 179 742 l 1,7,-1
 179 469 l 1,8,9
 250 561 250 561 382 561 c 0,10,11
 445 561 445 561 499 540.5 c 128,-1,12
 553 520 553 520 593 482.5 c 128,-1,13
 633 445 633 445 656 392 c 128,-1,14
 679 339 679 339 679 273 c 0,15,16
 679 213 679 213 656 160 c 128,-1,17
 633 107 633 107 593 68 c 128,-1,18
 553 29 553 29 499 6 c 128,-1,19
 445 -17 445 -17 382 -17 c 0,0,1
363 501 m 0,20,21
 328 501 328 501 294.5 483 c 128,-1,22
 261 465 261 465 235.5 433.5 c 128,-1,23
 210 402 210 402 194.5 359.5 c 128,-1,24
 179 317 179 317 179 270 c 0,25,26
 179 224 179 224 194.5 182.5 c 128,-1,27
 210 141 210 141 235.5 110.5 c 128,-1,28
 261 80 261 80 294.5 62 c 128,-1,29
 328 44 328 44 363 44 c 0,30,31
 400 44 400 44 434.5 60.5 c 128,-1,32
 469 77 469 77 495 106.5 c 128,-1,33
 521 136 521 136 537 177.5 c 128,-1,34
 553 219 553 219 553 270 c 0,35,36
 553 322 553 322 537 364 c 128,-1,37
 521 406 521 406 495 437 c 128,-1,38
 469 468 469 468 434.5 484.5 c 128,-1,39
 400 501 400 501 363 501 c 0,20,21
EndSplineSet
Substitution2: "Single Substitution lookup 22 subtable" uni0E39
Substitution2: "Single Substitution lookup 22 subtable" uni0E39
EndChar
StartChar: c
Encoding: 99 99 68
Width: 685
VWidth: 1533
Flags: W
HStem: -15 59<268.501 442.725> 491 59<275.967 428.513>
VStem: 38 131<161.73 344.35>
Fore
365 -15 m 0,0,1
 299 -15 299 -15 240 5.5 c 128,-1,2
 181 26 181 26 135.5 63.5 c 128,-1,3
 90 101 90 101 64 152.5 c 128,-1,4
 38 204 38 204 38 267 c 256,5,6
 38 330 38 330 64 382 c 128,-1,7
 90 434 90 434 135.5 471.5 c 128,-1,8
 181 509 181 509 240 529.5 c 128,-1,9
 299 550 299 550 365 550 c 0,10,11
 412 550 412 550 457.5 540 c 128,-1,12
 503 530 503 530 542 507 c 128,-1,13
 581 484 581 484 610 448 c 128,-1,14
 639 412 639 412 655 360 c 1,15,-1
 527 360 l 1,16,17
 501 425 501 425 460 458 c 128,-1,18
 419 491 419 491 359 491 c 0,19,20
 314 491 314 491 279 473 c 128,-1,21
 244 455 244 455 219.5 425.5 c 128,-1,22
 195 396 195 396 182 356 c 128,-1,23
 169 316 169 316 169 273 c 0,24,25
 169 172 169 172 219.5 108 c 128,-1,26
 270 44 270 44 359 44 c 0,27,28
 474 44 474 44 527 173 c 1,29,-1
 655 173 l 1,30,31
 639 123 639 123 610 87 c 128,-1,32
 581 51 581 51 542 28 c 128,-1,33
 503 5 503 5 457.5 -5 c 128,-1,34
 412 -15 412 -15 365 -15 c 0,0,1
EndSplineSet
Substitution2: "Single Substitution lookup 22 subtable" uni0E3A
Substitution2: "Single Substitution lookup 22 subtable" uni0E3A
EndChar
StartChar: d
Encoding: 100 100 69
Width: 709
VWidth: 1533
Flags: W
HStem: -17 61<269.919 417.515> 501 60<269.986 416.325>
VStem: 31 125<171.059 369.761> 529 112<-2 67 183.798 358.171 469 742>
Fore
529 67 m 1,0,1
 494 28 494 28 442.5 5.5 c 128,-1,2
 391 -17 391 -17 327 -17 c 0,3,4
 264 -17 264 -17 209.5 6 c 128,-1,5
 155 29 155 29 115 68 c 128,-1,6
 75 107 75 107 53 160 c 128,-1,7
 31 213 31 213 31 273 c 0,8,9
 31 339 31 339 54 392 c 128,-1,10
 77 445 77 445 116.5 482.5 c 128,-1,11
 156 520 156 520 210 540.5 c 128,-1,12
 264 561 264 561 327 561 c 0,13,14
 457 561 457 561 529 469 c 1,15,-1
 529 742 l 1,16,-1
 641 742 l 1,17,-1
 641 -2 l 1,18,-1
 529 -2 l 1,19,-1
 529 67 l 1,0,1
345 501 m 0,20,21
 308 501 308 501 274.5 484.5 c 128,-1,22
 241 468 241 468 215 437 c 128,-1,23
 189 406 189 406 172.5 364 c 128,-1,24
 156 322 156 322 156 270 c 0,25,26
 156 219 156 219 171.5 177.5 c 128,-1,27
 187 136 187 136 214 106.5 c 128,-1,28
 241 77 241 77 274.5 60.5 c 128,-1,29
 308 44 308 44 345 44 c 256,30,31
 382 44 382 44 415 62 c 128,-1,32
 448 80 448 80 473 110.5 c 128,-1,33
 498 141 498 141 513.5 182.5 c 128,-1,34
 529 224 529 224 529 270 c 0,35,36
 529 317 529 317 513.5 359.5 c 128,-1,37
 498 402 498 402 473 433.5 c 128,-1,38
 448 465 448 465 414 483 c 128,-1,39
 380 501 380 501 345 501 c 0,20,21
EndSplineSet
EndChar
StartChar: e
Encoding: 101 101 70
Width: 693
VWidth: 1533
Flags: W
HStem: -17 61<282.74 443.172> 314 63<196 518> 492 58<297.909 441.294>
VStem: 38 132<220.25 274.969 274.969 312.562> 541 115<154.189 215>
Fore
170 314 m 1,0,1
 169 302 169 302 169.5 288 c 128,-1,2
 170 274 170 274 170 262 c 0,3,4
 170 221 170 221 183 182 c 128,-1,5
 196 143 196 143 221.5 112 c 128,-1,6
 247 81 247 81 284.5 62.5 c 128,-1,7
 322 44 322 44 371 44 c 0,8,9
 408 44 408 44 438 59.5 c 128,-1,10
 468 75 468 75 490 99.5 c 128,-1,11
 512 124 512 124 525 154 c 128,-1,12
 538 184 538 184 541 215 c 1,13,-1
 656 215 l 1,14,15
 653 159 653 159 628.5 116.5 c 128,-1,16
 604 74 604 74 565.5 44 c 128,-1,17
 527 14 527 14 476.5 -1.5 c 128,-1,18
 426 -17 426 -17 370 -17 c 0,19,20
 293 -17 293 -17 231.5 7 c 128,-1,21
 170 31 170 31 127 70 c 128,-1,22
 84 109 84 109 61 159 c 128,-1,23
 38 209 38 209 38 261 c 0,24,25
 38 327 38 327 63.5 380.5 c 128,-1,26
 89 434 89 434 132.5 471.5 c 128,-1,27
 176 509 176 509 234.5 529.5 c 128,-1,28
 293 550 293 550 357 550 c 0,29,30
 409 550 409 550 460.5 538 c 128,-1,31
 512 526 512 526 554 498.5 c 128,-1,32
 596 471 596 471 625.5 425.5 c 128,-1,33
 655 380 655 380 662 314 c 1,34,-1
 170 314 l 1,0,1
351 492 m 0,35,36
 324 492 324 492 299 482 c 128,-1,37
 274 472 274 472 253.5 456 c 128,-1,38
 233 440 233 440 218.5 419.5 c 128,-1,39
 204 399 204 399 196 377 c 1,40,-1
 518 377 l 1,41,42
 501 422 501 422 460.5 457 c 128,-1,43
 420 492 420 492 351 492 c 0,35,36
EndSplineSet
EndChar
StartChar: f
Encoding: 102 102 71
Width: 375
VWidth: 1533
Flags: W
HStem: 0 21G<117 228> 451 63<51 117 228 308>
VStem: 18 370<451 739 451 531> 117 111<0 451 514 609.623>
Fore
308 661 m 0,0,1
 278 661 278 661 253 643.5 c 128,-1,2
 228 626 228 626 228 592 c 2,3,-1
 228 514 l 1,4,-1
 340 514 l 1,5,-1
 308 451 l 1,6,-1
 228 451 l 1,7,-1
 228 0 l 1,8,-1
 117 0 l 1,9,-1
 117 451 l 1,10,-1
 18 451 l 1,11,-1
 51 514 l 1,12,-1
 117 514 l 1,13,14
 117 567 117 567 139 611 c 128,-1,15
 161 655 161 655 198 684.5 c 128,-1,16
 235 714 235 714 284 729 c 128,-1,17
 333 744 333 744 388 739 c 1,18,-1
 388 632 l 1,19,20
 357 649 357 649 338 655 c 128,-1,21
 319 661 319 661 308 661 c 0,0,1
EndSplineSet
EndChar
StartChar: g
Encoding: 103 103 72
Width: 708
VWidth: 1533
Flags: W
HStem: -204 57<280.327 397.303> 49 78<273.726 368.692 368.692 410.97> 153 62<248.827 433.208> 489 61<249.408 413.669> 521.5 99.5<523.386 565 565 626.951>
VStem: 20 123<-87.272 -12.7107> 60 127<278.078 430.374> 495 127<276.343 430.738> 553 115<-74.9645 -15.4603>
Fore
324 -204 m 0,0,1
 278 -204 278 -204 225 -194 c 128,-1,2
 172 -184 172 -184 126 -164 c 128,-1,3
 80 -144 80 -144 50 -114 c 128,-1,4
 20 -84 20 -84 20 -43 c 0,5,6
 20 -20 20 -20 34.5 -1 c 128,-1,7
 49 18 49 18 71.5 33 c 128,-1,8
 94 48 94 48 120.5 59.5 c 128,-1,9
 147 71 147 71 173 77 c 1,10,11
 147 83 147 83 133.5 98 c 128,-1,12
 120 113 120 113 120 130 c 0,13,14
 120 152 120 152 138 165.5 c 128,-1,15
 156 179 156 179 184 182 c 1,16,17
 120 218 120 218 90 264 c 128,-1,18
 60 310 60 310 60 353 c 256,19,20
 60 396 60 396 83 432.5 c 128,-1,21
 106 469 106 469 145 495 c 128,-1,22
 184 521 184 521 235.5 535.5 c 128,-1,23
 287 550 287 550 342 550 c 0,24,25
 363 550 363 550 393 547 c 128,-1,26
 423 544 423 544 452 537 c 1,27,28
 478 583 478 583 522 602.5 c 128,-1,29
 566 622 566 622 656 621 c 1,30,-1
 656 512 l 1,31,32
 598 526 598 526 565 521.5 c 128,-1,33
 532 517 532 517 515 509 c 1,34,35
 563 483 563 483 592.5 442.5 c 128,-1,36
 622 402 622 402 622 353 c 0,37,38
 622 310 622 310 599 274 c 128,-1,39
 576 238 576 238 537 211 c 128,-1,40
 498 184 498 184 447.5 168.5 c 128,-1,41
 397 153 397 153 342 153 c 2,42,-1
 265 153 l 2,43,44
 259 153 259 153 248.5 151.5 c 128,-1,45
 238 150 238 150 238 144 c 0,46,47
 238 136 238 136 254 131.5 c 128,-1,48
 270 127 270 127 320 127 c 0,49,50
 359 127 359 127 418 125.5 c 128,-1,51
 477 124 477 124 533 110.5 c 128,-1,52
 589 97 589 97 628.5 67 c 128,-1,53
 668 37 668 37 668 -20 c 256,54,55
 668 -77 668 -77 633 -112 c 128,-1,56
 598 -147 598 -147 546.5 -168 c 128,-1,57
 495 -189 495 -189 434.5 -196.5 c 128,-1,58
 374 -204 374 -204 324 -204 c 0,0,1
342 489 m 0,59,60
 271 489 271 489 229 453 c 128,-1,61
 187 417 187 417 187 353 c 0,62,63
 187 287 187 287 229 251 c 128,-1,64
 271 215 271 215 342 215 c 256,65,66
 412 215 412 215 453.5 251 c 128,-1,67
 495 287 495 287 495 353 c 0,68,69
 495 417 495 417 454.5 453 c 128,-1,70
 414 489 414 489 342 489 c 0,59,60
348 49 m 0,71,72
 285 49 285 49 245 41.5 c 128,-1,73
 205 34 205 34 182 20 c 128,-1,74
 159 6 159 6 151 -11.5 c 128,-1,75
 143 -29 143 -29 143 -49 c 0,76,77
 143 -66 143 -66 156.5 -83 c 128,-1,78
 170 -100 170 -100 196 -114.5 c 128,-1,79
 222 -129 222 -129 260.5 -138 c 128,-1,80
 299 -147 299 -147 348 -147 c 0,81,82
 396 -147 396 -147 433.5 -136.5 c 128,-1,83
 471 -126 471 -126 497.5 -111.5 c 128,-1,84
 524 -97 524 -97 538.5 -80 c 128,-1,85
 553 -63 553 -63 553 -49 c 0,86,87
 553 -32 553 -32 542.5 -14.5 c 128,-1,88
 532 3 532 3 508 17 c 128,-1,89
 484 31 484 31 444.5 40 c 128,-1,90
 405 49 405 49 348 49 c 0,71,72
EndSplineSet
EndChar
StartChar: h
Encoding: 104 104 73
Width: 683
VWidth: 1533
Flags: W
HStem: 0 21G<69 179 500 615> 491 59<275.296 439.402> 682 20G<69 179>
VStem: 69 110<0 372.905 465 702> 500 115<0 432.546>
Fore
500 365 m 2,0,1
 500 414 500 414 461 452.5 c 128,-1,2
 422 491 422 491 348 491 c 0,3,4
 311 491 311 491 280.5 476 c 128,-1,5
 250 461 250 461 227.5 435 c 128,-1,6
 205 409 205 409 192 374 c 128,-1,7
 179 339 179 339 179 299 c 2,8,-1
 179 0 l 1,9,-1
 69 0 l 1,10,-1
 69 702 l 1,11,-1
 179 702 l 1,12,-1
 179 465 l 1,13,14
 215 512 215 512 267.5 531 c 128,-1,15
 320 550 320 550 360 550 c 0,16,17
 414 550 414 550 460 538 c 128,-1,18
 506 526 506 526 540.5 500 c 128,-1,19
 575 474 575 474 595 435 c 128,-1,20
 615 396 615 396 615 340 c 2,21,-1
 615 0 l 1,22,-1
 500 0 l 1,23,-1
 500 365 l 2,0,1
EndSplineSet
EndChar
StartChar: i
Encoding: 105 105 74
Width: 297
VWidth: 1533
Flags: W
HStem: 0 21G<92 202> 524 20G<92 202> 572 135<98.1432 199.342>
VStem: 77 144<592.627 686.888> 92 110<0 544>
Fore
149 572 m 256,0,1
 118 572 118 572 97.5 592 c 128,-1,2
 77 612 77 612 77 639 c 0,3,4
 77 668 77 668 97.5 687.5 c 128,-1,5
 118 707 118 707 149 707 c 256,6,7
 179 707 179 707 200 687.5 c 128,-1,8
 221 668 221 668 221 639 c 0,9,10
 221 612 221 612 200 592 c 128,-1,11
 179 572 179 572 149 572 c 256,0,1
92 544 m 1,12,-1
 202 544 l 1,13,-1
 202 0 l 1,14,-1
 92 0 l 1,15,-1
 92 544 l 1,12,-1
EndSplineSet
EndChar
StartChar: j
Encoding: 106 106 75
Width: 325
VWidth: 1533
Flags: W
HStem: -189 80<0.105835 68.6174> 521 20G<120 232> 570 137<125.658 226.857>
VStem: 104 144<590.627 686.888> 120 112<-5.32544 541>
Fore
176 570 m 256,0,1
 146 570 146 570 125 590 c 128,-1,2
 104 610 104 610 104 639 c 256,3,4
 104 668 104 668 125 687.5 c 128,-1,5
 146 707 146 707 176 707 c 256,6,7
 207 707 207 707 227.5 687.5 c 128,-1,8
 248 668 248 668 248 639 c 256,9,10
 248 610 248 610 227.5 590 c 128,-1,11
 207 570 207 570 176 570 c 256,0,1
31 -189 m 0,12,13
 9 -189 9 -189 -26 -182.5 c 128,-1,14
 -61 -176 -61 -176 -90 -155 c 1,15,-1
 -41 -78 l 1,16,17
 -23 -95 -23 -95 -4 -102 c 128,-1,18
 15 -109 15 -109 26 -109 c 0,19,20
 46 -109 46 -109 63.5 -102 c 128,-1,21
 81 -95 81 -95 93.5 -76.5 c 128,-1,22
 106 -58 106 -58 113 -26 c 128,-1,23
 120 6 120 6 120 57 c 2,24,-1
 120 541 l 1,25,-1
 232 541 l 1,26,-1
 232 80 l 2,27,28
 232 6 232 6 215.5 -45.5 c 128,-1,29
 199 -97 199 -97 171.5 -128 c 128,-1,30
 144 -159 144 -159 107.5 -174 c 128,-1,31
 71 -189 71 -189 31 -189 c 0,12,13
EndSplineSet
EndChar
StartChar: k
Encoding: 107 107 76
Width: 614
VWidth: 1533
Flags: W
HStem: 0 21G<69 179 484.886 629> 526 20G<439.234 581>
VStem: 69 110<0 241 324 742>
Fore
268 307 m 1,0,-1
 179 241 l 1,1,-1
 179 0 l 1,2,-1
 69 0 l 1,3,-1
 69 742 l 1,4,-1
 179 742 l 1,5,-1
 179 324 l 1,6,-1
 465 546 l 1,7,-1
 581 546 l 1,8,-1
 353 373 l 1,9,-1
 629 0 l 1,10,-1
 500 0 l 1,11,-1
 268 307 l 1,0,-1
EndSplineSet
EndChar
StartChar: l
Encoding: 108 108 77
Width: 248
VWidth: 1533
Flags: W
HStem: 0 21G<69 179>
VStem: 69 110<0 742>
Fore
69 742 m 1,0,-1
 179 742 l 1,1,-1
 179 0 l 1,2,-1
 69 0 l 1,3,-1
 69 742 l 1,0,-1
EndSplineSet
EndChar
StartChar: m
Encoding: 109 109 78
Width: 1048
VWidth: 1533
Flags: W
HStem: 0 21G<69 179 474 589 865 980> 489 60<272.359 413.556 671.456 790.031>
VStem: 69 110<0 334.961 460 534> 474 115<0 410.395> 865 115<0 428.373>
Fore
865 354 m 2,0,1
 865 412 865 412 825 450.5 c 128,-1,2
 785 489 785 489 728 489 c 0,3,4
 664 489 664 489 626.5 438.5 c 128,-1,5
 589 388 589 388 589 273 c 2,6,-1
 589 0 l 1,7,-1
 474 0 l 1,8,-1
 474 293 l 2,9,10
 474 382 474 382 441.5 435.5 c 128,-1,11
 409 489 409 489 342 489 c 0,12,13
 307 489 307 489 277 473 c 128,-1,14
 247 457 247 457 225.5 430 c 128,-1,15
 204 403 204 403 191.5 368.5 c 128,-1,16
 179 334 179 334 179 299 c 2,17,-1
 179 0 l 1,18,-1
 69 0 l 1,19,-1
 69 534 l 1,20,-1
 179 534 l 1,21,-1
 179 460 l 1,22,23
 207 506 207 506 256 527.5 c 128,-1,24
 305 549 305 549 359 549 c 0,25,26
 417 549 417 549 467.5 521.5 c 128,-1,27
 518 494 518 494 549 429 c 1,28,29
 564 466 564 466 585 490 c 128,-1,30
 606 514 606 514 630.5 527 c 128,-1,31
 655 540 655 540 681 544.5 c 128,-1,32
 707 549 707 549 733 549 c 0,33,34
 776 549 776 549 819.5 539 c 128,-1,35
 863 529 863 529 899 504.5 c 128,-1,36
 935 480 935 480 957.5 441 c 128,-1,37
 980 402 980 402 980 345 c 2,38,-1
 980 0 l 1,39,-1
 865 0 l 1,40,-1
 865 354 l 2,0,1
EndSplineSet
EndChar
StartChar: n
Encoding: 110 110 79
Width: 683
VWidth: 1533
Flags: W
HStem: 0 21G<69 179 500 615> 489 60<275.296 439.402>
VStem: 69 110<0 372.421 465 534> 500 115<0 430.547>
Fore
500 363 m 2,0,1
 500 412 500 412 461 450.5 c 128,-1,2
 422 489 422 489 348 489 c 0,3,4
 311 489 311 489 280.5 474.5 c 128,-1,5
 250 460 250 460 227.5 434 c 128,-1,6
 205 408 205 408 192 373.5 c 128,-1,7
 179 339 179 339 179 299 c 2,8,-1
 179 0 l 1,9,-1
 69 0 l 1,10,-1
 69 534 l 1,11,-1
 179 534 l 1,12,-1
 179 465 l 1,13,14
 215 512 215 512 267.5 530.5 c 128,-1,15
 320 549 320 549 360 549 c 0,16,17
 414 549 414 549 460 536.5 c 128,-1,18
 506 524 506 524 540.5 498 c 128,-1,19
 575 472 575 472 595 433 c 128,-1,20
 615 394 615 394 615 339 c 2,21,-1
 615 0 l 1,22,-1
 500 0 l 1,23,-1
 500 363 l 2,0,1
EndSplineSet
EndChar
StartChar: o
Encoding: 111 111 80
Width: 708
VWidth: 1533
Flags: W
HStem: -15 59<259.751 450.958> 488 59<258.211 450.839>
VStem: 31 128<156.297 378.428> 550 128<159.2 376.381>
Fore
353 -15 m 0,0,1
 285 -15 285 -15 227 4 c 128,-1,2
 169 23 169 23 125 60 c 128,-1,3
 81 97 81 97 56 149 c 128,-1,4
 31 201 31 201 31 267 c 256,5,6
 31 333 31 333 56 385 c 128,-1,7
 81 437 81 437 125.5 473 c 128,-1,8
 170 509 170 509 228.5 528 c 128,-1,9
 287 547 287 547 354 547 c 0,10,11
 420 547 420 547 479 528 c 128,-1,12
 538 509 538 509 582.5 473 c 128,-1,13
 627 437 627 437 652.5 385 c 128,-1,14
 678 333 678 333 678 267 c 256,15,16
 678 201 678 201 652 149 c 128,-1,17
 626 97 626 97 582 60 c 128,-1,18
 538 23 538 23 478.5 4 c 128,-1,19
 419 -15 419 -15 353 -15 c 0,0,1
354 488 m 256,20,21
 267 488 267 488 213 432.5 c 128,-1,22
 159 377 159 377 159 267 c 256,23,24
 159 156 159 156 213.5 100 c 128,-1,25
 268 44 268 44 356 44 c 256,26,27
 443 44 443 44 496.5 100 c 128,-1,28
 550 156 550 156 550 267 c 256,29,30
 550 377 550 377 496 432.5 c 128,-1,31
 442 488 442 488 354 488 c 256,20,21
EndSplineSet
EndChar
StartChar: p
Encoding: 112 112 81
Width: 717
VWidth: 1533
Flags: W
HStem: -198 21G<69 179> -29 60<292.265 438.999> 486 61<291.43 438.999>
VStem: 69 110<-198 60 173.829 348.202> 553 126<162.055 359.17>
Fore
382 -29 m 0,0,1
 317 -29 317 -29 266 -4.5 c 128,-1,2
 215 20 215 20 179 60 c 1,3,-1
 179 -198 l 1,4,-1
 69 -198 l 1,5,-1
 69 532 l 1,6,-1
 164 532 l 1,7,-1
 172 452 l 1,8,9
 204 497 204 497 259 522 c 128,-1,10
 314 547 314 547 382 547 c 0,11,12
 445 547 445 547 499 524 c 128,-1,13
 553 501 553 501 593 462 c 128,-1,14
 633 423 633 423 656 371 c 128,-1,15
 679 319 679 319 679 259 c 0,16,17
 679 193 679 193 656 139.5 c 128,-1,18
 633 86 633 86 593 48.5 c 128,-1,19
 553 11 553 11 499 -9 c 128,-1,20
 445 -29 445 -29 382 -29 c 0,0,1
363 486 m 0,21,22
 328 486 328 486 294.5 468.5 c 128,-1,23
 261 451 261 451 235.5 421 c 128,-1,24
 210 391 210 391 194.5 349.5 c 128,-1,25
 179 308 179 308 179 262 c 0,26,27
 179 215 179 215 194.5 172.5 c 128,-1,28
 210 130 210 130 235.5 98.5 c 128,-1,29
 261 67 261 67 294.5 49 c 128,-1,30
 328 31 328 31 363 31 c 0,31,32
 400 31 400 31 434.5 47.5 c 128,-1,33
 469 64 469 64 495 95 c 128,-1,34
 521 126 521 126 537 168 c 128,-1,35
 553 210 553 210 553 262 c 0,36,37
 553 313 553 313 537 353.5 c 128,-1,38
 521 394 521 394 495 424 c 128,-1,39
 469 454 469 454 434.5 470 c 128,-1,40
 400 486 400 486 363 486 c 0,21,22
EndSplineSet
EndChar
StartChar: q
Encoding: 113 113 82
Width: 717
VWidth: 1533
Flags: W
HStem: -198 21G<538 649> -29 60<278.177 424.669> 486 61<277.262 424.586>
VStem: 38 126<162.055 359.17> 538 111<-198 60 173.829 348.202>
Fore
538 60 m 1,0,1
 503 20 503 20 451.5 -4.5 c 128,-1,2
 400 -29 400 -29 336 -29 c 0,3,4
 273 -29 273 -29 218.5 -9 c 128,-1,5
 164 11 164 11 124 48.5 c 128,-1,6
 84 86 84 86 61 139.5 c 128,-1,7
 38 193 38 193 38 259 c 0,8,9
 38 319 38 319 61 371 c 128,-1,10
 84 423 84 423 124 462 c 128,-1,11
 164 501 164 501 218.5 524 c 128,-1,12
 273 547 273 547 336 547 c 0,13,14
 403 547 403 547 458.5 522 c 128,-1,15
 514 497 514 497 546 452 c 1,16,-1
 553 532 l 1,17,-1
 649 532 l 1,18,-1
 649 -198 l 1,19,-1
 538 -198 l 1,20,-1
 538 60 l 1,0,1
353 486 m 256,21,22
 316 486 316 486 282 470 c 128,-1,23
 248 454 248 454 222 424 c 128,-1,24
 196 394 196 394 180 353.5 c 128,-1,25
 164 313 164 313 164 262 c 0,26,27
 164 210 164 210 180 168 c 128,-1,28
 196 126 196 126 222 95 c 128,-1,29
 248 64 248 64 282 47.5 c 128,-1,30
 316 31 316 31 353 31 c 256,31,32
 389 31 389 31 422 49 c 128,-1,33
 455 67 455 67 481 98.5 c 128,-1,34
 507 130 507 130 522.5 172.5 c 128,-1,35
 538 215 538 215 538 262 c 0,36,37
 538 308 538 308 522.5 349.5 c 128,-1,38
 507 391 507 391 481 421 c 128,-1,39
 455 451 455 451 422 468.5 c 128,-1,40
 389 486 389 486 353 486 c 256,21,22
EndSplineSet
EndChar
StartChar: r
Encoding: 114 114 83
Width: 404
VWidth: 1533
Flags: W
HStem: 0 21G<69 179> 514 20G<69 179>
VStem: 69 327<524.625 529.5 0 543 1.53064e-18 1.53064e-18> 69 110<0 397.225 451 534>
Fore
376 438 m 1,0,1
 362 448 362 448 342 454.5 c 128,-1,2
 322 461 322 461 314 461 c 0,3,4
 244 461 244 461 211.5 415.5 c 128,-1,5
 179 370 179 370 179 290 c 2,6,-1
 179 0 l 1,7,-1
 69 0 l 1,8,-1
 69 534 l 1,9,-1
 179 534 l 1,10,-1
 179 451 l 1,11,12
 212 509 212 509 269.5 529.5 c 128,-1,13
 327 550 327 550 396 543 c 1,14,-1
 376 438 l 1,0,1
EndSplineSet
EndChar
StartChar: s
Encoding: 115 115 84
Width: 636
VWidth: 1533
Flags: W
HStem: -18 59<275.07 403.781> 488 59<248.237 381.373>
VStem: 72 114<370.424 452.598> 481 117<86.9478 179.344 353 400.734>
Fore
320 -18 m 0,0,1
 268 -18 268 -18 220.5 -5 c 128,-1,2
 173 8 173 8 135.5 32.5 c 128,-1,3
 98 57 98 57 73 93.5 c 128,-1,4
 48 130 48 130 38 178 c 1,5,-1
 153 178 l 1,6,7
 158 152 158 152 171 128 c 128,-1,8
 184 104 184 104 204.5 84 c 128,-1,9
 225 64 225 64 254.5 52.5 c 128,-1,10
 284 41 284 41 320 41 c 0,11,12
 394 41 394 41 437.5 69 c 128,-1,13
 481 97 481 97 481 143 c 0,14,15
 481 163 481 163 469.5 175 c 128,-1,16
 458 187 458 187 440.5 195.5 c 128,-1,17
 423 204 423 204 404 208 c 128,-1,18
 385 212 385 212 371 215 c 0,19,20
 331 222 331 222 279.5 229 c 128,-1,21
 228 236 228 236 182 253 c 128,-1,22
 136 270 136 270 104 301.5 c 128,-1,23
 72 333 72 333 72 389 c 0,24,25
 72 434 72 434 96 464 c 128,-1,26
 120 494 120 494 157.5 512 c 128,-1,27
 195 530 195 530 239.5 538.5 c 128,-1,28
 284 547 284 547 325 547 c 0,29,30
 431 547 431 547 505.5 497.5 c 128,-1,31
 580 448 580 448 596 353 c 1,32,-1
 480 353 l 1,33,34
 475 377 475 377 463 401.5 c 128,-1,35
 451 426 451 426 431.5 445.5 c 128,-1,36
 412 465 412 465 385.5 476.5 c 128,-1,37
 359 488 359 488 324 488 c 0,38,39
 258 488 258 488 222 464 c 128,-1,40
 186 440 186 440 186 405 c 0,41,42
 186 383 186 383 196.5 369.5 c 128,-1,43
 207 356 207 356 223 346.5 c 128,-1,44
 239 337 239 337 259 332 c 128,-1,45
 279 327 279 327 297 324 c 0,46,47
 317 319 317 319 339.5 316 c 128,-1,48
 362 313 362 313 386 308 c 0,49,50
 419 304 419 304 455.5 295.5 c 128,-1,51
 492 287 492 287 523.5 271 c 128,-1,52
 555 255 555 255 576.5 228.5 c 128,-1,53
 598 202 598 202 598 161 c 0,54,55
 598 110 598 110 573.5 75.5 c 128,-1,56
 549 41 549 41 509 20.5 c 128,-1,57
 469 0 469 0 420 -9 c 128,-1,58
 371 -18 371 -18 320 -18 c 0,0,1
EndSplineSet
EndChar
StartChar: t
Encoding: 116 116 85
Width: 394
VWidth: 1533
Flags: W
HStem: -9 72<241.703 309.826> 448 58<35 115 227 333>
VStem: 117 110<78.995 448>
Fore
273 -9 m 0,0,1
 201 -9 201 -9 159 34.5 c 128,-1,2
 117 78 117 78 117 170 c 2,3,-1
 117 448 l 1,4,-1
 35 448 l 1,5,-1
 35 506 l 1,6,-1
 115 506 l 1,7,-1
 173 656 l 1,8,-1
 227 656 l 1,9,-1
 227 506 l 1,10,-1
 333 506 l 1,11,-1
 333 448 l 1,12,-1
 227 448 l 1,13,-1
 227 153 l 2,14,15
 227 94 227 94 244 78.5 c 128,-1,16
 261 63 261 63 281 63 c 256,17,18
 301 63 301 63 323 72 c 128,-1,19
 345 81 345 81 379 101 c 1,20,-1
 379 17 l 1,21,22
 359 5 359 5 330.5 -2 c 128,-1,23
 302 -9 302 -9 273 -9 c 0,0,1
EndSplineSet
EndChar
StartChar: u
Encoding: 117 117 86
Width: 683
VWidth: 1533
Flags: W
HStem: -17 60<243.673 380.495> 514 20G<69 182 503 615>
VStem: 69 113<103.424 534> 503 112<-2 69 161.579 534>
Fore
503 69 m 1,0,1
 486 46 486 46 463 29 c 128,-1,2
 440 12 440 12 415.5 2 c 128,-1,3
 391 -8 391 -8 366.5 -12.5 c 128,-1,4
 342 -17 342 -17 322 -17 c 0,5,6
 268 -17 268 -17 222 -4.5 c 128,-1,7
 176 8 176 8 141.5 34 c 128,-1,8
 107 60 107 60 88 100 c 128,-1,9
 69 140 69 140 69 193 c 2,10,-1
 69 534 l 1,11,-1
 182 534 l 1,12,-1
 182 170 l 2,13,14
 182 121 182 121 221.5 82 c 128,-1,15
 261 43 261 43 334 43 c 0,16,17
 371 43 371 43 401.5 58.5 c 128,-1,18
 432 74 432 74 454.5 100 c 128,-1,19
 477 126 477 126 490 160.5 c 128,-1,20
 503 195 503 195 503 235 c 2,21,-1
 503 534 l 1,22,-1
 615 534 l 1,23,-1
 615 -2 l 1,24,-1
 503 -2 l 1,25,-1
 503 69 l 1,0,1
EndSplineSet
EndChar
StartChar: v
Encoding: 118 118 87
Width: 645
VWidth: 1533
Flags: W
HStem: -17 21G<296.038 352.853> 514 20G<5 141.078 556.173 641>
Fore
307 -17 m 1,0,-1
 5 534 l 1,1,-1
 130 534 l 1,2,-1
 351 135 l 1,3,-1
 567 534 l 1,4,-1
 641 534 l 1,5,-1
 342 -17 l 1,6,-1
 307 -17 l 1,0,-1
EndSplineSet
EndChar
StartChar: w
Encoding: 119 119 88
Width: 962
VWidth: 1533
Flags: W
HStem: -17 21G<268.091 323.027 642.757 699.728> 514 20G<5 136.746 482.4 524.27 876.435 958>
Fore
652 -17 m 1,0,-1
 481 353 l 1,1,-1
 314 -17 l 1,2,-1
 278 -17 l 1,3,-1
 5 534 l 1,4,-1
 127 534 l 1,5,-1
 319 140 l 1,6,-1
 491 540 l 1,7,-1
 515 540 l 1,8,-1
 699 143 l 1,9,-1
 886 534 l 1,10,-1
 958 534 l 1,11,-1
 690 -17 l 1,12,-1
 652 -17 l 1,0,-1
EndSplineSet
EndChar
StartChar: x
Encoding: 120 120 89
Width: 630
VWidth: 1533
Flags: W
HStem: 0 21G<18 122.113 472.604 626> 514 20G<5 158.137 486.451 590>
Fore
296 212 m 1,0,-1
 104 0 l 1,1,-1
 18 0 l 1,2,-1
 256 256 l 1,3,-1
 5 534 l 1,4,-1
 140 534 l 1,5,-1
 325 330 l 1,6,-1
 504 534 l 1,7,-1
 590 534 l 1,8,-1
 365 287 l 1,9,-1
 626 0 l 1,10,-1
 491 0 l 1,11,-1
 296 212 l 1,0,-1
EndSplineSet
EndChar
StartChar: y
Encoding: 121 121 90
Width: 650
VWidth: 1533
Flags: W
HStem: -202 79<114.157 202.171> 514 20G<5 140.878 561.317 645>
Fore
143 -123 m 0,0,1
 175 -123 175 -123 199.5 -108.5 c 128,-1,2
 224 -94 224 -94 241 -73 c 128,-1,3
 258 -52 258 -52 266 -28.5 c 128,-1,4
 274 -5 274 -5 274 14 c 0,5,6
 274 31 274 31 269 44 c 128,-1,7
 264 57 264 57 259 67 c 2,8,-1
 5 534 l 1,9,-1
 130 534 l 1,10,-1
 353 124 l 1,11,-1
 572 534 l 1,12,-1
 645 534 l 1,13,-1
 354 -14 l 2,14,15
 334 -51 334 -51 310.5 -85.5 c 128,-1,16
 287 -120 287 -120 261 -146 c 128,-1,17
 235 -172 235 -172 206.5 -187 c 128,-1,18
 178 -202 178 -202 147 -202 c 256,19,20
 117 -202 117 -202 82.5 -196 c 128,-1,21
 48 -190 48 -190 18 -169 c 1,22,-1
 67 -92 l 1,23,24
 86 -109 86 -109 109 -116 c 128,-1,25
 132 -123 132 -123 143 -123 c 0,0,1
EndSplineSet
EndChar
StartChar: z
Encoding: 122 122 91
Width: 630
VWidth: 1533
Flags: W
HStem: 0 60<202 552> 474 60<106 429>
Fore
584 60 m 1,0,-1
 552 0 l 1,1,-1
 15 0 l 1,2,-1
 429 474 l 1,3,-1
 78 474 l 1,4,-1
 106 534 l 1,5,-1
 615 534 l 1,6,-1
 202 60 l 1,7,-1
 584 60 l 1,0,-1
EndSplineSet
EndChar
StartChar: braceleft
Encoding: 123 123 92
Width: 432
VWidth: 1533
Flags: W
HStem: -209 46<294.631 359> 695 44<294.631 359>
VStem: 51 308<265 695 2.22461 351.818> 153 121<-128.574 207.546 323.225 672.818>
Fore
359 695 m 1,0,1
 314 695 314 695 294 673.5 c 128,-1,2
 274 652 274 652 274 590 c 2,3,-1
 274 403 l 2,4,5
 274 356 274 356 249.5 318.5 c 128,-1,6
 225 281 225 281 178 262 c 1,7,8
 222 251 222 251 248 214.5 c 128,-1,9
 274 178 274 178 274 129 c 2,10,-1
 274 -58 l 2,11,12
 274 -120 274 -120 294 -141.5 c 128,-1,13
 314 -163 314 -163 359 -163 c 1,14,-1
 359 -209 l 1,15,16
 313 -209 313 -209 274.5 -202 c 128,-1,17
 236 -195 236 -195 209 -177 c 128,-1,18
 182 -159 182 -159 167.5 -129.5 c 128,-1,19
 153 -100 153 -100 153 -55 c 2,20,-1
 153 141 l 2,21,22
 153 189 153 189 133 218.5 c 128,-1,23
 113 248 113 248 51 265 c 1,24,25
 113 290 113 290 133 316 c 128,-1,26
 153 342 153 342 153 391 c 2,27,-1
 153 586 l 2,28,29
 153 676 153 676 209 707.5 c 128,-1,30
 265 739 265 739 359 739 c 1,31,-1
 359 695 l 1,0,1
EndSplineSet
EndChar
StartChar: bar
Encoding: 124 124 93
Width: 315
VWidth: 1533
Flags: W
HStem: -279 1118<103 212 103 212 103 103>
VStem: 103 109<-279 839>
Fore
103 -279 m 1,0,-1
 103 839 l 1,1,-1
 212 839 l 1,2,-1
 212 -279 l 1,3,-1
 103 -279 l 1,0,-1
EndSplineSet
EndChar
StartChar: braceright
Encoding: 125 125 94
Width: 432
VWidth: 1533
Flags: W
HStem: -209 46<74 137.369> 695 44<74 137.369>
VStem: 158 121<-128.574 207.546 323.225 660.09>
Fore
382 265 m 1,0,1
 319 248 319 248 299 218.5 c 128,-1,2
 279 189 279 189 279 141 c 2,3,-1
 279 -55 l 2,4,5
 279 -100 279 -100 264.5 -129.5 c 128,-1,6
 250 -159 250 -159 223 -177 c 128,-1,7
 196 -195 196 -195 158.5 -202 c 128,-1,8
 121 -209 121 -209 74 -209 c 1,9,-1
 74 -163 l 1,10,11
 118 -163 118 -163 138 -141.5 c 128,-1,12
 158 -120 158 -120 158 -58 c 2,13,-1
 158 129 l 2,14,15
 158 178 158 178 184 214.5 c 128,-1,16
 210 251 210 251 255 262 c 1,17,18
 207 281 207 281 182.5 318.5 c 128,-1,19
 158 356 158 356 158 403 c 2,20,-1
 158 590 l 2,21,22
 158 652 158 652 138 673.5 c 128,-1,23
 118 695 118 695 74 695 c 1,24,-1
 74 739 l 1,25,26
 121 739 121 739 158.5 732 c 128,-1,27
 196 725 196 725 223 707.5 c 128,-1,28
 250 690 250 690 264.5 661 c 128,-1,29
 279 632 279 632 279 586 c 2,30,-1
 279 391 l 2,31,32
 279 342 279 342 299 316 c 128,-1,33
 319 290 319 290 382 265 c 1,0,1
EndSplineSet
EndChar
StartChar: asciitilde
Encoding: 126 126 95
Width: 706
VWidth: 1533
Flags: W
HStem: 221 81<434.461 525.722> 279 83<203.533 270.941>
Fore
641 313 m 1,0,1
 604 273 604 273 566.5 247 c 128,-1,2
 529 221 529 221 471 221 c 0,3,4
 438 221 438 221 408.5 230 c 128,-1,5
 379 239 379 239 350.5 250 c 128,-1,6
 322 261 322 261 292 270 c 128,-1,7
 262 279 262 279 230 279 c 0,8,9
 213 279 213 279 200 272 c 128,-1,10
 187 265 187 265 176.5 254.5 c 128,-1,11
 166 244 166 244 156 231 c 128,-1,12
 136 205 l 1,13,-1
 66 270 l 1,14,15
 86 293 86 293 103.5 310 c 128,-1,16
 121 327 121 327 140 338.5 c 128,-1,17
 159 350 159 350 182 356 c 128,-1,18
 205 362 205 362 238 362 c 0,19,20
 268 362 268 362 298 352.5 c 128,-1,21
 328 343 328 343 357 331.5 c 128,-1,22
 386 320 386 320 414.5 311 c 128,-1,23
 443 302 443 302 472 302 c 0,24,25
 506 302 506 302 529 326.5 c 128,-1,26
 552 351 552 351 567 374 c 1,27,-1
 641 313 l 1,0,1
EndSplineSet
EndChar
StartChar: uni0E33.alt1
Encoding: 65539 -1 96
Width: 633
VWidth: 1533
Flags: W
HStem: 0 21G<434 557> 570 54<215.205 377.881> 690 49<-451.671 -363.918> 895 53<-451.671 -363.918>
VStem: -543 52<777.646 858.274> -325 52<777.646 858.274> 434 123<0 509.623>
Fore
-273 819 m 256,0,1
 -273 793 -273 793 -283.5 769 c 128,-1,2
 -294 745 -294 745 -312.5 727.5 c 128,-1,3
 -331 710 -331 710 -355.5 700 c 128,-1,4
 -380 690 -380 690 -408 690 c 256,5,6
 -435 690 -435 690 -459.5 700 c 128,-1,7
 -484 710 -484 710 -502.5 727.5 c 128,-1,8
 -521 745 -521 745 -532 769 c 128,-1,9
 -543 793 -543 793 -543 819 c 256,10,11
 -543 845 -543 845 -532 868.5 c 128,-1,12
 -521 892 -521 892 -502.5 910 c 128,-1,13
 -484 928 -484 928 -459.5 938 c 128,-1,14
 -435 948 -435 948 -408 948 c 256,15,16
 -380 948 -380 948 -355.5 938 c 128,-1,17
 -331 928 -331 928 -312.5 910 c 128,-1,18
 -294 892 -294 892 -283.5 868.5 c 128,-1,19
 -273 845 -273 845 -273 819 c 256,0,1
434 0 m 1,20,-1
 434 426 l 2,21,22
 434 488 434 488 400 529 c 128,-1,23
 366 570 366 570 291 570 c 0,24,25
 251 570 251 570 223 557 c 128,-1,26
 195 544 195 544 175.5 522.5 c 128,-1,27
 156 501 156 501 145.5 473.5 c 128,-1,28
 135 446 135 446 133 419 c 1,29,-1
 8 419 l 1,30,31
 25 514 25 514 97 569 c 128,-1,32
 169 624 169 624 291 624 c 0,33,34
 412 624 412 624 484.5 571 c 128,-1,35
 557 518 557 518 557 400 c 2,36,-1
 557 0 l 1,37,-1
 434 0 l 1,20,-1
-325 817 m 256,38,39
 -325 849 -325 849 -349.5 872 c 128,-1,40
 -374 895 -374 895 -408 895 c 256,41,42
 -442 895 -442 895 -466.5 872 c 128,-1,43
 -491 849 -491 849 -491 817 c 256,44,45
 -491 785 -491 785 -466.5 762 c 128,-1,46
 -442 739 -442 739 -408 739 c 256,47,48
 -374 739 -374 739 -349.5 762 c 128,-1,49
 -325 785 -325 785 -325 817 c 256,38,39
EndSplineSet
EndChar
StartChar: quotedbl
Encoding: 34 34 97
Width: 420
VWidth: 1533
Flags: W
HStem: 386 351<109 149 271 311>
VStem: 70.5 281<673 686 686 699 686 686 686 686>
Fore
311 386 m 1,0,-1
 271 386 l 1,1,-1
 232 664 l 2,2,3
 230 673 230 673 231.5 686 c 128,-1,4
 233 699 233 699 240 710.5 c 128,-1,5
 247 722 247 722 259 729.5 c 128,-1,6
 271 737 271 737 291 737 c 256,7,8
 311 737 311 737 323.5 729.5 c 128,-1,9
 336 722 336 722 343 710.5 c 128,-1,10
 350 699 350 699 351.5 686 c 128,-1,11
 353 673 353 673 351 664 c 2,12,-1
 311 386 l 1,0,-1
149 386 m 1,13,-1
 109 386 l 1,14,-1
 71 664 l 2,15,16
 69 673 69 673 70.5 686 c 128,-1,17
 72 699 72 699 78 710.5 c 128,-1,18
 84 722 84 722 96.5 729.5 c 128,-1,19
 109 737 109 737 129 737 c 256,20,21
 149 737 149 737 161 729.5 c 128,-1,22
 173 722 173 722 180 710.5 c 128,-1,23
 187 699 187 699 188.5 686 c 128,-1,24
 190 673 190 673 189 664 c 2,25,-1
 149 386 l 1,13,-1
EndSplineSet
EndChar
StartChar: exclam
Encoding: 33 33 98
Width: 358
VWidth: 1533
Flags: W
HStem: -15 138<129.174 232.826> 719 20G<167 191.5>
VStem: 107 148<5.6272 102.373 601.812 696.405 652.5 652.5 54 54>
Fore
207 164 m 1,0,-1
 153 164 l 1,1,-1
 104 601 l 2,2,3
 101 627 101 627 103.5 652.5 c 128,-1,4
 106 678 106 678 115 697 c 128,-1,5
 124 716 124 716 139.5 727.5 c 128,-1,6
 155 739 155 739 179 739 c 256,7,8
 204 739 204 739 220 727.5 c 128,-1,9
 236 716 236 716 244.5 697 c 128,-1,10
 253 678 253 678 255.5 652.5 c 128,-1,11
 258 627 258 627 255 601 c 2,12,-1
 207 164 l 1,0,-1
255 54 m 256,13,14
 255 25 255 25 233.5 5 c 128,-1,15
 212 -15 212 -15 181 -15 c 256,16,17
 150 -15 150 -15 128.5 5 c 128,-1,18
 107 25 107 25 107 54 c 256,19,20
 107 83 107 83 128.5 103 c 128,-1,21
 150 123 150 123 181 123 c 256,22,23
 212 123 212 123 233.5 103 c 128,-1,24
 255 83 255 83 255 54 c 256,13,14
EndSplineSet
EndChar
StartChar: uni0E4E.alt1
Encoding: 65540 -1 99
Width: 0
VWidth: 1533
Flags: W
HStem: 649.5 43.5<-296.172 -281.655 -281.655 -228> 823 36<-268.43 -218> 960 43<-224.94 -155.459>
VStem: -481 119<712.157 788.136> -396 109<875.805 946.392>
Fore
-159 960 m 1,0,1
 -224 971 -224 971 -255.5 953 c 128,-1,2
 -287 935 -287 935 -287 909 c 0,3,4
 -287 895 -287 895 -269 877 c 128,-1,5
 -251 859 -251 859 -201 859 c 1,6,-1
 -218 823 l 1,7,8
 -274 817 -274 817 -318 800 c 128,-1,9
 -362 783 -362 783 -362 748 c 0,10,11
 -362 721 -362 721 -328 705.5 c 128,-1,12
 -294 690 -294 690 -215 693 c 1,13,-1
 -228 655 l 1,14,15
 -274 649 -274 649 -319.5 649.5 c 128,-1,16
 -365 650 -365 650 -401 660 c 128,-1,17
 -437 670 -437 670 -459 691.5 c 128,-1,18
 -481 713 -481 713 -481 748 c 0,19,20
 -481 771 -481 771 -466.5 788.5 c 128,-1,21
 -452 806 -452 806 -429 820 c 128,-1,22
 -406 834 -406 834 -379.5 841.5 c 128,-1,23
 -353 849 -353 849 -327 851 c 1,24,25
 -362 856 -362 856 -379 873.5 c 128,-1,26
 -396 891 -396 891 -396 914 c 0,27,28
 -396 951 -396 951 -374.5 972.5 c 128,-1,29
 -353 994 -353 994 -318.5 1003 c 128,-1,30
 -284 1012 -284 1012 -239.5 1011 c 128,-1,31
 -195 1010 -195 1010 -147 1003 c 1,32,-1
 -159 960 l 1,0,1
EndSplineSet
EndChar
StartChar: exclamdown
Encoding: 161 161 100
Width: 315
VWidth: 1533
Flags: W
HStem: 461 140<119.174 221.826>
VStem: 97 150<-110.405 -40.7577 -40.7577 -40.7577 -40.7577 16.2857 482.658 580.373>
Fore
244 532 m 256,0,1
 244 503 244 503 222.5 482 c 128,-1,2
 201 461 201 461 170 461 c 256,3,4
 140 461 140 461 118.5 482 c 128,-1,5
 97 503 97 503 97 532 c 256,6,7
 97 561 97 561 118.5 581 c 128,-1,8
 140 601 140 601 170 601 c 256,9,10
 201 601 201 601 222.5 581 c 128,-1,11
 244 561 244 561 244 532 c 256,0,1
247 -15 m 2,12,13
 250 -41 250 -41 247.5 -66.5 c 128,-1,14
 245 -92 245 -92 236.5 -111 c 128,-1,15
 228 -130 228 -130 212 -141.5 c 128,-1,16
 196 -153 196 -153 172 -153 c 256,17,18
 147 -153 147 -153 132 -141.5 c 128,-1,19
 117 -130 117 -130 108.5 -111 c 128,-1,20
 100 -92 100 -92 97 -66.5 c 128,-1,21
 94 -41 94 -41 97 -15 c 2,22,-1
 146 423 l 1,23,-1
 199 423 l 1,24,-1
 247 -15 l 2,12,13
EndSplineSet
EndChar
StartChar: cent
Encoding: 162 162 101
Width: 607
VWidth: 1533
Flags: W
HStem: -18 168<276.094 355.629> 104 46<230.723 274> 547 46<356 390.071> 547 158<274.276 355.629>
VStem: 37 109<256.298 415.583> 274 82<-18 103 593 705>
Fore
570 264 m 1,0,1
 546 186 546 186 487.5 148 c 128,-1,2
 429 110 429 110 356 103 c 1,3,-1
 356 -18 l 1,4,-1
 274 -18 l 1,5,-1
 274 104 l 1,6,7
 225 110 225 110 181.5 131 c 128,-1,8
 138 152 138 152 106 184 c 128,-1,9
 74 216 74 216 55.5 258.5 c 128,-1,10
 37 301 37 301 37 350 c 0,11,12
 37 397 37 397 55.5 438.5 c 128,-1,13
 74 480 74 480 106 512 c 128,-1,14
 138 544 138 544 181.5 564 c 128,-1,15
 225 584 225 584 274 592 c 1,16,-1
 274 705 l 1,17,-1
 356 705 l 1,18,-1
 356 593 l 1,19,20
 429 586 429 586 487.5 548.5 c 128,-1,21
 546 511 546 511 569 432 c 1,22,-1
 461 432 l 1,23,24
 417 547 417 547 313 547 c 0,25,26
 273 547 273 547 242.5 531 c 128,-1,27
 212 515 212 515 190.5 489 c 128,-1,28
 169 463 169 463 157.5 427 c 128,-1,29
 146 391 146 391 146 353 c 0,30,31
 146 265 146 265 190.5 207.5 c 128,-1,32
 235 150 235 150 313 150 c 0,33,34
 417 150 417 150 461 264 c 1,35,-1
 570 264 l 1,0,1
EndSplineSet
EndChar
StartChar: sterling
Encoding: 163 163 102
Width: 781
VWidth: 1533
Flags: W
HStem: -18 107<550.309 643.14> -15 66<127.29 225.576> 169 52<148.111 234.133> 333 58<176 242 408 558> 639 54<390.719 507.27>
VStem: 0 107<60.2484 145.411> 235 101<453.943 578.988> 284 131<226 247.624 247.624 294.468 298.109 332.187> 725 57<164.596 208.351>
Fore
782 193 m 1,0,1
 771 152 771 152 751 113.5 c 128,-1,2
 731 75 731 75 703.5 46 c 128,-1,3
 676 17 676 17 639.5 -0.5 c 128,-1,4
 603 -18 603 -18 558 -18 c 0,5,6
 524 -18 524 -18 496.5 -5 c 128,-1,7
 469 8 469 8 444 26 c 128,-1,8
 419 44 419 44 396 65.5 c 128,-1,9
 373 87 373 87 350 106 c 1,10,11
 313 60 313 60 254 22.5 c 128,-1,12
 195 -15 195 -15 129 -15 c 0,13,14
 110 -15 110 -15 88 -9 c 128,-1,15
 66 -3 66 -3 46 9 c 128,-1,16
 26 21 26 21 13 39.5 c 128,-1,17
 0 58 0 58 0 84 c 0,18,19
 0 123 0 123 21.5 149.5 c 128,-1,20
 43 176 43 176 73.5 191.5 c 128,-1,21
 104 207 104 207 139.5 214 c 128,-1,22
 175 221 175 221 202 221 c 0,23,24
 224 221 224 221 243 219.5 c 128,-1,25
 262 218 262 218 284 215 c 1,26,-1
 284 225 l 2,27,28
 284 251 284 251 279 279 c 128,-1,29
 274 307 274 307 267 333 c 1,30,-1
 147 333 l 1,31,-1
 176 391 l 1,32,-1
 242 391 l 1,33,34
 239 411 239 411 237 434 c 128,-1,35
 235 457 235 457 235 475 c 0,36,37
 235 572 235 572 291 632.5 c 128,-1,38
 347 693 347 693 454 693 c 0,39,40
 527 693 527 693 589.5 664 c 128,-1,41
 652 635 652 635 698 553 c 1,42,-1
 575 507 l 1,43,44
 564 575 564 575 522 607 c 128,-1,45
 480 639 480 639 428 639 c 0,46,47
 409 639 409 639 393 630 c 128,-1,48
 377 621 377 621 364 607 c 128,-1,49
 351 593 351 593 343.5 576.5 c 128,-1,50
 336 560 336 560 336 543 c 0,51,52
 336 501 336 501 349 465 c 128,-1,53
 362 429 362 429 380 391 c 1,54,-1
 587 391 l 1,55,-1
 558 333 l 1,56,-1
 408 333 l 1,57,58
 412 317 412 317 413.5 297.5 c 128,-1,59
 415 278 415 278 415 261 c 0,60,61
 415 241 415 241 410.5 221 c 128,-1,62
 406 201 406 201 399 184 c 1,63,64
 420 175 420 175 445.5 159 c 128,-1,65
 471 143 471 143 497.5 127.5 c 128,-1,66
 524 112 524 112 549.5 100.5 c 128,-1,67
 575 89 575 89 598 89 c 0,68,69
 642 89 642 89 673 122.5 c 128,-1,70
 704 156 704 156 725 210 c 1,71,-1
 782 193 l 1,0,1
273 147 m 1,72,73
 258 155 258 155 238.5 162 c 128,-1,74
 219 169 219 169 201 169 c 0,75,76
 164 169 164 169 135.5 150.5 c 128,-1,77
 107 132 107 132 107 92 c 0,78,79
 107 71 107 71 125 61 c 128,-1,80
 143 51 143 51 172 51 c 0,81,82
 209 51 209 51 235.5 82 c 128,-1,83
 262 113 262 113 273 147 c 1,72,73
EndSplineSet
EndChar
StartChar: currency
Encoding: 164 164 103
Width: 716
VWidth: 1533
Flags: W
HStem: 69 72<275.378 439.507> 538 78<294.15 441.028>
VStem: 58 101<256.999 421.296> 558 92<257.965 420.554>
Fore
592 60 m 1,0,-1
 527 121 l 1,1,2
 489 97 489 97 445.5 83 c 128,-1,3
 402 69 402 69 354 69 c 0,4,5
 262 69 262 69 186 118 c 1,6,-1
 123 60 l 1,7,-1
 52 127 l 1,8,-1
 113 184 l 1,9,10
 58 256 58 256 58 343 c 0,11,12
 58 386 58 386 73.5 427 c 128,-1,13
 89 468 89 468 115 503 c 1,14,-1
 52 561 l 1,15,-1
 123 627 l 1,16,-1
 187 569 l 1,17,18
 224 593 224 593 267 604.5 c 128,-1,19
 310 616 310 616 354 616 c 0,20,21
 449 616 449 616 526 567 c 1,22,-1
 590 627 l 1,23,-1
 662 561 l 1,24,-1
 596 500 l 1,25,26
 622 466 622 466 636 425.5 c 128,-1,27
 650 385 650 385 650 343 c 0,28,29
 650 258 650 258 598 187 c 1,30,-1
 664 127 l 1,31,-1
 592 60 l 1,0,-1
558 340 m 256,32,33
 558 382 558 382 542 418 c 128,-1,34
 526 454 526 454 499 480.5 c 128,-1,35
 472 507 472 507 436 522.5 c 128,-1,36
 400 538 400 538 359 538 c 256,37,38
 317 538 317 538 281 522.5 c 128,-1,39
 245 507 245 507 217.5 480.5 c 128,-1,40
 190 454 190 454 174.5 418 c 128,-1,41
 159 382 159 382 159 340 c 256,42,43
 159 299 159 299 174.5 263 c 128,-1,44
 190 227 190 227 217.5 199.5 c 128,-1,45
 245 172 245 172 281 156.5 c 128,-1,46
 317 141 317 141 359 141 c 256,47,48
 400 141 400 141 436 156.5 c 128,-1,49
 472 172 472 172 499 199.5 c 128,-1,50
 526 227 526 227 542 263 c 128,-1,51
 558 299 558 299 558 340 c 256,32,33
EndSplineSet
EndChar
StartChar: yen
Encoding: 165 165 104
Width: 788
VWidth: 1533
Flags: W
HStem: 170 55<155 320 446 616> 284 55<155 296 460 616>
VStem: 320 126<2 170 225 284>
Fore
460 339 m 1,0,-1
 616 339 l 1,1,-1
 616 284 l 1,2,-1
 446 284 l 1,3,-1
 446 225 l 1,4,-1
 616 225 l 1,5,-1
 616 170 l 1,6,-1
 446 170 l 1,7,-1
 446 2 l 1,8,-1
 320 2 l 1,9,-1
 320 170 l 1,10,-1
 155 170 l 1,11,-1
 155 225 l 1,12,-1
 320 225 l 1,13,-1
 320 284 l 1,14,-1
 155 284 l 1,15,-1
 155 339 l 1,16,-1
 296 339 l 1,17,-1
 5 698 l 1,18,-1
 150 698 l 1,19,-1
 402 385 l 1,20,-1
 679 698 l 1,21,-1
 783 698 l 1,22,-1
 460 339 l 1,0,-1
EndSplineSet
EndChar
StartChar: brokenbar
Encoding: 166 166 105
Width: 283
VWidth: 1533
Flags: W
HStem: 345 409<92 192 92 192 92 92>
VStem: 92 100<-196 215 345 754>
Fore
92 345 m 1,0,-1
 92 754 l 1,1,-1
 192 754 l 1,2,-1
 192 345 l 1,3,-1
 92 345 l 1,0,-1
92 -196 m 1,4,-1
 92 215 l 1,5,-1
 192 215 l 1,6,-1
 192 -196 l 1,7,-1
 92 -196 l 1,4,-1
EndSplineSet
EndChar
StartChar: section
Encoding: 167 167 106
Width: 657
VWidth: 1533
Flags: W
HStem: -175 60<241.251 354.096> 682 57<288.955 394.853>
VStem: 69 127<273.8 367.165> 124 115<521.391 643.588> 465 128<-50.3972 64.1606 224.966 315.257 560 600.938>
Fore
593 32 m 0,0,1
 593 -23 593 -23 566.5 -62 c 128,-1,2
 540 -101 540 -101 497.5 -126.5 c 128,-1,3
 455 -152 455 -152 404.5 -163.5 c 128,-1,4
 354 -175 354 -175 308 -175 c 0,5,6
 258 -175 258 -175 211 -159.5 c 128,-1,7
 164 -144 164 -144 127 -115.5 c 128,-1,8
 90 -87 90 -87 66.5 -46 c 128,-1,9
 43 -5 43 -5 37 48 c 1,10,-1
 166 48 l 1,11,12
 167 15 167 15 176.5 -14 c 128,-1,13
 186 -43 186 -43 203.5 -65 c 128,-1,14
 221 -87 221 -87 247 -101 c 128,-1,15
 273 -115 273 -115 308 -115 c 0,16,17
 337 -115 337 -115 365.5 -108 c 128,-1,18
 394 -101 394 -101 415.5 -86 c 128,-1,19
 437 -71 437 -71 451 -47 c 128,-1,20
 465 -23 465 -23 465 11 c 0,21,22
 465 49 465 49 435.5 70.5 c 128,-1,23
 406 92 406 92 361.5 106 c 128,-1,24
 317 120 317 120 266.5 132 c 128,-1,25
 216 144 216 144 171.5 163 c 128,-1,26
 127 182 127 182 98 214.5 c 128,-1,27
 69 247 69 247 69 302 c 0,28,29
 69 351 69 351 95 389.5 c 128,-1,30
 121 428 121 428 164 451 c 1,31,32
 143 474 143 474 133.5 503 c 128,-1,33
 124 532 124 532 124 563 c 0,34,35
 124 609 124 609 144 642.5 c 128,-1,36
 164 676 164 676 195.5 697.5 c 128,-1,37
 227 719 227 719 267.5 729 c 128,-1,38
 308 739 308 739 350 739 c 0,39,40
 442 739 442 739 501 693 c 128,-1,41
 560 647 560 647 587 560 c 1,42,-1
 468 560 l 1,43,44
 461 583 461 583 452 604.5 c 128,-1,45
 443 626 443 626 429 643.5 c 128,-1,46
 415 661 415 661 396 671.5 c 128,-1,47
 377 682 377 682 350 682 c 0,48,49
 301 682 301 682 270 655.5 c 128,-1,50
 239 629 239 629 239 580 c 0,51,52
 239 540 239 540 265 517 c 128,-1,53
 291 494 291 494 330.5 477.5 c 128,-1,54
 370 461 370 461 415 449 c 128,-1,55
 460 437 460 437 499 418 c 128,-1,56
 538 399 538 399 564 368 c 128,-1,57
 590 337 590 337 590 285 c 0,58,59
 590 248 590 248 568.5 217.5 c 128,-1,60
 547 187 547 187 518 164 c 1,61,62
 553 141 553 141 573 106 c 128,-1,63
 593 71 593 71 593 32 c 0,0,1
472 265 m 0,64,65
 472 297 472 297 443 318.5 c 128,-1,66
 414 340 414 340 374 355 c 128,-1,67
 334 370 334 370 292.5 380.5 c 128,-1,68
 251 391 251 391 227 403 c 1,69,70
 209 388 209 388 202.5 365 c 128,-1,71
 196 342 196 342 196 320 c 0,72,73
 196 287 196 287 227.5 265.5 c 128,-1,74
 259 244 259 244 301 231 c 128,-1,75
 343 218 343 218 386 210 c 128,-1,76
 429 202 429 202 454 196 c 1,77,78
 468 209 468 209 470 228 c 128,-1,79
 472 247 472 247 472 265 c 0,64,65
EndSplineSet
EndChar
StartChar: dieresis
Encoding: 168 168 107
Width: 392
VWidth: 1533
Flags: W
HStem: 658 141<35.6277 135.888 258.627 358.372>
VStem: 15 141<678.627 778.372> 238 141<678.627 778.372>
Fore
379 728 m 256,0,1
 379 698 379 698 359 678 c 128,-1,2
 339 658 339 658 308 658 c 256,3,4
 278 658 278 658 258 678 c 128,-1,5
 238 698 238 698 238 728 c 256,6,7
 238 759 238 759 258 779 c 128,-1,8
 278 799 278 799 308 799 c 256,9,10
 339 799 339 799 359 779 c 128,-1,11
 379 759 379 759 379 728 c 256,0,1
156 728 m 256,12,13
 156 698 156 698 136.5 678 c 128,-1,14
 117 658 117 658 86 658 c 256,15,16
 55 658 55 658 35 678 c 128,-1,17
 15 698 15 698 15 728 c 256,18,19
 15 759 15 759 35 779 c 128,-1,20
 55 799 55 799 86 799 c 256,21,22
 117 799 117 799 136.5 779 c 128,-1,23
 156 759 156 759 156 728 c 256,12,13
EndSplineSet
EndChar
StartChar: copyright
Encoding: 169 169 108
Width: 881
VWidth: 1533
Flags: W
HStem: -38 78<330.618 553.354> 141 43<362.795 498.246> 534 39<371.021 497.337> 679 75<329.226 553.354>
VStem: 37 84<247.711 470.556> 202 97<268.703 422.794> 760 85<247.711 470.556>
Fore
845 357 m 256,0,1
 845 274 845 274 812 202 c 128,-1,2
 779 130 779 130 723.5 76.5 c 128,-1,3
 668 23 668 23 595.5 -7.5 c 128,-1,4
 523 -38 523 -38 442 -38 c 256,5,6
 360 -38 360 -38 286.5 -7.5 c 128,-1,7
 213 23 213 23 158 76.5 c 128,-1,8
 103 130 103 130 70 202 c 128,-1,9
 37 274 37 274 37 357 c 256,10,11
 37 440 37 440 70 512 c 128,-1,12
 103 584 103 584 158 638.5 c 128,-1,13
 213 693 213 693 286.5 723.5 c 128,-1,14
 360 754 360 754 442 754 c 256,15,16
 523 754 523 754 595.5 722.5 c 128,-1,17
 668 691 668 691 723.5 637.5 c 128,-1,18
 779 584 779 584 812 512 c 128,-1,19
 845 440 845 440 845 357 c 256,0,1
760 359 m 256,20,21
 760 423 760 423 734 481.5 c 128,-1,22
 708 540 708 540 664.5 583.5 c 128,-1,23
 621 627 621 627 563.5 653 c 128,-1,24
 506 679 506 679 442 679 c 256,25,26
 377 679 377 679 319 653 c 128,-1,27
 261 627 261 627 217 583.5 c 128,-1,28
 173 540 173 540 147 481.5 c 128,-1,29
 121 423 121 423 121 359 c 256,30,31
 121 294 121 294 147 236.5 c 128,-1,32
 173 179 173 179 217.5 135.5 c 128,-1,33
 262 92 262 92 319.5 66 c 128,-1,34
 377 40 377 40 442 40 c 256,35,36
 506 40 506 40 563.5 66 c 128,-1,37
 621 92 621 92 664.5 135.5 c 128,-1,38
 708 179 708 179 734 236.5 c 128,-1,39
 760 294 760 294 760 359 c 256,20,21
662 284 m 1,40,41
 650 245 650 245 628 218.5 c 128,-1,42
 606 192 606 192 576.5 174 c 128,-1,43
 547 156 547 156 512.5 148.5 c 128,-1,44
 478 141 478 141 443 141 c 0,45,46
 394 141 394 141 350.5 157 c 128,-1,47
 307 173 307 173 274 201.5 c 128,-1,48
 241 230 241 230 221.5 270 c 128,-1,49
 202 310 202 310 202 357 c 256,50,51
 202 405 202 405 221.5 444.5 c 128,-1,52
 241 484 241 484 274 512.5 c 128,-1,53
 307 541 307 541 350.5 557 c 128,-1,54
 394 573 394 573 443 573 c 0,55,56
 478 573 478 573 512.5 565.5 c 128,-1,57
 547 558 547 558 576.5 541 c 128,-1,58
 606 524 606 524 628 497.5 c 128,-1,59
 650 471 650 471 662 432 c 1,60,-1
 569 432 l 1,61,62
 549 481 549 481 516.5 507.5 c 128,-1,63
 484 534 484 534 438 534 c 0,64,65
 403 534 403 534 377 520 c 128,-1,66
 351 506 351 506 334 482 c 128,-1,67
 317 458 317 458 308 427 c 128,-1,68
 299 396 299 396 299 362 c 0,69,70
 299 284 299 284 334.5 234 c 128,-1,71
 370 184 370 184 438 184 c 0,72,73
 529 184 529 184 569 284 c 1,74,-1
 662 284 l 1,40,41
EndSplineSet
EndChar
StartChar: ordfeminine
Encoding: 170 170 109
Width: 427
VWidth: 1533
Flags: W
HStem: 334 370<147 213 173 204 242.758 260> 334 34<127.074 235.552> 534 35<204.14 261.542 261.542 289.758 289.758 307> 668 36<140.456 274.366>
VStem: 15 376<343 448 417 448> 15 80<398.773 488.525> 34 78<613.674 663.644> 307 69<431.135 534 569 570 570 625.76>
Fore
325 343 m 1,0,1
 322 353 322 353 317.5 365 c 128,-1,2
 313 377 313 377 313 391 c 1,3,4
 287 360 287 360 250 347 c 128,-1,5
 213 334 213 334 173 334 c 0,6,7
 143 334 143 334 114.5 341 c 128,-1,8
 86 348 86 348 64.5 362 c 128,-1,9
 43 376 43 376 29 397.5 c 128,-1,10
 15 419 15 419 15 448 c 0,11,12
 15 484 15 484 39 508 c 128,-1,13
 63 532 63 532 98 546 c 128,-1,14
 133 560 133 560 174.5 564.5 c 128,-1,15
 216 569 216 569 251 569 c 0,16,17
 255 569 255 569 272.5 569.5 c 128,-1,18
 290 570 290 570 307 569 c 1,19,-1
 307 570 l 2,20,21
 307 609 307 609 282.5 638.5 c 128,-1,22
 258 668 258 668 204 668 c 0,23,24
 130 668 130 668 112 595 c 1,25,-1
 34 595 l 1,26,27
 51 650 51 650 99 677 c 128,-1,28
 147 704 147 704 204 704 c 0,29,30
 291 704 291 704 333.5 667 c 128,-1,31
 376 630 376 630 376 570 c 2,32,-1
 376 429 l 2,33,34
 376 403 376 403 380.5 380 c 128,-1,35
 385 357 385 357 391 343 c 1,36,-1
 325 343 l 1,0,1
251 534 m 2,37,38
 221 534 221 534 192.5 528.5 c 128,-1,39
 164 523 164 523 142.5 511.5 c 128,-1,40
 121 500 121 500 108 484 c 128,-1,41
 95 468 95 468 95 446 c 0,42,43
 95 417 95 417 123.5 392.5 c 128,-1,44
 152 368 152 368 192 368 c 0,45,46
 241 368 241 368 274 405.5 c 128,-1,47
 307 443 307 443 307 503 c 2,48,-1
 307 534 l 1,49,-1
 251 534 l 2,37,38
EndSplineSet
EndChar
StartChar: guillemotleft
Encoding: 171 171 110
Width: 627
VWidth: 1533
Flags: W
HStem: 55 471<500 501 500 500>
VStem: 107 468<112 291 291 291>
Fore
501 55 m 1,0,-1
 328 291 l 1,1,-1
 500 526 l 1,2,-1
 573 471 l 1,3,-1
 425 291 l 1,4,-1
 575 112 l 1,5,-1
 501 55 l 1,0,-1
281 55 m 1,6,-1
 107 291 l 1,7,-1
 278 526 l 1,8,-1
 351 471 l 1,9,-1
 204 291 l 1,10,-1
 354 112 l 1,11,-1
 281 55 l 1,6,-1
EndSplineSet
EndChar
StartChar: logicalnot
Encoding: 172 172 111
Width: 631
VWidth: 1533
Flags: W
HStem: 129 303<471 586 15 471 586 586> 376 56<15 471>
VStem: 471 115<129 376>
Fore
471 129 m 1,0,-1
 471 376 l 1,1,-1
 15 376 l 1,2,-1
 15 432 l 1,3,-1
 586 432 l 1,4,-1
 586 129 l 1,5,-1
 471 129 l 1,0,-1
EndSplineSet
EndChar
StartChar: registered
Encoding: 174 174 112
Width: 881
VWidth: 1533
Flags: W
HStem: -38 78<330.618 553.354> 328 35<333 493.982> 518 34<333 482.327> 679 75<329.226 553.354>
VStem: 37 84<247.711 470.556> 264 69<159 328 363 518> 534 75<392.731 494.077> 760 85<247.711 470.556>
Fore
845 357 m 256,0,1
 845 274 845 274 812 202 c 128,-1,2
 779 130 779 130 723.5 76.5 c 128,-1,3
 668 23 668 23 595.5 -7.5 c 128,-1,4
 523 -38 523 -38 442 -38 c 256,5,6
 360 -38 360 -38 286.5 -7.5 c 128,-1,7
 213 23 213 23 158 76.5 c 128,-1,8
 103 130 103 130 70 202 c 128,-1,9
 37 274 37 274 37 357 c 256,10,11
 37 440 37 440 70 512 c 128,-1,12
 103 584 103 584 158 638.5 c 128,-1,13
 213 693 213 693 286.5 723.5 c 128,-1,14
 360 754 360 754 442 754 c 256,15,16
 523 754 523 754 595.5 722.5 c 128,-1,17
 668 691 668 691 723.5 637.5 c 128,-1,18
 779 584 779 584 812 512 c 128,-1,19
 845 440 845 440 845 357 c 256,0,1
760 359 m 256,20,21
 760 423 760 423 734 481.5 c 128,-1,22
 708 540 708 540 664.5 583.5 c 128,-1,23
 621 627 621 627 563.5 653 c 128,-1,24
 506 679 506 679 442 679 c 256,25,26
 377 679 377 679 319 653 c 128,-1,27
 261 627 261 627 217 583.5 c 128,-1,28
 173 540 173 540 147 481.5 c 128,-1,29
 121 423 121 423 121 359 c 256,30,31
 121 294 121 294 147 236.5 c 128,-1,32
 173 179 173 179 217.5 135.5 c 128,-1,33
 262 92 262 92 319.5 66 c 128,-1,34
 377 40 377 40 442 40 c 256,35,36
 506 40 506 40 563.5 66 c 128,-1,37
 621 92 621 92 664.5 135.5 c 128,-1,38
 708 179 708 179 734 236.5 c 128,-1,39
 760 294 760 294 760 359 c 256,20,21
570 159 m 1,40,41
 553 175 553 175 544 197 c 128,-1,42
 535 219 535 219 527 242 c 2,43,-1
 518 270 l 2,44,45
 511 296 511 296 494.5 312 c 128,-1,46
 478 328 478 328 452 328 c 2,47,-1
 333 328 l 1,48,-1
 333 159 l 1,49,-1
 264 159 l 1,50,-1
 264 552 l 1,51,-1
 403 552 l 2,52,53
 446 552 446 552 483.5 549 c 128,-1,54
 521 546 521 546 548.5 535 c 128,-1,55
 576 524 576 524 592.5 502.5 c 128,-1,56
 609 481 609 481 609 445 c 128,-1,57
 609 409 609 409 578 384 c 128,-1,58
 547 359 547 359 512 350 c 1,59,60
 546 343 546 343 566.5 323.5 c 128,-1,61
 587 304 587 304 595 278 c 2,62,-1
 609 232 l 2,63,64
 615 216 615 216 624 197 c 128,-1,65
 633 178 633 178 655 159 c 1,66,-1
 570 159 l 1,40,41
534 445 m 0,67,68
 534 477 534 477 508.5 497.5 c 128,-1,69
 483 518 483 518 412 518 c 2,70,-1
 333 518 l 1,71,-1
 333 363 l 1,72,-1
 417 363 l 2,73,74
 486 363 486 363 510 384 c 128,-1,75
 534 405 534 405 534 445 c 0,67,68
EndSplineSet
EndChar
StartChar: macron
Encoding: 175 175 113
Width: 381
VWidth: 1533
Flags: W
HStem: 599 91<29 351 29 351 29 29>
Fore
29 599 m 1,0,-1
 29 690 l 1,1,-1
 351 690 l 1,2,-1
 351 599 l 1,3,-1
 29 599 l 1,0,-1
EndSplineSet
EndChar
StartChar: degree
Encoding: 176 176 114
Width: 441
VWidth: 1533
Flags: W
HStem: 366 66<157.021 287.131> 650 71<157.234 287.165>
VStem: 44 69<475.896 605.732> 330 67<474.864 606.778>
Fore
397 543 m 256,0,1
 397 506 397 506 383.5 474 c 128,-1,2
 370 442 370 442 346 418 c 128,-1,3
 322 394 322 394 290 380 c 128,-1,4
 258 366 258 366 221 366 c 256,5,6
 184 366 184 366 152 380 c 128,-1,7
 120 394 120 394 96 418 c 128,-1,8
 72 442 72 442 58 474 c 128,-1,9
 44 506 44 506 44 543 c 256,10,11
 44 580 44 580 58 612 c 128,-1,12
 72 644 72 644 96.5 668.5 c 128,-1,13
 121 693 121 693 152.5 707 c 128,-1,14
 184 721 184 721 221 721 c 256,15,16
 258 721 258 721 289 707 c 128,-1,17
 320 693 320 693 345 668.5 c 128,-1,18
 370 644 370 644 383.5 612 c 128,-1,19
 397 580 397 580 397 543 c 256,0,1
330 540 m 0,20,21
 330 586 330 586 298.5 618 c 128,-1,22
 267 650 267 650 222 650 c 256,23,24
 178 650 178 650 145.5 618 c 128,-1,25
 113 586 113 586 113 540 c 0,26,27
 113 495 113 495 145.5 463.5 c 128,-1,28
 178 432 178 432 222 432 c 256,29,30
 267 432 267 432 298.5 463.5 c 128,-1,31
 330 495 330 495 330 540 c 0,20,21
EndSplineSet
EndChar
StartChar: plusminus
Encoding: 177 177 115
Width: 703
VWidth: 1533
Flags: W
HStem: 0 72<44 659> 314 72<44 302 402 659>
VStem: 302 100<132 314 386 567>
Fore
402 314 m 1,0,-1
 402 132 l 1,1,-1
 302 132 l 1,2,-1
 302 314 l 1,3,-1
 44 314 l 1,4,-1
 44 386 l 1,5,-1
 302 386 l 1,6,-1
 302 567 l 1,7,-1
 402 567 l 1,8,-1
 402 386 l 1,9,-1
 659 386 l 1,10,-1
 659 314 l 1,11,-1
 402 314 l 1,0,-1
44 0 m 1,12,-1
 44 72 l 1,13,-1
 659 72 l 1,14,-1
 659 0 l 1,15,-1
 44 0 l 1,12,-1
EndSplineSet
EndChar
StartChar: twosuperior
Encoding: 178 178 116
Width: 455
VWidth: 1533
Flags: W
HStem: 282 58<130 426> 670 34<167.404 271.236>
VStem: 316 99<512.964 630.858>
Fore
26 282 m 1,0,1
 31 316 31 316 47 341 c 128,-1,2
 63 366 63 366 86 385.5 c 128,-1,3
 109 405 109 405 136.5 420 c 128,-1,4
 164 435 164 435 195 451 c 0,5,6
 219 461 219 461 244 475 c 0,7,8
 271 491 271 491 293.5 511.5 c 128,-1,9
 316 532 316 532 316 570 c 0,10,11
 316 606 316 606 291.5 638 c 128,-1,12
 267 670 267 670 218 670 c 0,13,14
 176 670 176 670 147 639.5 c 128,-1,15
 118 609 118 609 117 557 c 1,16,-1
 15 557 l 1,17,18
 21 595 21 595 39.5 622.5 c 128,-1,19
 58 650 58 650 85.5 668.5 c 128,-1,20
 113 687 113 687 147 695.5 c 128,-1,21
 181 704 181 704 218 704 c 0,22,23
 256 704 256 704 292 695.5 c 128,-1,24
 328 687 328 687 355.5 670 c 128,-1,25
 383 653 383 653 399 628.5 c 128,-1,26
 415 604 415 604 415 570 c 0,27,28
 415 538 415 538 398.5 513 c 128,-1,29
 382 488 382 488 356 468.5 c 128,-1,30
 330 449 330 449 297.5 434.5 c 128,-1,31
 265 420 265 420 233 406 c 0,32,33
 199 392 199 392 171 377 c 128,-1,34
 143 362 143 362 130 340 c 1,35,-1
 426 340 l 1,36,-1
 426 282 l 1,37,-1
 26 282 l 1,0,1
EndSplineSet
EndChar
StartChar: threesuperior
Encoding: 179 179 117
Width: 455
VWidth: 1533
Flags: W
HStem: 278 35<170.689 279.664> 672 35<172.564 279.206>
VStem: 44 100<578.37 644.096> 313 99<552.273 646.553> 337 98<354.211 459.634>
Fore
435 409 m 0,0,1
 435 374 435 374 416 349.5 c 128,-1,2
 397 325 397 325 367 309 c 128,-1,3
 337 293 337 293 299 285.5 c 128,-1,4
 261 278 261 278 222 278 c 0,5,6
 186 278 186 278 151.5 286 c 128,-1,7
 117 294 117 294 89 312.5 c 128,-1,8
 61 331 61 331 43 358.5 c 128,-1,9
 25 386 25 386 18 425 c 1,10,-1
 120 425 l 1,11,12
 121 373 121 373 150 343 c 128,-1,13
 179 313 179 313 222 313 c 0,14,15
 268 313 268 313 302.5 342 c 128,-1,16
 337 371 337 371 337 411 c 0,17,18
 337 449 337 449 304 467.5 c 128,-1,19
 271 486 271 486 222 486 c 0,20,21
 207 486 207 486 191 484.5 c 128,-1,22
 175 483 175 483 153 480 c 1,23,-1
 153 529 l 1,24,25
 230 517 230 517 271.5 539 c 128,-1,26
 313 561 313 561 313 596 c 0,27,28
 313 624 313 624 291.5 648 c 128,-1,29
 270 672 270 672 225 672 c 0,30,31
 189 672 189 672 168 645.5 c 128,-1,32
 147 619 147 619 144 572 c 1,33,-1
 44 572 l 1,34,35
 51 639 51 639 103 673 c 128,-1,36
 155 707 155 707 225 707 c 0,37,38
 262 707 262 707 296 701 c 128,-1,39
 330 695 330 695 356 681 c 128,-1,40
 382 667 382 667 397 646.5 c 128,-1,41
 412 626 412 626 412 596 c 128,-1,42
 412 566 412 566 392.5 544.5 c 128,-1,43
 373 523 373 523 343 511 c 1,44,-1
 342 511 l 1,45,46
 380 498 380 498 407.5 473.5 c 128,-1,47
 435 449 435 449 435 409 c 0,0,1
EndSplineSet
EndChar
StartChar: acute
Encoding: 180 180 118
Width: 280
VWidth: 1533
Flags: W
HStem: 652 191<101 264 264 264>
VStem: 48 265<652 799 652 652>
Fore
313 799 m 0,0,1
 313 791 313 791 308.5 778 c 128,-1,2
 304 765 304 765 284 754 c 2,3,-1
 101 652 l 1,4,-1
 48 652 l 1,5,-1
 207 814 l 2,6,7
 221 826 221 826 231.5 834.5 c 128,-1,8
 242 843 242 843 264 843 c 256,9,10
 285 843 285 843 299 831.5 c 128,-1,11
 313 820 313 820 313 799 c 0,0,1
EndSplineSet
EndChar
StartChar: mu
Encoding: 181 181 119
Width: 666
VWidth: 1533
Flags: W
HStem: -18 61<252.959 372.738> 514 20G<61 175 495 607>
VStem: 61 114<-192 25 101.406 534> 495 112<-3 67 159.579 534>
Fore
495 67 m 1,0,1
 478 44 478 44 455 27.5 c 128,-1,2
 432 11 432 11 407.5 1 c 128,-1,3
 383 -9 383 -9 358.5 -13.5 c 128,-1,4
 334 -18 334 -18 314 -18 c 0,5,6
 276 -18 276 -18 238.5 -8 c 128,-1,7
 201 2 201 2 175 25 c 1,8,-1
 175 -192 l 1,9,-1
 61 -192 l 1,10,-1
 61 534 l 1,11,-1
 175 534 l 1,12,-1
 175 169 l 2,13,14
 175 120 175 120 214 81.5 c 128,-1,15
 253 43 253 43 327 43 c 0,16,17
 363 43 363 43 394 57.5 c 128,-1,18
 425 72 425 72 447 98 c 128,-1,19
 469 124 469 124 482 158.5 c 128,-1,20
 495 193 495 193 495 233 c 2,21,-1
 495 534 l 1,22,-1
 607 534 l 1,23,-1
 607 -3 l 1,24,-1
 495 -3 l 1,25,-1
 495 67 l 1,0,1
EndSplineSet
EndChar
StartChar: paragraph
Encoding: 182 182 120
Width: 619
VWidth: 1533
Flags: W
HStem: 652 66<350 414 514 590>
VStem: 29 321<373.922 580.685> 250 100<-150 242> 414 100<-150 652>
Fore
514 652 m 1,0,-1
 514 -150 l 1,1,-1
 414 -150 l 1,2,-1
 414 652 l 1,3,-1
 350 652 l 1,4,-1
 350 -150 l 1,5,-1
 250 -150 l 1,6,-1
 250 242 l 1,7,8
 140 250 140 250 84.5 318 c 128,-1,9
 29 386 29 386 29 489 c 0,10,11
 29 540 29 540 47.5 582 c 128,-1,12
 66 624 66 624 99.5 654 c 128,-1,13
 133 684 133 684 177.5 701 c 128,-1,14
 222 718 222 718 276 718 c 2,15,-1
 590 718 l 1,16,-1
 590 652 l 1,17,-1
 514 652 l 1,0,-1
EndSplineSet
EndChar
StartChar: periodcentered
Encoding: 183 183 121
Width: 346
VWidth: 1533
Flags: W
HStem: 239 227<103.902 241.062>
VStem: 58 229<284.197 420.062>
Fore
58 351 m 0,0,1
 58 400 58 400 91 433 c 128,-1,2
 124 466 124 466 172 466 c 0,3,4
 221 466 221 466 254 433 c 128,-1,5
 287 400 287 400 287 351 c 0,6,7
 287 304 287 304 254 271.5 c 128,-1,8
 221 239 221 239 172 239 c 0,9,10
 124 239 124 239 91 271.5 c 128,-1,11
 58 304 58 304 58 351 c 0,0,1
EndSplineSet
EndChar
StartChar: cedilla
Encoding: 184 184 122
Width: 275
VWidth: 1533
Flags: W
HStem: -241 39<71.3057 145.545> -20 20G<99.4762 166>
VStem: 158 104<-188.998 -121.02>
Fore
262 -146 m 0,0,1
 262 -172 262 -172 247 -190.5 c 128,-1,2
 232 -209 232 -209 210.5 -220.5 c 128,-1,3
 189 -232 189 -232 163.5 -236.5 c 128,-1,4
 138 -241 138 -241 118 -241 c 0,5,6
 95 -241 95 -241 66.5 -238.5 c 128,-1,7
 38 -236 38 -236 6 -221 c 1,8,-1
 21 -173 l 1,9,10
 37 -187 37 -187 60.5 -194.5 c 128,-1,11
 84 -202 84 -202 101 -202 c 0,12,13
 126 -202 126 -202 142 -188.5 c 128,-1,14
 158 -175 158 -175 158 -150 c 0,15,16
 158 -123 158 -123 125 -118 c 128,-1,17
 92 -113 92 -113 49 -126 c 1,18,-1
 109 0 l 1,19,-1
 166 0 l 1,20,-1
 129 -77 l 1,21,22
 138 -77 138 -77 144 -75 c 0,23,24
 159 -72 159 -72 166 -72 c 0,25,26
 202 -72 202 -72 232 -91 c 128,-1,27
 262 -110 262 -110 262 -146 c 0,0,1
EndSplineSet
EndChar
StartChar: onesuperior
Encoding: 185 185 123
Width: 424
VWidth: 1533
Flags: W
HStem: 622 27<64 86.0923 86.0923 132.988> 694 20G<187.5 255>
VStem: 167 88<281 622>
Fore
167 281 m 1,0,-1
 167 622 l 1,1,-1
 64 622 l 1,2,-1
 64 649 l 1,3,4
 89 649 89 649 108 649.5 c 128,-1,5
 127 650 127 650 142.5 656 c 128,-1,6
 158 662 158 662 170 676 c 128,-1,7
 182 690 182 690 193 714 c 1,8,-1
 255 714 l 1,9,-1
 255 281 l 1,10,-1
 167 281 l 1,0,-1
EndSplineSet
EndChar
StartChar: ordmasculine
Encoding: 186 186 124
Width: 463
VWidth: 1533
Flags: W
HStem: 337 37<164.796 302.955> 672 35<165.737 300.116>
VStem: 9 106<442.208 602.641> 351 103<442.208 603.886>
Fore
454 523 m 256,0,1
 454 480 454 480 436.5 445.5 c 128,-1,2
 419 411 419 411 389 387 c 128,-1,3
 359 363 359 363 318.5 350 c 128,-1,4
 278 337 278 337 232 337 c 256,5,6
 186 337 186 337 146 350 c 128,-1,7
 106 363 106 363 75 387 c 128,-1,8
 44 411 44 411 26.5 445.5 c 128,-1,9
 9 480 9 480 9 523 c 256,10,11
 9 566 9 566 26.5 599.5 c 128,-1,12
 44 633 44 633 75 657 c 128,-1,13
 106 681 106 681 146.5 694 c 128,-1,14
 187 707 187 707 233 707 c 256,15,16
 279 707 279 707 319 694.5 c 128,-1,17
 359 682 359 682 389 658.5 c 128,-1,18
 419 635 419 635 436.5 600.5 c 128,-1,19
 454 566 454 566 454 523 c 256,0,1
351 523 m 0,20,21
 351 596 351 596 318 634 c 128,-1,22
 285 672 285 672 233 672 c 256,23,24
 181 672 181 672 148 634 c 128,-1,25
 115 596 115 596 115 523 c 0,26,27
 115 448 115 448 148 411 c 128,-1,28
 181 374 181 374 233 374 c 0,29,30
 287 374 287 374 319 411 c 128,-1,31
 351 448 351 448 351 523 c 0,20,21
EndSplineSet
EndChar
StartChar: guillemotright
Encoding: 187 187 125
Width: 593
VWidth: 1533
Flags: W
HStem: 55 471<368 371 368 368>
VStem: 74 467<291 471 471 471>
Fore
371 55 m 1,0,-1
 297 112 l 1,1,-1
 445 291 l 1,2,-1
 294 471 l 1,3,-1
 368 526 l 1,4,-1
 541 291 l 1,5,-1
 371 55 l 1,0,-1
150 55 m 1,6,-1
 77 112 l 1,7,-1
 224 291 l 1,8,-1
 74 471 l 1,9,-1
 147 526 l 1,10,-1
 320 291 l 1,11,-1
 150 55 l 1,6,-1
EndSplineSet
EndChar
StartChar: onequarter
Encoding: 188 188 126
Width: 1079
VWidth: 1533
Flags: W
HStem: 0 21G<155 270.266 705 805> 100 44<580 705 805 882> 622 27<92 113.638 113.638 156.929> 685 20G<655.734 771>
VStem: 181 81<285 622> 705 100<0 100 144 281>
Fore
882 100 m 1,0,-1
 805 100 l 1,1,-1
 805 0 l 1,2,-1
 705 0 l 1,3,-1
 705 100 l 1,4,-1
 491 100 l 1,5,-1
 474 121 l 1,6,-1
 759 423 l 1,7,-1
 805 423 l 1,8,-1
 805 144 l 1,9,-1
 906 144 l 1,10,-1
 882 100 l 1,0,-1
256 -17 m 1,11,-1
 155 -17 l 1,12,-1
 670 705 l 1,13,-1
 771 705 l 1,14,-1
 256 -17 l 1,11,-1
181 285 m 1,15,-1
 181 622 l 1,16,-1
 92 622 l 1,17,-1
 92 649 l 1,18,19
 118 649 118 649 135 649.5 c 128,-1,20
 152 650 152 650 165 656 c 128,-1,21
 178 662 178 662 187 676 c 128,-1,22
 196 690 196 690 207 714 c 1,23,-1
 262 714 l 1,24,-1
 262 285 l 1,25,-1
 181 285 l 1,15,-1
705 281 m 1,26,27
 675 247 675 247 642.5 212.5 c 128,-1,28
 610 178 610 178 580 144 c 1,29,-1
 705 144 l 1,30,-1
 705 281 l 1,26,27
EndSplineSet
Ligature2: "'frac' Diagonal Fractions in Latin lookup 0 subtable" one fraction four
Ligature2: "'frac' Diagonal Fractions in Latin lookup 0 subtable" one slash four
EndChar
StartChar: onehalf
Encoding: 189 189 127
Width: 1079
VWidth: 1533
Flags: W
HStem: -2 57<667 963> 386 34<693.742 809.236> 615 35<55 109.825> 685 20G<655.734 771>
VStem: 158 100<290 615> 854 100<228.222 346.845>
Fore
563 -2 m 1,0,1
 569 34 569 34 586 59 c 128,-1,2
 603 84 603 84 626 103.5 c 128,-1,3
 649 123 649 123 677 138 c 128,-1,4
 705 153 705 153 736 167 c 0,5,6
 748 173 748 173 759.5 178.5 c 128,-1,7
 771 184 771 184 783 192 c 0,8,9
 810 205 810 205 832 226.5 c 128,-1,10
 854 248 854 248 854 287 c 0,11,12
 854 322 854 322 829.5 354 c 128,-1,13
 805 386 805 386 756 386 c 0,14,15
 713 386 713 386 684.5 355.5 c 128,-1,16
 656 325 656 325 656 273 c 1,17,-1
 553 273 l 1,18,19
 566 350 566 350 623.5 385 c 128,-1,20
 681 420 681 420 756 420 c 0,21,22
 794 420 794 420 830 411.5 c 128,-1,23
 866 403 866 403 893.5 386.5 c 128,-1,24
 921 370 921 370 937.5 344.5 c 128,-1,25
 954 319 954 319 954 285 c 0,26,27
 954 253 954 253 937.5 228.5 c 128,-1,28
 921 204 921 204 895 185 c 128,-1,29
 869 166 869 166 837 151 c 128,-1,30
 805 136 805 136 773 123 c 0,31,32
 737 109 737 109 708 93.5 c 128,-1,33
 679 78 679 78 667 55 c 1,34,-1
 963 55 l 1,35,-1
 963 -2 l 1,36,-1
 563 -2 l 1,0,1
256 -17 m 1,37,-1
 155 -17 l 1,38,-1
 670 705 l 1,39,-1
 771 705 l 1,40,-1
 256 -17 l 1,37,-1
158 290 m 1,41,-1
 158 615 l 1,42,-1
 55 615 l 1,43,-1
 55 650 l 1,44,45
 89 650 89 650 110.5 652.5 c 128,-1,46
 132 655 132 655 145.5 661.5 c 128,-1,47
 159 668 159 668 168.5 680.5 c 128,-1,48
 178 693 178 693 189 714 c 1,49,-1
 258 714 l 1,50,-1
 258 290 l 1,51,-1
 158 290 l 1,41,-1
EndSplineSet
Ligature2: "'frac' Diagonal Fractions in Latin lookup 0 subtable" one fraction two
Ligature2: "'frac' Diagonal Fractions in Latin lookup 0 subtable" one slash two
EndChar
StartChar: threequarters
Encoding: 190 190 128
Width: 1079
VWidth: 1533
Flags: W
HStem: 0 21G<262 377.294 796 895> 100 44<670 796 895 972> 278 35<207.842 316.337> 672 35<209.236 316.113>
VStem: 81 100<578.37 644.35> 350 99<552.273 646.553> 374 98<354.211 459.634> 796 99<0 100 144 281>
Fore
972 100 m 1,0,-1
 895 100 l 1,1,-1
 895 0 l 1,2,-1
 796 0 l 1,3,-1
 796 100 l 1,4,-1
 581 100 l 1,5,-1
 563 121 l 1,6,-1
 849 423 l 1,7,-1
 895 423 l 1,8,-1
 895 144 l 1,9,-1
 995 144 l 1,10,-1
 972 100 l 1,0,-1
472 409 m 0,11,12
 472 374 472 374 453 349.5 c 128,-1,13
 434 325 434 325 404 309 c 128,-1,14
 374 293 374 293 335.5 285.5 c 128,-1,15
 297 278 297 278 259 278 c 0,16,17
 222 278 222 278 187.5 286 c 128,-1,18
 153 294 153 294 125.5 312.5 c 128,-1,19
 98 331 98 331 79.5 358.5 c 128,-1,20
 61 386 61 386 55 425 c 1,21,-1
 156 425 l 1,22,23
 158 373 158 373 187 343 c 128,-1,24
 216 313 216 313 259 313 c 0,25,26
 305 313 305 313 339.5 342 c 128,-1,27
 374 371 374 371 374 411 c 0,28,29
 374 449 374 449 341 467.5 c 128,-1,30
 308 486 308 486 259 486 c 0,31,32
 244 486 244 486 228 484.5 c 128,-1,33
 212 483 212 483 190 480 c 1,34,-1
 190 529 l 1,35,36
 267 517 267 517 308.5 539 c 128,-1,37
 350 561 350 561 350 596 c 0,38,39
 350 624 350 624 328.5 648 c 128,-1,40
 307 672 307 672 262 672 c 0,41,42
 225 672 225 672 204.5 645.5 c 128,-1,43
 184 619 184 619 181 572 c 1,44,-1
 81 572 l 1,45,46
 87 639 87 639 139.5 673 c 128,-1,47
 192 707 192 707 262 707 c 0,48,49
 299 707 299 707 332.5 701 c 128,-1,50
 366 695 366 695 392.5 681 c 128,-1,51
 419 667 419 667 434 646.5 c 128,-1,52
 449 626 449 626 449 596 c 128,-1,53
 449 566 449 566 429 544.5 c 128,-1,54
 409 523 409 523 380 511 c 1,55,-1
 379 511 l 1,56,57
 417 498 417 498 444.5 473.5 c 128,-1,58
 472 449 472 449 472 409 c 0,11,12
363 -17 m 1,59,-1
 262 -17 l 1,60,-1
 777 705 l 1,61,-1
 879 705 l 1,62,-1
 363 -17 l 1,59,-1
796 281 m 1,63,64
 765 247 765 247 733 212.5 c 128,-1,65
 701 178 701 178 670 144 c 1,66,-1
 796 144 l 1,67,-1
 796 281 l 1,63,64
EndSplineSet
Ligature2: "'frac' Diagonal Fractions in Latin lookup 0 subtable" three fraction four
Ligature2: "'frac' Diagonal Fractions in Latin lookup 0 subtable" three slash four
EndChar
StartChar: questiondown
Encoding: 191 191 129
Width: 547
VWidth: 1533
Flags: W
HStem: -152 31<229.654 361.693> 497 102<265.986 338.045>
VStem: 48 101<-19.783 118.844> 250 103<511.955 583.53> 293 23<356.317 408.273 408.273 457> 435 82<24.5874 77>
Fore
353 547 m 256,0,1
 353 526 353 526 338.5 511.5 c 128,-1,2
 324 497 324 497 302 497 c 256,3,4
 281 497 281 497 265.5 511.5 c 128,-1,5
 250 526 250 526 250 547 c 256,6,7
 250 569 250 569 265.5 584 c 128,-1,8
 281 599 281 599 302 599 c 256,9,10
 324 599 324 599 338.5 584 c 128,-1,11
 353 569 353 569 353 547 c 256,0,1
517 77 m 1,12,13
 517 -29 517 -29 453 -90.5 c 128,-1,14
 389 -152 389 -152 284 -152 c 0,15,16
 238 -152 238 -152 195.5 -139.5 c 128,-1,17
 153 -127 153 -127 120 -102 c 128,-1,18
 87 -77 87 -77 67.5 -39.5 c 128,-1,19
 48 -2 48 -2 48 49 c 0,20,21
 48 90 48 90 66 120 c 128,-1,22
 84 150 84 150 112 175.5 c 128,-1,23
 140 201 140 201 172.5 225.5 c 128,-1,24
 205 250 205 250 232 281.5 c 128,-1,25
 259 313 259 313 276.5 355 c 128,-1,26
 294 397 294 397 293 457 c 1,27,-1
 313 457 l 1,28,29
 314 440 314 440 315 424.5 c 128,-1,30
 316 409 316 409 316 392 c 0,31,32
 316 316 316 316 290 270 c 128,-1,33
 264 224 264 224 232.5 189.5 c 128,-1,34
 201 155 201 155 175 124.5 c 128,-1,35
 149 94 149 94 149 46 c 0,36,37
 149 11 149 11 156 -20 c 128,-1,38
 163 -51 163 -51 179 -73 c 128,-1,39
 195 -95 195 -95 221 -108 c 128,-1,40
 247 -121 247 -121 287 -121 c 0,41,42
 330 -121 330 -121 359 -104 c 128,-1,43
 388 -87 388 -87 405 -59 c 128,-1,44
 422 -31 422 -31 428.5 4.5 c 128,-1,45
 435 40 435 40 435 77 c 1,46,-1
 517 77 l 1,12,13
EndSplineSet
EndChar
StartChar: Aring
Encoding: 197 197 134
Width: 876
VWidth: 1533
Flags: W
HStem: 0 21G<0 95.3545 719.876 877> 347 76<325 497> 912 68<376.076 506.051>
VStem: 264 69<737.504 868.791> 549 69<737.414 868.791>
Fore
731 0 m 1,0,-1
 538 347 l 1,1,-1
 281 347 l 1,2,-1
 84 0 l 1,3,-1
 0 0 l 1,4,-1
 373 641 l 1,5,6
 324 661 324 661 294 704 c 128,-1,7
 264 747 264 747 264 802 c 0,8,9
 264 839 264 839 277.5 871 c 128,-1,10
 291 903 291 903 315.5 927.5 c 128,-1,11
 340 952 340 952 371.5 966 c 128,-1,12
 403 980 403 980 440 980 c 256,13,14
 477 980 477 980 510 966 c 128,-1,15
 543 952 543 952 566.5 927.5 c 128,-1,16
 590 903 590 903 604 871 c 128,-1,17
 618 839 618 839 618 802 c 0,18,19
 618 751 618 751 592 709.5 c 128,-1,20
 566 668 566 668 523 645 c 1,21,-1
 877 0 l 1,22,-1
 731 0 l 1,0,-1
549 802 m 0,23,24
 549 848 549 848 517.5 880 c 128,-1,25
 486 912 486 912 440 912 c 0,26,27
 396 912 396 912 364.5 880 c 128,-1,28
 333 848 333 848 333 802 c 0,29,30
 333 757 333 757 364.5 726 c 128,-1,31
 396 695 396 695 440 695 c 0,32,33
 486 695 486 695 517.5 726 c 128,-1,34
 549 757 549 757 549 802 c 0,23,24
412 581 m 1,35,-1
 325 423 l 1,36,-1
 497 423 l 1,37,-1
 412 581 l 1,35,-1
EndSplineSet
EndChar
StartChar: AE
Encoding: 198 198 135
Width: 1159
VWidth: 1533
Flags: W
HStem: 0 61<702 1144> 353 61<392 573 702 1035> 652 64<702 1144>
VStem: 573 129<61 353 414 638>
Fore
573 0 m 1,0,-1
 573 353 l 1,1,-1
 348 353 l 1,2,-1
 92 0 l 1,3,-1
 0 0 l 1,4,-1
 518 716 l 1,5,-1
 1144 716 l 1,6,-1
 1144 652 l 1,7,-1
 702 652 l 1,8,-1
 702 414 l 1,9,-1
 1035 414 l 1,10,-1
 1035 353 l 1,11,-1
 702 353 l 1,12,-1
 702 61 l 1,13,-1
 1144 61 l 1,14,-1
 1144 0 l 1,15,-1
 573 0 l 1,0,-1
573 638 m 1,16,-1
 553 638 l 1,17,-1
 392 414 l 1,18,-1
 573 414 l 1,19,-1
 573 638 l 1,16,-1
EndSplineSet
EndChar
StartChar: Eth
Encoding: 208 208 145
Width: 881
VWidth: 1533
Flags: W
HStem: 0 61<201 531.076> 353 61<-6 74 201 415> 653 61<201 533.094>
VStem: 74 127<61 353 414 653> 711 146<244.257 490.48>
Fore
857 379 m 0,0,1
 857 299 857 299 832.5 230 c 128,-1,2
 808 161 808 161 749.5 109.5 c 128,-1,3
 691 58 691 58 595.5 29 c 128,-1,4
 500 0 500 0 356 0 c 2,5,-1
 74 0 l 1,6,-1
 74 353 l 1,7,-1
 -6 353 l 1,8,-1
 -6 414 l 1,9,-1
 74 414 l 1,10,-1
 74 714 l 1,11,-1
 350 714 l 2,12,13
 488 714 488 714 583.5 689 c 128,-1,14
 679 664 679 664 740.5 618.5 c 128,-1,15
 802 573 802 573 829.5 512 c 128,-1,16
 857 451 857 451 857 379 c 0,0,1
711 379 m 0,17,18
 711 434 711 434 695 484 c 128,-1,19
 679 534 679 534 640 571.5 c 128,-1,20
 601 609 601 609 536 631 c 128,-1,21
 471 653 471 653 371 653 c 2,22,-1
 201 653 l 1,23,-1
 201 414 l 1,24,-1
 415 414 l 1,25,-1
 415 353 l 1,26,-1
 201 353 l 1,27,-1
 201 61 l 1,28,-1
 371 61 l 2,29,30
 469 61 469 61 535 83.5 c 128,-1,31
 601 106 601 106 640 147.5 c 128,-1,32
 679 189 679 189 695 248 c 128,-1,33
 711 307 711 307 711 379 c 0,17,18
EndSplineSet
EndChar
StartChar: multiply
Encoding: 215 215 152
Width: 703
VWidth: 1533
Flags: W
HStem: -6 21G<85.7879 128.217 574.696 617.515>
Fore
423 291 m 1,0,-1
 667 60 l 1,1,-1
 596 -6 l 1,2,-1
 351 224 l 1,3,-1
 107 -6 l 1,4,-1
 37 60 l 1,5,-1
 281 291 l 1,6,-1
 37 521 l 1,7,-1
 107 587 l 1,8,-1
 351 357 l 1,9,-1
 596 587 l 1,10,-1
 667 521 l 1,11,-1
 423 291 l 1,0,-1
EndSplineSet
EndChar
StartChar: Oslash
Encoding: 216 216 153
Width: 968
VWidth: 1533
Flags: W
HStem: -26 55<364.151 583.113> 684 55<362.392 584.508>
VStem: 34 145<241.227 474.708> 767 145<237.332 445.382>
Fore
791 622 m 1,0,1
 848 572 848 572 880 503.5 c 128,-1,2
 912 435 912 435 912 357 c 0,3,4
 912 278 912 278 877.5 208 c 128,-1,5
 843 138 843 138 783.5 86 c 128,-1,6
 724 34 724 34 644 4 c 128,-1,7
 564 -26 564 -26 472 -26 c 0,8,9
 403 -26 403 -26 342 -9 c 128,-1,10
 281 8 281 8 227 38 c 1,11,-1
 117 -75 l 1,12,-1
 15 -75 l 1,13,-1
 166 83 l 1,14,15
 104 135 104 135 69 204 c 128,-1,16
 34 273 34 273 34 356 c 0,17,18
 34 435 34 435 69 505 c 128,-1,19
 104 575 104 575 164 627 c 128,-1,20
 224 679 224 679 303.5 709 c 128,-1,21
 383 739 383 739 474 739 c 0,22,23
 547 739 547 739 612.5 720.5 c 128,-1,24
 678 702 678 702 731 667 c 1,25,-1
 852 791 l 1,26,-1
 954 791 l 1,27,-1
 791 622 l 1,0,1
673 607 m 1,28,29
 635 642 635 642 585 663 c 128,-1,30
 535 684 535 684 474 684 c 0,31,32
 406 684 406 684 352.5 658 c 128,-1,33
 299 632 299 632 260 587.5 c 128,-1,34
 221 543 221 543 200 483 c 128,-1,35
 179 423 179 423 179 356 c 0,36,37
 179 297 179 297 194.5 246 c 128,-1,38
 210 195 210 195 236 155 c 1,39,-1
 673 607 l 1,28,29
767 357 m 0,40,41
 767 411 767 411 754.5 459 c 128,-1,42
 742 507 742 507 718 547 c 1,43,-1
 284 98 l 1,44,45
 320 66 320 66 367.5 47.5 c 128,-1,46
 415 29 415 29 472 29 c 0,47,48
 538 29 538 29 592.5 54.5 c 128,-1,49
 647 80 647 80 686 124.5 c 128,-1,50
 725 169 725 169 746 228.5 c 128,-1,51
 767 288 767 288 767 357 c 0,40,41
EndSplineSet
EndChar
StartChar: Thorn
Encoding: 222 222 159
Width: 835
VWidth: 1533
Flags: W
HStem: 0 21G<109 241> 181 63<241 318.758 318.758 418.377> 544 62<241 287.627 287.627 367.807 367.807 415.596 415.596 417 453 507.973>
VStem: 109 132<0 181 244 544 606 745> 627 160<325.522 465.232>
Fore
787 399 m 0,0,1
 787 351 787 351 767 316.5 c 128,-1,2
 747 282 747 282 714 257.5 c 128,-1,3
 681 233 681 233 638.5 218.5 c 128,-1,4
 596 204 596 204 552 196 c 0,5,6
 474 182 474 182 396.5 180.5 c 128,-1,7
 319 179 319 179 241 181 c 1,8,-1
 241 0 l 1,9,-1
 109 0 l 1,10,-1
 109 745 l 1,11,-1
 239 745 l 1,12,-1
 239 606 l 1,13,14
 279 606 279 606 335.5 606.5 c 128,-1,15
 392 607 392 607 453 602.5 c 128,-1,16
 514 598 514 598 573.5 586.5 c 128,-1,17
 633 575 633 575 680.5 552 c 128,-1,18
 728 529 728 529 757.5 491.5 c 128,-1,19
 787 454 787 454 787 399 c 0,0,1
627 400 m 0,20,21
 627 448 627 448 594 477 c 128,-1,22
 561 506 561 506 514.5 520.5 c 128,-1,23
 468 535 468 535 417 539.5 c 128,-1,24
 366 544 366 544 330 544 c 2,25,-1
 241 544 l 1,26,-1
 241 244 l 1,27,-1
 325 244 l 2,28,29
 368 244 368 244 420 247.5 c 128,-1,30
 472 251 472 251 518 267.5 c 128,-1,31
 564 284 564 284 595.5 314.5 c 128,-1,32
 627 345 627 345 627 400 c 0,20,21
EndSplineSet
EndChar
StartChar: uni00DF
Encoding: 223 223 160
Width: 734
VWidth: 1533
Flags: W
HStem: -18 67<371.309 480.104> 751 60<272.811 415.704>
VStem: 74 125<-2 589.263> 483 146<547.997 692.772> 544 154<151.963 296.312>
Fore
698 218 m 0,0,1
 698 166 698 166 675.5 123 c 128,-1,2
 653 80 653 80 616.5 48.5 c 128,-1,3
 580 17 580 17 531.5 -0.5 c 128,-1,4
 483 -18 483 -18 432 -18 c 0,5,6
 397 -18 397 -18 352.5 -12 c 128,-1,7
 308 -6 308 -6 264 20 c 1,8,-1
 308 112 l 1,9,10
 331 83 331 83 361 66 c 128,-1,11
 391 49 391 49 422 49 c 0,12,13
 454 49 454 49 477 65 c 128,-1,14
 500 81 500 81 514.5 105.5 c 128,-1,15
 529 130 529 130 536.5 160 c 128,-1,16
 544 190 544 190 544 219 c 0,17,18
 544 314 544 314 490.5 360 c 128,-1,19
 437 406 437 406 319 388 c 1,20,-1
 319 474 l 1,21,22
 345 468 345 468 354 466.5 c 128,-1,23
 363 465 363 465 370 465 c 0,24,25
 437 465 437 465 460 497.5 c 128,-1,26
 483 530 483 530 483 598 c 256,27,28
 483 665 483 665 451.5 708 c 128,-1,29
 420 751 420 751 350 751 c 0,30,31
 304 751 304 751 274.5 732.5 c 128,-1,32
 245 714 245 714 228.5 683 c 128,-1,33
 212 652 212 652 205.5 612 c 128,-1,34
 199 572 199 572 199 529 c 2,35,-1
 199 -2 l 1,36,-1
 74 -2 l 1,37,-1
 74 524 l 2,38,39
 74 584 74 584 90.5 637 c 128,-1,40
 107 690 107 690 141.5 728.5 c 128,-1,41
 176 767 176 767 228.5 789 c 128,-1,42
 281 811 281 811 350 811 c 0,43,44
 397 811 397 811 446 800.5 c 128,-1,45
 495 790 495 790 535.5 766 c 128,-1,46
 576 742 576 742 602.5 702 c 128,-1,47
 629 662 629 662 629 604 c 0,48,49
 629 573 629 573 618 546.5 c 128,-1,50
 607 520 607 520 589.5 498.5 c 128,-1,51
 572 477 572 477 548 461.5 c 128,-1,52
 524 446 524 446 497 440 c 1,53,54
 535 431 535 431 571 409.5 c 128,-1,55
 607 388 607 388 635.5 358 c 128,-1,56
 664 328 664 328 681 292 c 128,-1,57
 698 256 698 256 698 218 c 0,0,1
EndSplineSet
EndChar
StartChar: ae
Encoding: 230 230 167
Width: 1157
VWidth: 1533
Flags: W
HStem: -17 60<221.43 351.601 732.607 892.613> 317 58<339.896 441.154 441.154 484> 356 61<641 963> 538 63<260.743 406.055 709.409 880.89>
VStem: 31 135<96.7847 239.441> 484 129<219.127 316.535>
Fore
1119 232 m 1,0,1
 1093 118 1093 118 1013.5 50 c 128,-1,2
 934 -18 934 -18 811 -18 c 0,3,4
 733 -18 733 -18 656.5 18 c 128,-1,5
 580 54 580 54 534 127 c 1,6,7
 509 87 509 87 482 59.5 c 128,-1,8
 455 32 455 32 423 15 c 128,-1,9
 391 -2 391 -2 352 -9.5 c 128,-1,10
 313 -17 313 -17 264 -17 c 0,11,12
 218 -17 218 -17 175.5 -6 c 128,-1,13
 133 5 133 5 101 27 c 128,-1,14
 69 49 69 49 50 85 c 128,-1,15
 31 121 31 121 31 172 c 256,16,17
 31 222 31 222 54 257.5 c 128,-1,18
 77 293 77 293 114.5 316 c 128,-1,19
 152 339 152 339 200 351 c 128,-1,20
 248 363 248 363 299 368.5 c 128,-1,21
 350 374 350 374 398 375 c 128,-1,22
 446 376 446 376 484 376 c 1,23,-1
 484 379 l 2,24,25
 484 454 484 454 447.5 496 c 128,-1,26
 411 538 411 538 331 538 c 0,27,28
 287 538 287 538 248 507.5 c 128,-1,29
 209 477 209 477 196 426 c 1,30,-1
 67 426 l 1,31,32
 101 524 101 524 171 562.5 c 128,-1,33
 241 601 241 601 331 601 c 0,34,35
 362 601 362 601 393.5 597 c 128,-1,36
 425 593 425 593 455.5 581 c 128,-1,37
 486 569 486 569 514.5 544.5 c 128,-1,38
 543 520 543 520 567 478 c 1,39,40
 616 543 616 543 673.5 572 c 128,-1,41
 731 601 731 601 797 601 c 0,42,43
 1058 601 1058 601 1116 356 c 1,44,-1
 619 356 l 1,45,46
 616 342 616 342 614.5 320.5 c 128,-1,47
 613 299 613 299 613 285 c 0,48,49
 613 238 613 238 627 193.5 c 128,-1,50
 641 149 641 149 667 115 c 128,-1,51
 693 81 693 81 733 61 c 128,-1,52
 773 41 773 41 825 41 c 0,53,54
 860 41 860 41 889 57.5 c 128,-1,55
 918 74 918 74 940.5 100 c 128,-1,56
 963 126 963 126 976 160.5 c 128,-1,57
 989 195 989 195 992 232 c 1,58,-1
 1119 232 l 1,0,1
963 417 m 1,59,60
 941 468 941 468 900 504 c 128,-1,61
 859 540 859 540 797 540 c 0,62,63
 733 540 733 540 691 504 c 128,-1,64
 649 468 649 468 641 417 c 1,65,-1
 963 417 l 1,59,60
484 317 m 1,66,-1
 397 317 l 2,67,68
 354 317 354 317 312.5 309.5 c 128,-1,69
 271 302 271 302 238 284.5 c 128,-1,70
 205 267 205 267 185.5 238.5 c 128,-1,71
 166 210 166 210 166 170 c 0,72,73
 166 117 166 117 201 80 c 128,-1,74
 236 43 236 43 294 43 c 0,75,76
 343 43 343 43 379 61.5 c 128,-1,77
 415 80 415 80 438 110.5 c 128,-1,78
 461 141 461 141 472.5 181.5 c 128,-1,79
 484 222 484 222 484 267 c 2,80,-1
 484 317 l 1,66,-1
EndSplineSet
EndChar
StartChar: eth
Encoding: 240 240 177
Width: 634
VWidth: 1533
Flags: W
HStem: -12 52<234.68 404.572> 455 52<233.784 378.124> 716 20G<400.483 455.02>
VStem: 28 113<171.05 324.102> 495 114<166.393 328.003>
Fore
317 -12 m 256,0,1
 258 -12 258 -12 205.5 6.5 c 128,-1,2
 153 25 153 25 113.5 57.5 c 128,-1,3
 74 90 74 90 51 138.5 c 128,-1,4
 28 187 28 187 28 247 c 256,5,6
 28 307 28 307 51 355 c 128,-1,7
 74 403 74 403 113 437 c 128,-1,8
 152 471 152 471 205.5 489 c 128,-1,9
 259 507 259 507 319 507 c 0,10,11
 337 507 337 507 359.5 504 c 128,-1,12
 382 501 382 501 411 488 c 1,13,14
 389 523 389 523 364.5 549 c 128,-1,15
 340 575 340 575 297 610 c 1,16,-1
 113 523 l 1,17,-1
 89 575 l 1,18,-1
 242 647 l 1,19,20
 221 661 221 661 187 678.5 c 128,-1,21
 153 696 153 696 97 716 c 1,22,-1
 117 765 l 1,23,24
 176 744 176 744 224.5 724 c 128,-1,25
 273 704 273 704 314 678 c 1,26,-1
 446 736 l 1,27,-1
 469 685 l 1,28,-1
 377 644 l 1,29,30
 411 618 411 618 451.5 579 c 128,-1,31
 492 540 492 540 527.5 493 c 128,-1,32
 563 446 563 446 586 395.5 c 128,-1,33
 609 345 609 345 609 296 c 0,34,35
 609 219 609 219 586 161.5 c 128,-1,36
 563 104 563 104 523.5 66 c 128,-1,37
 484 28 484 28 430.5 8 c 128,-1,38
 377 -12 377 -12 317 -12 c 256,0,1
319 455 m 256,39,40
 273 455 273 455 239 439 c 128,-1,41
 205 423 205 423 183 395.5 c 128,-1,42
 161 368 161 368 151 329.5 c 128,-1,43
 141 291 141 291 141 248 c 0,44,45
 141 204 141 204 152 166.5 c 128,-1,46
 163 129 163 129 184 100.5 c 128,-1,47
 205 72 205 72 239.5 56 c 128,-1,48
 274 40 274 40 320 40 c 256,49,50
 366 40 366 40 400 56 c 128,-1,51
 434 72 434 72 454.5 100.5 c 128,-1,52
 475 129 475 129 485 166.5 c 128,-1,53
 495 204 495 204 495 247 c 256,54,55
 495 290 495 290 485 328 c 128,-1,56
 475 366 475 366 453.5 394.5 c 128,-1,57
 432 423 432 423 398.5 439 c 128,-1,58
 365 455 365 455 319 455 c 256,39,40
EndSplineSet
EndChar
StartChar: divide
Encoding: 247 247 184
Width: 702
VWidth: 1533
Flags: W
HStem: -21 170<293.398 406.033> 262 80<44 658> 432 171<294.997 406.033>
VStem: 265 170<7.39221 120.275 460.725 573.225>
Fore
435 518 m 256,0,1
 435 483 435 483 410 457.5 c 128,-1,2
 385 432 385 432 350 432 c 256,3,4
 314 432 314 432 289.5 457.5 c 128,-1,5
 265 483 265 483 265 518 c 256,6,7
 265 553 265 553 291 578 c 128,-1,8
 317 603 317 603 350 603 c 0,9,10
 385 603 385 603 410 578 c 128,-1,11
 435 553 435 553 435 518 c 256,0,1
44 262 m 1,12,-1
 44 342 l 1,13,-1
 658 342 l 1,14,-1
 658 262 l 1,15,-1
 44 262 l 1,12,-1
435 63 m 256,16,17
 435 28 435 28 410 3.5 c 128,-1,18
 385 -21 385 -21 350 -21 c 256,19,20
 314 -21 314 -21 289.5 4 c 128,-1,21
 265 29 265 29 265 63 c 0,22,23
 265 98 265 98 289.5 123.5 c 128,-1,24
 314 149 314 149 350 149 c 256,25,26
 385 149 385 149 410 123.5 c 128,-1,27
 435 98 435 98 435 63 c 256,16,17
EndSplineSet
EndChar
StartChar: oslash
Encoding: 248 248 185
Width: 732
VWidth: 1533
Flags: W
HStem: -15 55<282.041 472.184> 494 53<279.798 469.637>
VStem: 54 122<158.814 376.426> 575 121<155.885 373.038>
Fore
621 455 m 1,0,1
 656 420 656 420 676 372 c 128,-1,2
 696 324 696 324 696 265 c 0,3,4
 696 199 696 199 670.5 147 c 128,-1,5
 645 95 645 95 601.5 59 c 128,-1,6
 558 23 558 23 500 4 c 128,-1,7
 442 -15 442 -15 376 -15 c 0,8,9
 261 -15 261 -15 179 38 c 1,10,-1
 89 -48 l 1,11,-1
 0 -48 l 1,12,-1
 130 75 l 1,13,14
 95 112 95 112 74.5 159.5 c 128,-1,15
 54 207 54 207 54 265 c 0,16,17
 54 331 54 331 79 383 c 128,-1,18
 104 435 104 435 148 472 c 128,-1,19
 192 509 192 509 250 528 c 128,-1,20
 308 547 308 547 376 547 c 0,21,22
 489 547 489 547 572 495 c 1,23,-1
 659 578 l 1,24,-1
 750 578 l 1,25,-1
 621 455 l 1,0,1
515 440 m 1,26,27
 461 494 461 494 376 494 c 0,28,29
 287 494 287 494 231.5 437 c 128,-1,30
 176 380 176 380 176 267 c 0,31,32
 176 193 176 193 202 144 c 1,33,-1
 515 440 l 1,26,27
575 265 m 0,34,35
 575 340 575 340 550 388 c 1,36,-1
 238 94 l 1,37,38
 291 40 291 40 377 40 c 0,39,40
 465 40 465 40 520 96.5 c 128,-1,41
 575 153 575 153 575 265 c 0,34,35
EndSplineSet
EndChar
StartChar: thorn
Encoding: 254 254 191
Width: 786
VWidth: 1533
Flags: W
HStem: -32 61<321.415 484.784> 560 62<321.46 485.299>
VStem: 69 112<507 961> 69 120<-225 77 195.502 399.014> 619 137<185.123 407.324>
Fore
756 294 m 0,0,1
 756 221 756 221 730 160.5 c 128,-1,2
 704 100 704 100 659.5 57 c 128,-1,3
 615 14 615 14 553.5 -9 c 128,-1,4
 492 -32 492 -32 422 -32 c 0,5,6
 345 -32 345 -32 286 -1.5 c 128,-1,7
 227 29 227 29 189 77 c 1,8,-1
 189 -225 l 1,9,-1
 69 -225 l 1,10,-1
 69 961 l 1,11,-1
 181 961 l 1,12,-1
 181 507 l 1,13,14
 216 561 216 561 279.5 591.5 c 128,-1,15
 343 622 343 622 422 622 c 0,16,17
 492 622 492 622 553.5 596 c 128,-1,18
 615 570 615 570 660 525.5 c 128,-1,19
 705 481 705 481 730.5 421.5 c 128,-1,20
 756 362 756 362 756 294 c 0,0,1
619 297 m 128,-1,22
 619 356 619 356 601 404 c 128,-1,23
 583 452 583 452 553 486.5 c 128,-1,24
 523 521 523 521 484 540.5 c 128,-1,25
 445 560 445 560 402 560 c 0,26,27
 360 560 360 560 321 539 c 128,-1,28
 282 518 282 518 253 483 c 128,-1,29
 224 448 224 448 206.5 400.5 c 128,-1,30
 189 353 189 353 189 297 c 256,31,32
 189 242 189 242 206.5 194 c 128,-1,33
 224 146 224 146 253 109 c 128,-1,34
 282 72 282 72 321 50.5 c 128,-1,35
 360 29 360 29 402 29 c 256,36,37
 443 29 443 29 483 48 c 128,-1,38
 523 67 523 67 553 103.5 c 128,-1,39
 583 140 583 140 601 189 c 128,-1,21
 619 238 619 238 619 297 c 128,-1,22
EndSplineSet
EndChar
StartChar: Lslash
Encoding: 321 321 193
Width: 708
VWidth: 1533
Flags: W
HStem: 0 61<199 645> 694 20G<74 199>
VStem: 74 125<61 714>
Fore
74 0 m 1,0,-1
 74 714 l 1,1,-1
 199 714 l 1,2,-1
 199 61 l 1,3,-1
 645 61 l 1,4,-1
 645 0 l 1,5,-1
 74 0 l 1,0,-1
18 308 m 1,6,-1
 18 354 l 1,7,-1
 417 503 l 1,8,-1
 417 457 l 1,9,-1
 18 308 l 1,6,-1
EndSplineSet
EndChar
StartChar: lslash
Encoding: 322 322 194
Width: 325
VWidth: 1533
Flags: W
HStem: 0 21G<110 236> 694 20G<110 236>
VStem: 44 249<377 517 377 377> 110 126<0 714>
Fore
44 377 m 1,0,-1
 44 423 l 1,1,-1
 293 517 l 1,2,-1
 293 471 l 1,3,-1
 44 377 l 1,0,-1
110 0 m 1,4,-1
 110 714 l 1,5,-1
 236 714 l 1,6,-1
 236 0 l 1,7,-1
 110 0 l 1,4,-1
EndSplineSet
EndChar
StartChar: OE
Encoding: 338 338 195
Width: 1344
VWidth: 1533
Flags: W
HStem: -26 55<336.257 555.73> 0 61<845 1331> 351 63<843 1222> 653 63<843 1331> 684 55<339.518 557.461>
VStem: 29 146<230.102 480.897> 718 125<61 83 207.174 351 414 507.311 635 653>
Fore
718 0 m 1,0,-1
 718 83 l 1,1,2
 664 34 664 34 596.5 4 c 128,-1,3
 529 -26 529 -26 446 -26 c 0,4,5
 356 -26 356 -26 279 4 c 128,-1,6
 202 34 202 34 147 85 c 128,-1,7
 92 136 92 136 60.5 206 c 128,-1,8
 29 276 29 276 29 356 c 256,9,10
 29 435 29 435 60.5 505 c 128,-1,11
 92 575 92 575 148 627 c 128,-1,12
 204 679 204 679 280.5 709 c 128,-1,13
 357 739 357 739 448 739 c 0,14,15
 609 739 609 739 718 635 c 1,16,-1
 718 716 l 1,17,-1
 1331 716 l 1,18,-1
 1331 653 l 1,19,-1
 843 653 l 1,20,-1
 843 414 l 1,21,-1
 1222 414 l 1,22,-1
 1222 351 l 1,23,-1
 843 351 l 1,24,-1
 845 61 l 1,25,-1
 1331 61 l 1,26,-1
 1331 0 l 1,27,-1
 718 0 l 1,0,-1
718 394 m 2,28,29
 718 455 718 455 698.5 509 c 128,-1,30
 679 563 679 563 644.5 601 c 128,-1,31
 610 639 610 639 559.5 661.5 c 128,-1,32
 509 684 509 684 448 684 c 0,33,34
 380 684 380 684 329.5 658 c 128,-1,35
 279 632 279 632 244.5 587.5 c 128,-1,36
 210 543 210 543 192.5 483 c 128,-1,37
 175 423 175 423 175 356 c 0,38,39
 175 287 175 287 192.5 228 c 128,-1,40
 210 169 210 169 244 124.5 c 128,-1,41
 278 80 278 80 328.5 54.5 c 128,-1,42
 379 29 379 29 446 29 c 0,43,44
 507 29 507 29 558 51.5 c 128,-1,45
 609 74 609 74 644 113 c 128,-1,46
 679 152 679 152 698.5 205.5 c 128,-1,47
 718 259 718 259 718 320 c 2,48,-1
 718 394 l 2,28,29
EndSplineSet
EndChar
StartChar: oe
Encoding: 339 339 196
Width: 1090
VWidth: 1533
Flags: W
HStem: -15 59<238.807 403.917 712.645 851.632> 310 60<636 923> 488 59<238.323 403.568 699.574 856.341>
VStem: 28 119<186.538 346.035> 495 118<218.549 273.758 273.758 309.594> 943 107<148.62 215>
Fore
613 310 m 1,0,1
 612 297 612 297 612.5 285.5 c 128,-1,2
 613 274 613 274 613 262 c 0,3,4
 613 222 613 222 624.5 183 c 128,-1,5
 636 144 636 144 658.5 113.5 c 128,-1,6
 681 83 681 83 714 63.5 c 128,-1,7
 747 44 747 44 791 44 c 0,8,9
 820 44 820 44 845.5 58 c 128,-1,10
 871 72 871 72 891.5 95 c 128,-1,11
 912 118 912 118 925 148.5 c 128,-1,12
 938 179 938 179 943 215 c 1,13,-1
 1050 215 l 1,14,15
 1047 158 1047 158 1024 114.5 c 128,-1,16
 1001 71 1001 71 965 41.5 c 128,-1,17
 929 12 929 12 883 -2.5 c 128,-1,18
 837 -17 837 -17 791 -17 c 0,19,20
 719 -17 719 -17 654.5 17.5 c 128,-1,21
 590 52 590 52 553 115 c 1,22,23
 517 49 517 49 453 17 c 128,-1,24
 389 -15 389 -15 320 -15 c 0,25,26
 253 -15 253 -15 199.5 6.5 c 128,-1,27
 146 28 146 28 107.5 66 c 128,-1,28
 69 104 69 104 48.5 154.5 c 128,-1,29
 28 205 28 205 28 265 c 256,30,31
 28 325 28 325 48.5 376.5 c 128,-1,32
 69 428 69 428 106.5 466 c 128,-1,33
 144 504 144 504 198.5 525.5 c 128,-1,34
 253 547 253 547 320 547 c 0,35,36
 389 547 389 547 449 522.5 c 128,-1,37
 509 498 509 498 552 431 c 1,38,39
 590 489 590 489 650 519.5 c 128,-1,40
 710 550 710 550 779 550 c 0,41,42
 833 550 833 550 880.5 535.5 c 128,-1,43
 928 521 928 521 964.5 491 c 128,-1,44
 1001 461 1001 461 1025.5 416 c 128,-1,45
 1050 371 1050 371 1056 310 c 1,46,-1
 613 310 l 1,0,1
773 492 m 0,47,48
 725 492 725 492 685 457 c 128,-1,49
 645 422 645 422 636 370 c 1,50,-1
 923 370 l 1,51,52
 908 431 908 431 866.5 461.5 c 128,-1,53
 825 492 825 492 773 492 c 0,47,48
320 488 m 256,54,55
 273 488 273 488 240 469.5 c 128,-1,56
 207 451 207 451 186.5 421 c 128,-1,57
 166 391 166 391 156.5 350.5 c 128,-1,58
 147 310 147 310 147 267 c 256,59,60
 147 224 147 224 156.5 184 c 128,-1,61
 166 144 166 144 186.5 112.5 c 128,-1,62
 207 81 207 81 240.5 62.5 c 128,-1,63
 274 44 274 44 322 44 c 256,64,65
 370 44 370 44 402.5 62.5 c 128,-1,66
 435 81 435 81 456 112 c 128,-1,67
 477 143 477 143 486 182.5 c 128,-1,68
 495 222 495 222 495 265 c 256,69,70
 495 308 495 308 486 348.5 c 128,-1,71
 477 389 477 389 456 420 c 128,-1,72
 435 451 435 451 401.5 469.5 c 128,-1,73
 368 488 368 488 320 488 c 256,54,55
EndSplineSet
EndChar
StartChar: florin
Encoding: 402 402 202
Width: 763
VWidth: 1533
Flags: W
HStem: -222 59<122.813 234.694> 446 52<262 350 478 572> 724 66<533.507 640.249>
Fore
645 650 m 1,0,1
 636 679 636 679 620 701.5 c 128,-1,2
 604 724 604 724 581 724 c 0,3,4
 549 724 549 724 530 698 c 128,-1,5
 511 672 511 672 500 635 c 128,-1,6
 489 598 489 598 485 559.5 c 128,-1,7
 481 521 481 521 478 498 c 1,8,-1
 589 498 l 1,9,-1
 572 446 l 1,10,-1
 472 446 l 1,11,-1
 419 35 l 2,12,13
 411 -20 411 -20 385.5 -67.5 c 128,-1,14
 360 -115 360 -115 322 -149.5 c 128,-1,15
 284 -184 284 -184 233 -203 c 128,-1,16
 182 -222 182 -222 123 -222 c 0,17,18
 87 -222 87 -222 59.5 -195.5 c 128,-1,19
 32 -169 32 -169 15 -129 c 1,20,-1
 129 -104 l 1,21,22
 138 -129 138 -129 158 -146 c 128,-1,23
 178 -163 178 -163 199 -163 c 0,24,25
 222 -163 222 -163 238.5 -145 c 128,-1,26
 255 -127 255 -127 265.5 -102 c 128,-1,27
 276 -77 276 -77 281.5 -51 c 128,-1,28
 287 -25 287 -25 290 -6 c 2,29,-1
 350 446 l 1,30,-1
 245 446 l 1,31,-1
 262 498 l 1,32,-1
 354 498 l 1,33,34
 362 550 362 550 381 602.5 c 128,-1,35
 400 655 400 655 433 696 c 128,-1,36
 466 737 466 737 514.5 763.5 c 128,-1,37
 563 790 563 790 630 790 c 0,38,39
 661 790 661 790 695.5 763.5 c 128,-1,40
 730 737 730 737 756 704 c 1,41,-1
 645 650 l 1,0,1
EndSplineSet
EndChar
StartChar: circumflex
Encoding: 710 710 203
Width: 674
VWidth: 1533
Flags: W
HStem: 679 186<304 460 304 304>
VStem: 159 362<679 679 679 679>
Fore
460 679 m 1,0,-1
 340 780 l 1,1,-1
 221 679 l 1,2,-1
 159 679 l 1,3,-1
 304 865 l 1,4,-1
 379 865 l 1,5,-1
 521 679 l 1,6,-1
 460 679 l 1,0,-1
EndSplineSet
EndChar
StartChar: caron
Encoding: 711 711 204
Width: 343
VWidth: 1533
Flags: W
HStem: 642 186<-28 210 -28 -28>
VStem: -28 393<828 828 828 828>
Fore
210 642 m 1,0,-1
 129 642 l 1,1,-1
 -28 828 l 1,2,-1
 40 828 l 1,3,-1
 169 727 l 1,4,-1
 301 828 l 1,5,-1
 365 828 l 1,6,-1
 210 642 l 1,0,-1
EndSplineSet
EndChar
StartChar: breve
Encoding: 728 728 205
Width: 338
VWidth: 1533
Flags: W
HStem: 641 64<95.1765 238.122>
VStem: -3 342<782 817 817 817 817 817>
Fore
339 817 m 1,0,1
 337 782 337 782 325.5 750 c 128,-1,2
 314 718 314 718 292.5 693 c 128,-1,3
 271 668 271 668 240 654.5 c 128,-1,4
 209 641 209 641 167 641 c 256,5,6
 126 641 126 641 94.5 654.5 c 128,-1,7
 63 668 63 668 42 693 c 128,-1,8
 21 718 21 718 9.5 750 c 128,-1,9
 -2 782 -2 782 -3 817 c 1,10,-1
 49 817 l 1,11,12
 61 764 61 764 87 734.5 c 128,-1,13
 113 705 113 705 167 705 c 256,14,15
 221 705 221 705 247 735 c 128,-1,16
 273 765 273 765 285 817 c 1,17,-1
 339 817 l 1,0,1
EndSplineSet
EndChar
StartChar: dotaccent
Encoding: 729 729 206
Width: 280
VWidth: 1533
Flags: W
HStem: 627 140<97.0797 187.827>
VStem: 69 141<681 743.792>
Fore
210 696 m 256,0,1
 210 665 210 665 188.5 646 c 128,-1,2
 167 627 167 627 140 627 c 0,3,4
 115 627 115 627 96.5 642.5 c 128,-1,5
 78 658 78 658 72 681 c 1,6,-1
 69 681 l 1,7,8
 69 722 69 722 89 744.5 c 128,-1,9
 109 767 109 767 140 767 c 256,10,11
 170 767 170 767 190 747 c 128,-1,12
 210 727 210 727 210 696 c 256,0,1
EndSplineSet
EndChar
StartChar: ring
Encoding: 730 730 207
Width: 280
VWidth: 1533
Flags: W
HStem: 630 60<94.7977 186.271> 819 60<95.5726 186.185>
VStem: 17 60<707.921 800.507> 204 61<708.179 800.507>
Fore
265 754 m 0,0,1
 265 701 265 701 229 665.5 c 128,-1,2
 193 630 193 630 141 630 c 256,3,4
 89 630 89 630 53 665.5 c 128,-1,5
 17 701 17 701 17 754 c 0,6,7
 17 806 17 806 52 842.5 c 128,-1,8
 87 879 87 879 141 879 c 256,9,10
 195 879 195 879 230 842.5 c 128,-1,11
 265 806 265 806 265 754 c 0,0,1
204 754 m 256,12,13
 204 780 204 780 185.5 799.5 c 128,-1,14
 167 819 167 819 141 819 c 256,15,16
 115 819 115 819 96 799.5 c 128,-1,17
 77 780 77 780 77 754 c 0,18,19
 77 727 77 727 96 708.5 c 128,-1,20
 115 690 115 690 141 690 c 256,21,22
 167 690 167 690 185.5 709 c 128,-1,23
 204 728 204 728 204 754 c 256,12,13
EndSplineSet
EndChar
StartChar: ogonek
Encoding: 731 731 208
Width: 280
VWidth: 1533
Flags: W
HStem: -255 59<98.1738 194.935>
VStem: -12 102<-188.9 -87.3467>
Fore
282 -181 m 1,0,1
 238 -215 238 -215 193.5 -235 c 128,-1,2
 149 -255 149 -255 100 -255 c 0,3,4
 54 -255 54 -255 21 -225.5 c 128,-1,5
 -12 -196 -12 -196 -12 -147 c 0,6,7
 -12 -107 -12 -107 15.5 -77.5 c 128,-1,8
 43 -48 43 -48 83.5 -26.5 c 128,-1,9
 124 -5 124 -5 168.5 9 c 128,-1,10
 213 23 213 23 248 31 c 1,11,-1
 268 3 l 1,12,13
 245 -6 245 -6 214.5 -19 c 128,-1,14
 184 -32 184 -32 156.5 -49 c 128,-1,15
 129 -66 129 -66 109.5 -88 c 128,-1,16
 90 -110 90 -110 90 -138 c 0,17,18
 90 -196 90 -196 141 -196 c 0,19,20
 164 -196 164 -196 200 -179.5 c 128,-1,21
 236 -163 236 -163 259 -140 c 1,22,-1
 282 -181 l 1,0,1
EndSplineSet
EndChar
StartChar: tilde
Encoding: 732 732 209
Width: 360
VWidth: 1533
Flags: W
HStem: 681 61<223.31 293.984> 681 118<-3 362 362 362> 731 62<65.9925 136.849>
Fore
362 799 m 1,0,1
 354 750 354 750 324 715.5 c 128,-1,2
 294 681 294 681 241 681 c 0,3,4
 216 681 216 681 197 688.5 c 128,-1,5
 178 696 178 696 161 706 c 128,-1,6
 144 716 144 716 128.5 723.5 c 128,-1,7
 113 731 113 731 98 731 c 0,8,9
 81 731 81 731 69 717.5 c 128,-1,10
 57 704 57 704 48 681 c 1,11,-1
 -3 681 l 1,12,13
 5 724 5 724 35.5 758.5 c 128,-1,14
 66 793 66 793 118 793 c 0,15,16
 141 793 141 793 161 785 c 128,-1,17
 181 777 181 777 198.5 767 c 128,-1,18
 216 757 216 757 232 749.5 c 128,-1,19
 248 742 248 742 262 742 c 0,20,21
 281 742 281 742 292.5 758 c 128,-1,22
 304 774 304 774 314 799 c 1,23,-1
 362 799 l 1,0,1
EndSplineSet
EndChar
StartChar: hungarumlaut
Encoding: 733 733 210
Width: 280
VWidth: 1533
Flags: W
HStem: 650 195<153 281 281 281>
VStem: -32 354<650 811 650 650>
Fore
322 811 m 0,0,1
 322 793 322 793 305 776 c 2,2,-1
 153 650 l 1,3,-1
 118 650 l 1,4,-1
 232 814 l 2,5,6
 241 828 241 828 251.5 836.5 c 128,-1,7
 262 845 262 845 281 845 c 0,8,9
 296 845 296 845 309 835.5 c 128,-1,10
 322 826 322 826 322 811 c 0,0,1
172 811 m 1,11,12
 172 793 172 793 155 776 c 2,13,-1
 3 650 l 1,14,-1
 -32 650 l 1,15,-1
 81 814 l 2,16,17
 90 828 90 828 101 836.5 c 128,-1,18
 112 845 112 845 130 845 c 0,19,20
 146 845 146 845 158 835.5 c 128,-1,21
 170 826 170 826 170 811 c 1,22,-1
 172 811 l 1,11,12
EndSplineSet
EndChar
StartChar: uni0E01
Encoding: 3585 3585 212
Width: 732
VWidth: 1533
Flags: W
HStem: 0 21G<77 199 534 656> 570 54<255.139 437.424>
VStem: 77 122<0 291.521> 534 122<0 503.197>
Fore
534 0 m 1,0,-1
 534 429 l 2,1,2
 534 497 534 497 484.5 533.5 c 128,-1,3
 435 570 435 570 357 570 c 256,4,5
 279 570 279 570 225.5 530.5 c 128,-1,6
 172 491 172 491 172 422 c 1,7,-1
 268 422 l 1,8,-1
 268 382 l 1,9,10
 199 356 199 356 199 282 c 2,11,-1
 199 0 l 1,12,-1
 77 0 l 1,13,-1
 77 268 l 2,14,15
 77 285 77 285 84.5 303.5 c 128,-1,16
 92 322 92 322 106 337.5 c 128,-1,17
 120 353 120 353 140.5 364.5 c 128,-1,18
 161 376 161 376 187 380 c 1,19,-1
 41 380 l 1,20,21
 46 440 46 440 73 486 c 128,-1,22
 100 532 100 532 142 562.5 c 128,-1,23
 184 593 184 593 239 608.5 c 128,-1,24
 294 624 294 624 357 624 c 0,25,26
 414 624 414 624 468.5 611.5 c 128,-1,27
 523 599 523 599 564.5 574 c 128,-1,28
 606 549 606 549 631 509 c 128,-1,29
 656 469 656 469 656 414 c 2,30,-1
 656 0 l 1,31,-1
 534 0 l 1,0,-1
EndSplineSet
EndChar
StartChar: uni0E02
Encoding: 3586 3586 213
Width: 731
VWidth: 1533
Flags: W
HStem: 0 61<265 530> 281 55<119.785 219.413> 501 46<138.887 194.267> 572 52<161.756 290.086>
VStem: 8 73<366.254 473.198> 143 122<61 202> 247 58<363.745 457.311> 366 83<336.826 476.758> 530 123<61 613>
Fore
143 0 m 1,0,-1
 143 209 l 1,1,2
 172 215 172 215 211 230 c 128,-1,3
 250 245 250 245 284.5 271 c 128,-1,4
 319 297 319 297 342.5 333.5 c 128,-1,5
 366 370 366 370 366 417 c 0,6,7
 366 443 366 443 358 470.5 c 128,-1,8
 350 498 350 498 331.5 520.5 c 128,-1,9
 313 543 313 543 284 557.5 c 128,-1,10
 255 572 255 572 213 572 c 0,11,12
 187 572 187 572 165.5 563.5 c 128,-1,13
 144 555 144 555 138 547 c 1,14,15
 178 550 178 550 209.5 539.5 c 128,-1,16
 241 529 241 529 262.5 510 c 128,-1,17
 284 491 284 491 294.5 464.5 c 128,-1,18
 305 438 305 438 305 411 c 0,19,20
 305 357 305 357 263.5 319 c 128,-1,21
 222 281 222 281 164 281 c 0,22,23
 135 281 135 281 107.5 291 c 128,-1,24
 80 301 80 301 57.5 320 c 128,-1,25
 35 339 35 339 21.5 368 c 128,-1,26
 8 397 8 397 8 437 c 0,27,28
 8 475 8 475 24.5 509.5 c 128,-1,29
 41 544 41 544 70.5 569.5 c 128,-1,30
 100 595 100 595 139.5 609.5 c 128,-1,31
 179 624 179 624 227 624 c 256,32,33
 274 624 274 624 315.5 608.5 c 128,-1,34
 357 593 357 593 386 566.5 c 128,-1,35
 415 540 415 540 432 504 c 128,-1,36
 449 468 449 468 449 426 c 0,37,38
 449 374 449 374 429 335.5 c 128,-1,39
 409 297 409 297 381 270.5 c 128,-1,40
 353 244 353 244 320.5 227 c 128,-1,41
 288 210 288 210 265 202 c 1,42,-1
 265 61 l 1,43,-1
 530 61 l 1,44,-1
 530 613 l 1,45,-1
 653 613 l 1,46,-1
 653 0 l 1,47,-1
 143 0 l 1,0,-1
247 419 m 256,48,49
 247 452 247 452 222.5 476.5 c 128,-1,50
 198 501 198 501 164 501 c 256,51,52
 130 501 130 501 105.5 476.5 c 128,-1,53
 81 452 81 452 81 419 c 256,54,55
 81 385 81 385 105.5 360.5 c 128,-1,56
 130 336 130 336 164 336 c 256,57,58
 198 336 198 336 222.5 360.5 c 128,-1,59
 247 385 247 385 247 419 c 256,48,49
EndSplineSet
EndChar
StartChar: uni0E03
Encoding: 3587 3587 214
Width: 760
VWidth: 1533
Flags: W
HStem: 0 61<296 561> 267 55<112.283 210.95> 488 42<117.207 120.907 121 125.453 125.547 185.219> 572 52<135.427 233.325 303.94 371.666>
VStem: 0 74<354.286 459.946> 173 123<61 218> 239 58<349.745 443.855> 402 99<366.358 535.856> 561 123<61 613>
Fore
173 0 m 1,0,-1
 173 225 l 1,1,2
 199 235 199 235 238.5 252.5 c 128,-1,3
 278 270 278 270 314 296 c 128,-1,4
 350 322 350 322 376 359.5 c 128,-1,5
 402 397 402 397 402 446 c 0,6,7
 402 503 402 503 380.5 536.5 c 128,-1,8
 359 570 359 570 328 570 c 0,9,10
 311 570 311 570 295 558.5 c 128,-1,11
 279 547 279 547 267 527 c 1,12,13
 255 544 255 544 235 558 c 128,-1,14
 215 572 215 572 184 572 c 0,15,16
 159 572 159 572 141.5 559.5 c 128,-1,17
 124 547 124 547 117 530 c 1,18,19
 118 530 118 530 121 532 c 1,20,21
 124 532 124 532 125.5 533 c 128,-1,22
 127 534 127 534 130 534 c 0,23,24
 170 537 170 537 201.5 526 c 128,-1,25
 233 515 233 515 254.5 496 c 128,-1,26
 276 477 276 477 286.5 451 c 128,-1,27
 297 425 297 425 297 397 c 0,28,29
 297 343 297 343 256 305 c 128,-1,30
 215 267 215 267 156 267 c 0,31,32
 127 267 127 267 99.5 277 c 128,-1,33
 72 287 72 287 50 307 c 128,-1,34
 28 327 28 327 14 358 c 128,-1,35
 0 389 0 389 0 432 c 0,36,37
 0 474 0 474 14 509 c 128,-1,38
 28 544 28 544 51.5 569.5 c 128,-1,39
 75 595 75 595 106.5 609.5 c 128,-1,40
 138 624 138 624 175 624 c 0,41,42
 210 624 210 624 233 611 c 128,-1,43
 256 598 256 598 264 583 c 1,44,45
 276 599 276 599 297.5 611.5 c 128,-1,46
 319 624 319 624 348 624 c 0,47,48
 414 624 414 624 457.5 578 c 128,-1,49
 501 532 501 532 501 448 c 0,50,51
 501 396 501 396 479 357.5 c 128,-1,52
 457 319 457 319 424.5 291.5 c 128,-1,53
 392 264 392 264 357 246 c 128,-1,54
 322 228 322 228 296 218 c 1,55,-1
 296 61 l 1,56,-1
 561 61 l 1,57,-1
 561 613 l 1,58,-1
 684 613 l 1,59,-1
 684 0 l 1,60,-1
 173 0 l 1,0,-1
239 405 m 256,61,62
 239 438 239 438 214.5 463 c 128,-1,63
 190 488 190 488 156 488 c 256,64,65
 123 488 123 488 98.5 463 c 128,-1,66
 74 438 74 438 74 405 c 256,67,68
 74 371 74 371 98.5 346.5 c 128,-1,69
 123 322 123 322 156 322 c 256,70,71
 190 322 190 322 214.5 346.5 c 128,-1,72
 239 371 239 371 239 405 c 256,61,62
EndSplineSet
EndChar
StartChar: uni0E04
Encoding: 3588 3588 215
Width: 774
VWidth: 1533
Flags: W
HStem: 0 21G<78 202.473 575 698> 198 57<338.325 436.388> 420 54<326.425 437.005> 570 54<276.686 493.434>
VStem: 61 125<330.893 481.754> 465 56<283.316 391.714> 575 123<0 497.164>
Fore
575 0 m 1,0,-1
 575 432 l 2,1,2
 575 494 575 494 522 532 c 128,-1,3
 469 570 469 570 386 570 c 0,4,5
 297 570 297 570 241.5 527 c 128,-1,6
 186 484 186 484 186 411 c 0,7,8
 186 394 186 394 187.5 370.5 c 128,-1,9
 189 347 189 347 190 334 c 0,10,-1
 194.5 283 l 0,11,12
 198 245 198 245 198 227 c 1,13,-1
 236 351 l 2,14,15
 251 399 251 399 285 436.5 c 128,-1,16
 319 474 319 474 382 474 c 256,17,18
 445 474 445 474 483 434 c 128,-1,19
 521 394 521 394 521 336 c 256,20,21
 521 278 521 278 482 238 c 128,-1,22
 443 198 443 198 382 198 c 0,23,24
 351 198 351 198 323.5 210 c 128,-1,25
 296 222 296 222 274 241 c 1,26,-1
 196 0 l 1,27,-1
 78 0 l 1,28,29
 84 106 84 106 72.5 204 c 128,-1,30
 61 302 61 302 61 389 c 0,31,32
 61 446 61 446 87 490 c 128,-1,33
 113 534 113 534 158.5 563.5 c 128,-1,34
 204 593 204 593 263 608.5 c 128,-1,35
 322 624 322 624 386 624 c 256,36,37
 451 624 451 624 507.5 611 c 128,-1,38
 564 598 564 598 606.5 571 c 128,-1,39
 649 544 649 544 673.5 502.5 c 128,-1,40
 698 461 698 461 698 405 c 2,41,-1
 698 0 l 1,42,-1
 575 0 l 1,0,-1
465 337 m 256,43,44
 465 371 465 371 440 395.5 c 128,-1,45
 415 420 415 420 382 420 c 256,46,47
 348 420 348 420 323.5 395.5 c 128,-1,48
 299 371 299 371 299 337 c 256,49,50
 299 304 299 304 323.5 279.5 c 128,-1,51
 348 255 348 255 382 255 c 256,52,53
 415 255 415 255 440 279.5 c 128,-1,54
 465 304 465 304 465 337 c 256,43,44
EndSplineSet
EndChar
StartChar: uni0E05
Encoding: 3589 3589 216
Width: 774
VWidth: 1533
Flags: W
HStem: 0 21G<78 203.054 575 698> 198 57<344.325 443.45> 420 54<332.55 443.283> 570 56<228.6 341.412 441.269 547.382>
VStem: 66 124.5<219.532 305.5 320.5 354.14 354.14 358.201 356.171 472.492> 471 56<282.548 392.473> 575 123<0 541.119>
Fore
575 0 m 1,0,-1
 575 461 l 2,1,2
 575 514 575 514 553.5 542 c 128,-1,3
 532 570 532 570 492 570 c 0,4,5
 461 570 461 570 442 555 c 128,-1,6
 423 540 423 540 411 518 c 1,7,-1
 366 518 l 1,8,9
 359 544 359 544 338 557 c 128,-1,10
 317 570 317 570 291 570 c 0,11,12
 238 570 238 570 212 529 c 128,-1,13
 186 488 186 488 186 423 c 0,14,15
 186 374 186 374 190.5 320.5 c 128,-1,16
 195 267 195 267 198 218 c 1,17,-1
 242 351 l 2,18,19
 259 399 259 399 292 436.5 c 128,-1,20
 325 474 325 474 388 474 c 256,21,22
 451 474 451 474 489 434 c 128,-1,23
 527 394 527 394 527 336 c 256,24,25
 527 278 527 278 488 238 c 128,-1,26
 449 198 449 198 388 198 c 0,27,28
 357 198 357 198 329.5 210 c 128,-1,29
 302 222 302 222 281 241 c 1,30,-1
 196 0 l 1,31,-1
 78 0 l 1,32,33
 83 64 83 64 80.5 116.5 c 128,-1,34
 78 169 78 169 74.5 215 c 128,-1,35
 71 261 71 261 66 305.5 c 128,-1,36
 61 350 61 350 61 397 c 0,37,38
 61 440 61 440 74 481.5 c 128,-1,39
 87 523 87 523 113.5 555 c 128,-1,40
 140 587 140 587 179 606.5 c 128,-1,41
 218 626 218 626 270 626 c 0,42,43
 314 626 314 626 346.5 609.5 c 128,-1,44
 379 593 379 593 392 567 c 1,45,46
 409 589 409 589 439 607.5 c 128,-1,47
 469 626 469 626 514 626 c 0,48,49
 592 626 592 626 645 581.5 c 128,-1,50
 698 537 698 537 698 449 c 2,51,-1
 698 0 l 1,52,-1
 575 0 l 1,0,-1
471 337 m 256,53,54
 471 371 471 371 446.5 395.5 c 128,-1,55
 422 420 422 420 388 420 c 256,56,57
 354 420 354 420 329.5 395.5 c 128,-1,58
 305 371 305 371 305 337 c 256,59,60
 305 304 305 304 329.5 279.5 c 128,-1,61
 354 255 354 255 388 255 c 256,62,63
 422 255 422 255 446.5 279.5 c 128,-1,64
 471 304 471 304 471 337 c 256,53,54
EndSplineSet
EndChar
StartChar: uni0E06
Encoding: 3590 3590 217
Width: 844
VWidth: 1533
Flags: W
HStem: -8 66<176.192 267.978> 192 65<178.171 255.288 251.727 258.85 258.85 274.85 274.85 277.788 277.788 285> 281 52<112.908 197.886> 491 39<118.488 122.906 123 127.453 127.547 186.847> 572 52<139.347 240.825 306.641 374.589>
VStem: 8 69<363.845 464.62> 87 69<76.8512 175.776> 235 55<368.541 449.254> 285 123<74.5044 124 124 152 256 312.763> 394 115<418.719 546.448> 645 123<81 613>
Fore
661 0 m 1,0,-1
 408 152 l 1,1,-1
 408 144 l 2,2,3
 408 72 408 72 363.5 32 c 128,-1,4
 319 -8 319 -8 239 -8 c 0,5,6
 172 -8 172 -8 129.5 31.5 c 128,-1,7
 87 71 87 71 87 127 c 0,8,9
 87 186 87 186 132.5 222 c 128,-1,10
 178 258 178 258 247 258 c 0,11,12
 262 258 262 258 270.5 257 c 128,-1,13
 279 256 279 256 285 256 c 1,14,15
 285 290 285 290 302 313.5 c 128,-1,16
 319 337 319 337 339.5 360 c 128,-1,17
 360 383 360 383 377 411.5 c 128,-1,18
 394 440 394 440 394 481 c 0,19,20
 394 518 394 518 378 543.5 c 128,-1,21
 362 569 362 569 336 570 c 0,22,23
 319 570 319 570 303 559.5 c 128,-1,24
 287 549 287 549 274 527 c 1,25,26
 262 544 262 544 242 558 c 128,-1,27
 222 572 222 572 192 572 c 0,28,29
 167 572 167 572 146.5 559.5 c 128,-1,30
 126 547 126 547 118 530 c 1,31,32
 120 530 120 530 123 532 c 1,33,34
 126 532 126 532 127.5 533 c 128,-1,35
 129 534 129 534 132 534 c 0,36,37
 170 537 170 537 199 527 c 128,-1,38
 228 517 228 517 248 498.5 c 128,-1,39
 268 480 268 480 279 455.5 c 128,-1,40
 290 431 290 431 290 405 c 256,41,42
 290 379 290 379 279 356.5 c 128,-1,43
 268 334 268 334 250 317.5 c 128,-1,44
 232 301 232 301 208 291 c 128,-1,45
 184 281 184 281 156 281 c 256,46,47
 129 281 129 281 102 290 c 128,-1,48
 75 299 75 299 54.5 318 c 128,-1,49
 34 337 34 337 21 368 c 128,-1,50
 8 399 8 399 8 440 c 0,51,52
 8 478 8 478 21.5 512 c 128,-1,53
 35 546 35 546 59 571 c 128,-1,54
 83 596 83 596 114.5 610 c 128,-1,55
 146 624 146 624 182 624 c 128,-1,56
 218 624 218 624 241 611 c 128,-1,57
 264 598 264 598 271 583 c 1,58,59
 284 599 284 599 309 611.5 c 128,-1,60
 334 624 334 624 365 624 c 0,61,62
 425 624 425 624 467 590.5 c 128,-1,63
 509 557 509 557 509 483 c 0,64,65
 509 446 509 446 493 422.5 c 128,-1,66
 477 399 477 399 458.5 379 c 128,-1,67
 440 359 440 359 424 338 c 128,-1,68
 408 317 408 317 408 285 c 2,69,-1
 408 222 l 1,70,-1
 645 81 l 1,71,-1
 645 613 l 1,72,-1
 768 613 l 1,73,-1
 768 0 l 1,74,-1
 661 0 l 1,0,-1
235 411 m 0,75,76
 235 443 235 443 211 467 c 128,-1,77
 187 491 187 491 156 491 c 0,78,79
 124 491 124 491 100.5 467 c 128,-1,80
 77 443 77 443 77 411 c 0,81,82
 77 380 77 380 100.5 356.5 c 128,-1,83
 124 333 124 333 156 333 c 0,84,85
 187 333 187 333 211 356.5 c 128,-1,86
 235 380 235 380 235 411 c 0,75,76
285 192 m 1,87,88
 278 193 278 193 264.5 194 c 128,-1,89
 251 195 251 195 239 195 c 0,90,91
 205 195 205 195 180.5 178 c 128,-1,92
 156 161 156 161 156 126 c 0,93,94
 156 95 156 95 177 76.5 c 128,-1,95
 198 58 198 58 224 58 c 0,96,97
 248 58 248 58 266.5 74 c 128,-1,98
 285 90 285 90 285 124 c 2,99,-1
 285 192 l 1,87,88
EndSplineSet
EndChar
StartChar: uni0E07
Encoding: 3591 3591 218
Width: 671
VWidth: 1533
Flags: W
HStem: 0 61<345 472> 339 55<370.566 457.429> 569 55<358.031 469.747>
VStem: 271 56<437.566 537.681> 472 123<61 351> 501 94<424.954 537.815>
Fore
293 0 m 1,0,1
 276 46 276 46 245.5 101 c 128,-1,2
 215 156 215 156 175.5 207.5 c 128,-1,3
 136 259 136 259 91 301 c 128,-1,4
 46 343 46 343 0 365 c 1,5,-1
 113 438 l 1,6,7
 150 417 150 417 187 375 c 128,-1,8
 224 333 224 333 254.5 280 c 128,-1,9
 285 227 285 227 309 169.5 c 128,-1,10
 333 112 333 112 345 61 c 1,11,-1
 472 61 l 1,12,-1
 472 351 l 1,13,14
 443 339 443 339 414 339 c 256,15,16
 385 339 385 339 359 350.5 c 128,-1,17
 333 362 333 362 313.5 381 c 128,-1,18
 294 400 294 400 282.5 426 c 128,-1,19
 271 452 271 452 271 481 c 0,20,21
 271 540 271 540 312.5 582 c 128,-1,22
 354 624 354 624 426 624 c 0,23,24
 504 624 504 624 549.5 579.5 c 128,-1,25
 595 535 595 535 595 457 c 2,26,-1
 595 0 l 1,27,-1
 293 0 l 1,0,1
501 481 m 256,28,29
 501 517 501 517 475 543 c 128,-1,30
 449 569 449 569 414 569 c 256,31,32
 379 569 379 569 353 543 c 128,-1,33
 327 517 327 517 327 481 c 256,34,35
 327 446 327 446 353 420 c 128,-1,36
 379 394 379 394 414 394 c 256,37,38
 449 394 449 394 475 420 c 128,-1,39
 501 446 501 446 501 481 c 256,28,29
EndSplineSet
EndChar
StartChar: uni0E08
Encoding: 3592 3592 219
Width: 699
VWidth: 1533
Flags: W
HStem: 0 21G<478.04 607> 144 51<231.212 345.678> 370 53<231.212 345.383> 570 54<264.437 439.232>
VStem: 144 57<224.532 339.781> 515 123<317.408 486.936>
Fore
638 385 m 0,0,1
 638 343 638 343 633.5 295 c 128,-1,2
 629 247 629 247 622.5 195.5 c 128,-1,3
 616 144 616 144 611.5 93.5 c 128,-1,4
 607 43 607 43 607 0 c 1,5,-1
 486 0 l 1,6,-1
 406 201 l 1,7,8
 386 176 386 176 357 160 c 128,-1,9
 328 144 328 144 288 144 c 0,10,11
 224 144 224 144 184 185.5 c 128,-1,12
 144 227 144 227 144 284 c 256,13,14
 144 340 144 340 184 381.5 c 128,-1,15
 224 423 224 423 288 423 c 0,16,17
 337 423 337 423 375.5 398 c 128,-1,18
 414 373 414 373 435 316 c 2,19,-1
 497 153 l 1,20,21
 498 201 498 201 506.5 274.5 c 128,-1,22
 515 348 515 348 515 426 c 0,23,24
 515 488 515 488 469 529 c 128,-1,25
 423 570 423 570 336 570 c 0,26,27
 296 570 296 570 260 558.5 c 128,-1,28
 224 547 224 547 195.5 523.5 c 128,-1,29
 167 500 167 500 150 465.5 c 128,-1,30
 133 431 133 431 133 385 c 1,31,-1
 0 385 l 1,32,33
 8 448 8 448 37.5 493 c 128,-1,34
 67 538 67 538 112.5 567 c 128,-1,35
 158 596 158 596 215.5 610 c 128,-1,36
 273 624 273 624 336 624 c 0,37,38
 480 624 480 624 559 559.5 c 128,-1,39
 638 495 638 495 638 385 c 0,0,1
376 282 m 256,40,41
 376 317 376 317 350.5 343.5 c 128,-1,42
 325 370 325 370 288 370 c 256,43,44
 251 370 251 370 226 343.5 c 128,-1,45
 201 317 201 317 201 282 c 256,46,47
 201 247 201 247 226 221 c 128,-1,48
 251 195 251 195 288 195 c 256,49,50
 325 195 325 195 350.5 221 c 128,-1,51
 376 247 376 247 376 282 c 256,40,41
EndSplineSet
EndChar
StartChar: uni0E09
Encoding: 3593 3593 220
Width: 797
VWidth: 1533
Flags: W
HStem: -12 56<560.902 651> 106 55<98.6733 186.429> 336 55<85.6673 198.747> 570 54<278.26 512.484>
VStem: 0 55<204.566 304.681> 230 94<191.954 304.815> 598 123<285 497.146> 693 67<88.0085 188.319>
Fore
760 132 m 0,0,1
 760 101 760 101 748 75 c 128,-1,2
 736 49 736 49 715.5 30 c 128,-1,3
 695 11 695 11 666.5 -0.5 c 128,-1,4
 638 -12 638 -12 606 -12 c 0,5,6
 575 -12 575 -12 546.5 -0.5 c 128,-1,7
 518 11 518 11 497.5 30 c 128,-1,8
 477 49 477 49 464 74.5 c 128,-1,9
 451 100 451 100 449 129 c 1,10,11
 411 103 411 103 379 70.5 c 128,-1,12
 347 38 347 38 316 0 c 1,13,-1
 201 0 l 1,14,-1
 201 118 l 1,15,16
 172 106 172 106 143 106 c 256,17,18
 113 106 113 106 87 117.5 c 128,-1,19
 61 129 61 129 42 148 c 128,-1,20
 23 167 23 167 11.5 193 c 128,-1,21
 0 219 0 219 0 248 c 0,22,23
 0 307 0 307 41.5 349 c 128,-1,24
 83 391 83 391 155 391 c 0,25,26
 233 391 233 391 278.5 346.5 c 128,-1,27
 324 302 324 302 324 224 c 2,28,-1
 324 110 l 1,29,30
 380 159 380 159 449 210 c 128,-1,31
 518 261 518 261 598 285 c 1,32,-1
 598 429 l 2,33,34
 598 491 598 491 544.5 530.5 c 128,-1,35
 491 570 491 570 386 570 c 0,36,37
 331 570 331 570 291 558 c 128,-1,38
 251 546 251 546 223.5 525 c 128,-1,39
 196 504 196 504 181 477.5 c 128,-1,40
 166 451 166 451 159 422 c 1,41,-1
 34 422 l 1,42,43
 60 514 60 514 146 569 c 128,-1,44
 232 624 232 624 386 624 c 128,-1,45
 540 624 540 624 630.5 570.5 c 128,-1,46
 721 517 721 517 721 405 c 2,47,-1
 721 278 l 1,48,49
 707 273 707 273 697 268.5 c 128,-1,50
 687 264 687 264 675 256 c 1,51,52
 710 244 710 244 735 208 c 128,-1,53
 760 172 760 172 760 132 c 0,0,1
693 132 m 256,54,55
 693 167 693 167 667 193 c 128,-1,56
 641 219 641 219 606 219 c 256,57,58
 570 219 570 219 544 193 c 128,-1,59
 518 167 518 167 518 132 c 256,60,61
 518 97 518 97 544 70.5 c 128,-1,62
 570 44 570 44 606 44 c 256,63,64
 641 44 641 44 667 70.5 c 128,-1,65
 693 97 693 97 693 132 c 256,54,55
230 248 m 256,66,67
 230 284 230 284 204 310 c 128,-1,68
 178 336 178 336 143 336 c 256,69,70
 107 336 107 336 81 310 c 128,-1,71
 55 284 55 284 55 248 c 256,72,73
 55 213 55 213 81 187 c 128,-1,74
 107 161 107 161 143 161 c 256,75,76
 178 161 178 161 204 187 c 128,-1,77
 230 213 230 213 230 248 c 256,66,67
EndSplineSet
EndChar
StartChar: uni0E0A
Encoding: 3594 3594 221
Width: 745
VWidth: 1533
Flags: W
HStem: 0 61<265 546> 281 55<119.785 219.413> 501 46<138.887 194.267> 572 52<161.756 290.086>
VStem: 8 73<366.254 473.198> 143 122<61 202> 247 58<363.745 457.311> 366 83<336.826 476.758> 546 122<61 427.187>
Fore
699 613 m 1,0,1
 693 576 693 576 655.5 535 c 128,-1,2
 618 494 618 494 564 477 c 1,3,4
 615 465 615 465 641.5 433.5 c 128,-1,5
 668 402 668 402 668 365 c 2,6,-1
 668 0 l 1,7,-1
 143 0 l 1,8,-1
 143 209 l 1,9,10
 172 215 172 215 211 230 c 128,-1,11
 250 245 250 245 284.5 271 c 128,-1,12
 319 297 319 297 342.5 333.5 c 128,-1,13
 366 370 366 370 366 417 c 0,14,15
 366 443 366 443 358 470.5 c 128,-1,16
 350 498 350 498 331.5 520.5 c 128,-1,17
 313 543 313 543 284 557.5 c 128,-1,18
 255 572 255 572 213 572 c 0,19,20
 187 572 187 572 165.5 563.5 c 128,-1,21
 144 555 144 555 138 547 c 1,22,23
 178 550 178 550 209.5 539.5 c 128,-1,24
 241 529 241 529 262.5 510 c 128,-1,25
 284 491 284 491 294.5 464.5 c 128,-1,26
 305 438 305 438 305 411 c 0,27,28
 305 357 305 357 263.5 319 c 128,-1,29
 222 281 222 281 164 281 c 0,30,31
 135 281 135 281 107.5 291 c 128,-1,32
 80 301 80 301 57.5 320 c 128,-1,33
 35 339 35 339 21.5 368 c 128,-1,34
 8 397 8 397 8 437 c 0,35,36
 8 475 8 475 24.5 509.5 c 128,-1,37
 41 544 41 544 70.5 569.5 c 128,-1,38
 100 595 100 595 139.5 609.5 c 128,-1,39
 179 624 179 624 227 624 c 256,40,41
 274 624 274 624 315.5 608.5 c 128,-1,42
 357 593 357 593 386 566.5 c 128,-1,43
 415 540 415 540 432 504 c 128,-1,44
 449 468 449 468 449 426 c 0,45,46
 449 374 449 374 429 335.5 c 128,-1,47
 409 297 409 297 381 270.5 c 128,-1,48
 353 244 353 244 320.5 227 c 128,-1,49
 288 210 288 210 265 202 c 1,50,-1
 265 61 l 1,51,-1
 546 61 l 1,52,-1
 546 370 l 2,53,54
 546 400 546 400 530 429 c 128,-1,55
 514 458 514 458 465 474 c 1,56,57
 492 484 492 484 509.5 502 c 128,-1,58
 527 520 527 520 538 540 c 128,-1,59
 549 560 549 560 553.5 579 c 128,-1,60
 558 598 558 598 558 613 c 1,61,-1
 699 613 l 1,0,1
247 419 m 256,62,63
 247 452 247 452 222.5 476.5 c 128,-1,64
 198 501 198 501 164 501 c 256,65,66
 130 501 130 501 105.5 476.5 c 128,-1,67
 81 452 81 452 81 419 c 256,68,69
 81 385 81 385 105.5 360.5 c 128,-1,70
 130 336 130 336 164 336 c 256,71,72
 198 336 198 336 222.5 360.5 c 128,-1,73
 247 385 247 385 247 419 c 256,62,63
EndSplineSet
EndChar
StartChar: uni0E0B
Encoding: 3595 3595 222
Width: 791
VWidth: 1533
Flags: W
HStem: 0 61<296 592> 267 55<112.283 210.95> 488 42<117.207 120.907 121 125.453 125.547 185.219> 572 52<135.427 233.325 303.94 371.666>
VStem: 0 74<354.286 459.946> 173 123<61 218> 239 58<349.745 443.855> 402 99<366.358 535.856> 592 122<61 427.187>
Fore
745 613 m 1,0,1
 739 576 739 576 701.5 535 c 128,-1,2
 664 494 664 494 610 477 c 1,3,4
 661 465 661 465 687.5 433.5 c 128,-1,5
 714 402 714 402 714 365 c 2,6,-1
 714 0 l 1,7,-1
 173 0 l 1,8,-1
 173 225 l 1,9,10
 199 235 199 235 238.5 252.5 c 128,-1,11
 278 270 278 270 314 296 c 128,-1,12
 350 322 350 322 376 359.5 c 128,-1,13
 402 397 402 397 402 446 c 0,14,15
 402 503 402 503 380.5 536.5 c 128,-1,16
 359 570 359 570 328 570 c 0,17,18
 311 570 311 570 295 558.5 c 128,-1,19
 279 547 279 547 267 527 c 1,20,21
 255 544 255 544 235 558 c 128,-1,22
 215 572 215 572 184 572 c 0,23,24
 159 572 159 572 141.5 559.5 c 128,-1,25
 124 547 124 547 117 530 c 1,26,27
 118 530 118 530 121 532 c 1,28,29
 124 532 124 532 125.5 533 c 128,-1,30
 127 534 127 534 130 534 c 0,31,32
 170 537 170 537 201.5 526 c 128,-1,33
 233 515 233 515 254.5 496 c 128,-1,34
 276 477 276 477 286.5 451 c 128,-1,35
 297 425 297 425 297 397 c 0,36,37
 297 343 297 343 256 305 c 128,-1,38
 215 267 215 267 156 267 c 0,39,40
 127 267 127 267 99.5 277 c 128,-1,41
 72 287 72 287 50 307 c 128,-1,42
 28 327 28 327 14 358 c 128,-1,43
 0 389 0 389 0 432 c 0,44,45
 0 474 0 474 14 509 c 128,-1,46
 28 544 28 544 51.5 569.5 c 128,-1,47
 75 595 75 595 106.5 609.5 c 128,-1,48
 138 624 138 624 175 624 c 0,49,50
 210 624 210 624 233 611 c 128,-1,51
 256 598 256 598 264 583 c 1,52,53
 276 599 276 599 297.5 611.5 c 128,-1,54
 319 624 319 624 348 624 c 0,55,56
 414 624 414 624 457.5 578 c 128,-1,57
 501 532 501 532 501 448 c 0,58,59
 501 396 501 396 479 357.5 c 128,-1,60
 457 319 457 319 424.5 291.5 c 128,-1,61
 392 264 392 264 357 246 c 128,-1,62
 322 228 322 228 296 218 c 1,63,-1
 296 61 l 1,64,-1
 592 61 l 1,65,-1
 592 370 l 2,66,67
 592 400 592 400 576 429 c 128,-1,68
 560 458 560 458 511 474 c 1,69,70
 538 484 538 484 555.5 502 c 128,-1,71
 573 520 573 520 584 540 c 128,-1,72
 595 560 595 560 599.5 579 c 128,-1,73
 604 598 604 598 604 613 c 1,74,-1
 745 613 l 1,0,1
239 405 m 256,75,76
 239 438 239 438 214.5 463 c 128,-1,77
 190 488 190 488 156 488 c 256,78,79
 123 488 123 488 98.5 463 c 128,-1,80
 74 438 74 438 74 405 c 256,81,82
 74 371 74 371 98.5 346.5 c 128,-1,83
 123 322 123 322 156 322 c 256,84,85
 190 322 190 322 214.5 346.5 c 128,-1,86
 239 371 239 371 239 405 c 256,75,76
EndSplineSet
EndChar
StartChar: uni0E0C
Encoding: 3596 3596 223
Width: 1091
VWidth: 1533
Flags: W
HStem: -8 56<205.562 309.586 580.677 681.767> 222 56<214.146 301.434> 570 54<255.139 437.424>
VStem: 77 93<80.0092 191.046> 345 55<79.1313 178.434> 477 61<86.7304 188.277> 534 122<274 503.197> 713 60<75.5435 123> 892 123<103 613>
Fore
902 0 m 1,0,1
 889 14 889 14 872.5 31 c 128,-1,2
 856 48 856 48 838 64.5 c 128,-1,3
 820 81 820 81 803.5 96.5 c 128,-1,4
 787 112 787 112 773 123 c 1,5,6
 773 69 773 69 730.5 29 c 128,-1,7
 688 -11 688 -11 626 -11 c 0,8,9
 595 -11 595 -11 568 0 c 128,-1,10
 541 11 541 11 520.5 30 c 128,-1,11
 500 49 500 49 488.5 74.5 c 128,-1,12
 477 100 477 100 477 127 c 0,13,14
 477 166 477 166 495.5 200.5 c 128,-1,15
 514 235 514 235 550 251 c 1,16,17
 547 253 547 253 545 254.5 c 128,-1,18
 543 256 543 256 540 258 c 2,19,-1
 534 261 l 1,20,-1
 534 429 l 2,21,22
 534 497 534 497 484.5 533.5 c 128,-1,23
 435 570 435 570 357 570 c 256,24,25
 279 570 279 570 225.5 530.5 c 128,-1,26
 172 491 172 491 172 422 c 1,27,-1
 268 422 l 1,28,-1
 268 382 l 1,29,30
 199 356 199 356 199 282 c 2,31,-1
 199 265 l 1,32,33
 228 278 228 278 258 278 c 256,34,35
 287 278 287 278 313 266.5 c 128,-1,36
 339 255 339 255 358 235.5 c 128,-1,37
 377 216 377 216 388.5 190 c 128,-1,38
 400 164 400 164 400 135 c 0,39,40
 400 77 400 77 358.5 34.5 c 128,-1,41
 317 -8 317 -8 245 -8 c 0,42,43
 167 -8 167 -8 122 36.5 c 128,-1,44
 77 81 77 81 77 159 c 2,45,-1
 77 268 l 2,46,47
 77 285 77 285 84.5 303.5 c 128,-1,48
 92 322 92 322 106 337.5 c 128,-1,49
 120 353 120 353 140.5 364.5 c 128,-1,50
 161 376 161 376 187 380 c 1,51,-1
 41 380 l 1,52,53
 46 440 46 440 73 486 c 128,-1,54
 100 532 100 532 142 562.5 c 128,-1,55
 184 593 184 593 239 608.5 c 128,-1,56
 294 624 294 624 357 624 c 0,57,58
 414 624 414 624 468.5 611.5 c 128,-1,59
 523 599 523 599 564.5 574 c 128,-1,60
 606 549 606 549 631 509 c 128,-1,61
 656 469 656 469 656 414 c 2,62,-1
 656 274 l 1,63,64
 685 262 685 262 719 241.5 c 128,-1,65
 753 221 753 221 785 196.5 c 128,-1,66
 817 172 817 172 845.5 147.5 c 128,-1,67
 874 123 874 123 892 103 c 1,68,-1
 892 613 l 1,69,-1
 1015 613 l 1,70,-1
 1015 0 l 1,71,-1
 902 0 l 1,0,1
713 132 m 256,72,73
 713 167 713 167 687 193 c 128,-1,74
 661 219 661 219 626 219 c 256,75,76
 590 219 590 219 564 193 c 128,-1,77
 538 167 538 167 538 132 c 256,78,79
 538 97 538 97 564 70.5 c 128,-1,80
 590 44 590 44 626 44 c 256,81,82
 661 44 661 44 687 70.5 c 128,-1,83
 713 97 713 97 713 132 c 256,72,73
345 135 m 256,84,85
 345 170 345 170 319 196 c 128,-1,86
 293 222 293 222 258 222 c 256,87,88
 222 222 222 222 196 196 c 128,-1,89
 170 170 170 170 170 135 c 256,90,91
 170 100 170 100 196 74 c 128,-1,92
 222 48 222 48 258 48 c 256,93,94
 293 48 293 48 319 74 c 128,-1,95
 345 100 345 100 345 135 c 256,84,85
EndSplineSet
EndChar
StartChar: uni0E0D
Encoding: 3597 3597 224
Width: 1085
VWidth: 1533
Flags: W
HStem: -311 58<600.948 717.309> -78 47<600.975 716.936> -8 56<201.279 314.337> 0 61<656 885> 222 56<214.146 301.434> 570 54<255.139 437.424>
VStem: 77 93<80.0092 191.046> 345 55<79.1313 178.434> 520 52<-224.074 -107.151> 534 122<61 503.197> 747 55<-212.726 -107.438> 885 122<61 613>
Fore
534 0 m 1,0,-1
 534 429 l 2,1,2
 534 497 534 497 484.5 533.5 c 128,-1,3
 435 570 435 570 357 570 c 256,4,5
 279 570 279 570 225.5 530.5 c 128,-1,6
 172 491 172 491 172 422 c 1,7,-1
 268 422 l 1,8,-1
 268 382 l 1,9,10
 199 356 199 356 199 282 c 2,11,-1
 199 265 l 1,12,13
 228 278 228 278 258 278 c 256,14,15
 287 278 287 278 313 266.5 c 128,-1,16
 339 255 339 255 358 235.5 c 128,-1,17
 377 216 377 216 388.5 190 c 128,-1,18
 400 164 400 164 400 135 c 0,19,20
 400 77 400 77 358.5 34.5 c 128,-1,21
 317 -8 317 -8 245 -8 c 0,22,23
 167 -8 167 -8 122 36.5 c 128,-1,24
 77 81 77 81 77 159 c 2,25,-1
 77 268 l 2,26,27
 77 285 77 285 84.5 303.5 c 128,-1,28
 92 322 92 322 106 337.5 c 128,-1,29
 120 353 120 353 140.5 364.5 c 128,-1,30
 161 376 161 376 187 380 c 1,31,-1
 41 380 l 1,32,33
 46 440 46 440 73 486 c 128,-1,34
 100 532 100 532 142 562.5 c 128,-1,35
 184 593 184 593 239 608.5 c 128,-1,36
 294 624 294 624 357 624 c 0,37,38
 414 624 414 624 468.5 611.5 c 128,-1,39
 523 599 523 599 564.5 574 c 128,-1,40
 606 549 606 549 631 509 c 128,-1,41
 656 469 656 469 656 414 c 2,42,-1
 656 61 l 1,43,-1
 885 61 l 1,44,-1
 885 613 l 1,45,-1
 1007 613 l 1,46,-1
 1007 0 l 1,47,-1
 534 0 l 1,0,-1
998 -49 m 1,48,49
 995 -98 995 -98 975 -145 c 128,-1,50
 955 -192 955 -192 920 -228.5 c 128,-1,51
 885 -265 885 -265 832.5 -288 c 128,-1,52
 780 -311 780 -311 713 -311 c 0,53,54
 622 -311 622 -311 571 -273 c 128,-1,55
 520 -235 520 -235 520 -166 c 0,56,57
 520 -109 520 -109 561.5 -70 c 128,-1,58
 603 -31 603 -31 661 -31 c 256,59,60
 719 -31 719 -31 760.5 -67.5 c 128,-1,61
 802 -104 802 -104 802 -166 c 0,62,63
 802 -190 802 -190 796 -214 c 128,-1,64
 790 -238 790 -238 777 -251 c 1,65,66
 808 -244 808 -244 829.5 -221.5 c 128,-1,67
 851 -199 851 -199 864 -170 c 128,-1,68
 877 -141 877 -141 881 -109 c 128,-1,69
 885 -77 885 -77 880 -49 c 1,70,-1
 998 -49 l 1,48,49
747 -166 m 256,71,72
 747 -129 747 -129 721.5 -103.5 c 128,-1,73
 696 -78 696 -78 659 -78 c 256,74,75
 622 -78 622 -78 597 -103.5 c 128,-1,76
 572 -129 572 -129 572 -166 c 256,77,78
 572 -202 572 -202 597 -227.5 c 128,-1,79
 622 -253 622 -253 659 -253 c 256,80,81
 696 -253 696 -253 721.5 -227.5 c 128,-1,82
 747 -202 747 -202 747 -166 c 256,71,72
345 135 m 256,83,84
 345 170 345 170 319 196 c 128,-1,85
 293 222 293 222 258 222 c 256,86,87
 222 222 222 222 196 196 c 128,-1,88
 170 170 170 170 170 135 c 256,89,90
 170 100 170 100 196 74 c 128,-1,91
 222 48 222 48 258 48 c 256,92,93
 293 48 293 48 319 74 c 128,-1,94
 345 100 345 100 345 135 c 256,83,84
EndSplineSet
Substitution2: "Single Substitution lookup 22 subtable" uni0E0D.alt1
Substitution2: "Single Substitution lookup 22 subtable" uni0E0D.alt1
EndChar
StartChar: uni0E0E
Encoding: 3598 3598 225
Width: 873
VWidth: 1533
Flags: W
HStem: -270 57<239.772 338.741> -103 62<245.075 376.863> -8 56<102.121 213.975> 222 52<114.139 201.031> 570 54<395.004 576.895>
VStem: 15 56<78.6714 178.359> 100 110<-199.299 -122.67> 216 123<267 330.75> 245 94<78.9729 191.046> 673 123<-186 502.658>
Fore
665 -261 m 1,0,1
 616 -230 616 -230 578.5 -208.5 c 128,-1,2
 541 -187 541 -187 501 -167 c 1,3,4
 481 -179 481 -179 459.5 -197 c 128,-1,5
 438 -215 438 -215 411.5 -231 c 128,-1,6
 385 -247 385 -247 350.5 -258.5 c 128,-1,7
 316 -270 316 -270 270 -270 c 0,8,9
 199 -270 199 -270 149.5 -241.5 c 128,-1,10
 100 -213 100 -213 100 -164 c 0,11,12
 100 -135 100 -135 116 -112.5 c 128,-1,13
 132 -90 132 -90 159 -74 c 128,-1,14
 186 -58 186 -58 221 -49.5 c 128,-1,15
 256 -41 256 -41 294 -41 c 0,16,17
 365 -41 365 -41 410 -57.5 c 128,-1,18
 455 -74 455 -74 492 -90 c 1,19,20
 515 -77 515 -77 547.5 -67 c 128,-1,21
 580 -57 580 -57 630 -49 c 1,22,-1
 630 -115 l 1,23,24
 615 -117 615 -117 597.5 -121.5 c 128,-1,25
 580 -126 580 -126 569 -129 c 1,26,27
 586 -136 586 -136 604 -145.5 c 128,-1,28
 622 -155 622 -155 638 -164 c 0,29,30
 655 -175 655 -175 673 -186 c 1,31,-1
 673 429 l 2,32,33
 673 497 673 497 624 533.5 c 128,-1,34
 575 570 575 570 497 570 c 256,35,36
 419 570 419 570 365 530.5 c 128,-1,37
 311 491 311 491 311 422 c 1,38,-1
 408 422 l 1,39,-1
 408 382 l 1,40,41
 339 356 339 356 339 282 c 2,42,-1
 339 163 l 2,43,44
 339 84 339 84 291.5 38 c 128,-1,45
 244 -8 244 -8 166 -8 c 0,46,47
 97 -8 97 -8 56 35 c 128,-1,48
 15 78 15 78 15 135 c 0,49,50
 15 164 15 164 26.5 189.5 c 128,-1,51
 38 215 38 215 57.5 234 c 128,-1,52
 77 253 77 253 103 263.5 c 128,-1,53
 129 274 129 274 158 274 c 0,54,55
 173 274 173 274 188.5 272.5 c 128,-1,56
 204 271 204 271 216 267 c 1,57,-1
 216 281 l 2,58,59
 216 314 216 314 247 341 c 128,-1,60
 278 368 278 368 327 380 c 1,61,-1
 181 380 l 1,62,63
 186 440 186 440 212.5 486 c 128,-1,64
 239 532 239 532 281.5 562.5 c 128,-1,65
 324 593 324 593 379 608.5 c 128,-1,66
 434 624 434 624 497 624 c 0,67,68
 553 624 553 624 607.5 611.5 c 128,-1,69
 662 599 662 599 703.5 574 c 128,-1,70
 745 549 745 549 770.5 509 c 128,-1,71
 796 469 796 469 796 414 c 2,72,-1
 796 -261 l 1,73,-1
 665 -261 l 1,0,1
245 135 m 256,74,75
 245 170 245 170 219 196 c 128,-1,76
 193 222 193 222 158 222 c 256,77,78
 123 222 123 222 97 196 c 128,-1,79
 71 170 71 170 71 135 c 256,80,81
 71 100 71 100 97 74 c 128,-1,82
 123 48 123 48 158 48 c 256,83,84
 193 48 193 48 219 74 c 128,-1,85
 245 100 245 100 245 135 c 256,74,75
435 -135 m 1,86,87
 403 -118 403 -118 368 -110.5 c 128,-1,88
 333 -103 333 -103 299 -103 c 0,89,90
 262 -103 262 -103 236 -119.5 c 128,-1,91
 210 -136 210 -136 210 -163 c 256,92,93
 210 -189 210 -189 234.5 -201 c 128,-1,94
 259 -213 259 -213 285 -213 c 0,95,96
 328 -213 328 -213 364 -189.5 c 128,-1,97
 400 -166 400 -166 435 -135 c 1,86,87
EndSplineSet
Substitution2: "Single Substitution lookup 22 subtable" uni0E0E.alt1
Substitution2: "Single Substitution lookup 22 subtable" uni0E0E.alt1
EndChar
StartChar: uni0E0F
Encoding: 3599 3599 226
Width: 873
VWidth: 1533
Flags: W
HStem: -279 60<132.307 231.651> -104 60<141.68 258.165 441.406 466> -8 56<102.121 213.975> 222 52<114.139 201.031> 570 54<395.004 576.895>
VStem: 14 90<-205.435 -123.871> 15 56<78.6714 178.359> 216 123<267 330.75> 245 94<78.9729 191.046> 673 123<-173 502.658>
Fore
670 -261 m 1,0,-1
 572 -172 l 1,1,-1
 466 -273 l 1,2,3
 437 -242 437 -242 414 -220.5 c 128,-1,4
 391 -199 391 -199 368 -179 c 1,5,6
 350 -196 350 -196 330 -214 c 128,-1,7
 310 -232 310 -232 286 -246.5 c 128,-1,8
 262 -261 262 -261 233.5 -270 c 128,-1,9
 205 -279 205 -279 170 -279 c 0,10,11
 143 -279 143 -279 114.5 -272 c 128,-1,12
 86 -265 86 -265 63.5 -251.5 c 128,-1,13
 41 -238 41 -238 27.5 -217 c 128,-1,14
 14 -196 14 -196 14 -167 c 0,15,16
 14 -135 14 -135 30 -112 c 128,-1,17
 46 -89 46 -89 73 -73.5 c 128,-1,18
 100 -58 100 -58 132 -51 c 128,-1,19
 164 -44 164 -44 196 -44 c 0,20,21
 245 -44 245 -44 286 -57.5 c 128,-1,22
 327 -71 327 -71 365 -92 c 1,23,24
 382 -78 382 -78 404 -64.5 c 128,-1,25
 426 -51 426 -51 466 -43 c 1,26,-1
 466 -110 l 1,27,28
 454 -113 454 -113 441 -119.5 c 128,-1,29
 428 -126 428 -126 420 -130 c 1,30,31
 432 -141 432 -141 447.5 -153.5 c 128,-1,32
 463 -166 463 -166 472 -175 c 1,33,-1
 572 -86 l 1,34,-1
 673 -173 l 1,35,-1
 673 429 l 2,36,37
 673 497 673 497 624 533.5 c 128,-1,38
 575 570 575 570 497 570 c 256,39,40
 419 570 419 570 365 530.5 c 128,-1,41
 311 491 311 491 311 422 c 1,42,-1
 408 422 l 1,43,-1
 408 382 l 1,44,45
 339 356 339 356 339 282 c 2,46,-1
 339 163 l 2,47,48
 339 84 339 84 291.5 38 c 128,-1,49
 244 -8 244 -8 166 -8 c 0,50,51
 97 -8 97 -8 56 35 c 128,-1,52
 15 78 15 78 15 135 c 0,53,54
 15 164 15 164 26.5 189.5 c 128,-1,55
 38 215 38 215 57.5 234 c 128,-1,56
 77 253 77 253 103 263.5 c 128,-1,57
 129 274 129 274 158 274 c 0,58,59
 173 274 173 274 188.5 272.5 c 128,-1,60
 204 271 204 271 216 267 c 1,61,-1
 216 281 l 2,62,63
 216 314 216 314 247 341 c 128,-1,64
 278 368 278 368 327 380 c 1,65,-1
 181 380 l 1,66,67
 186 440 186 440 212.5 486 c 128,-1,68
 239 532 239 532 281.5 562.5 c 128,-1,69
 324 593 324 593 379 608.5 c 128,-1,70
 434 624 434 624 497 624 c 0,71,72
 553 624 553 624 607.5 611.5 c 128,-1,73
 662 599 662 599 703.5 574 c 128,-1,74
 745 549 745 549 770.5 509 c 128,-1,75
 796 469 796 469 796 414 c 2,76,-1
 796 -261 l 1,77,-1
 670 -261 l 1,0,-1
245 135 m 256,78,79
 245 170 245 170 219 196 c 128,-1,80
 193 222 193 222 158 222 c 256,81,82
 123 222 123 222 97 196 c 128,-1,83
 71 170 71 170 71 135 c 256,84,85
 71 100 71 100 97 74 c 128,-1,86
 123 48 123 48 158 48 c 256,87,88
 193 48 193 48 219 74 c 128,-1,89
 245 100 245 100 245 135 c 256,78,79
319 -144 m 1,90,91
 285 -123 285 -123 256 -113.5 c 128,-1,92
 227 -104 227 -104 193 -104 c 256,93,94
 159 -104 159 -104 131.5 -120 c 128,-1,95
 104 -136 104 -136 104 -167 c 0,96,97
 104 -193 104 -193 126.5 -206 c 128,-1,98
 149 -219 149 -219 179 -219 c 0,99,100
 224 -219 224 -219 254 -197.5 c 128,-1,101
 284 -176 284 -176 319 -144 c 1,90,91
EndSplineSet
Substitution2: "Single Substitution lookup 22 subtable" uni0E0F.alt1
Substitution2: "Single Substitution lookup 22 subtable" uni0E0F.alt1
EndChar
StartChar: uni0E10
Encoding: 3600 3600 227
Width: 665
VWidth: 1533
Flags: W
HStem: -262 80<429.842 523.62> -253 46<37.2451 111.062> -121 46<29.79 113.96> -75 44<430.654 522.743> 0 21G<443.677 570> 95 45<153.387 256.925> 333 44<164.729 273.192> 397 49<152 477> 498 59<414.691 502.976> 558 63<198.07 292.802>
VStem: -54 71<-197.516 -132.507> 61 56<176.181 281.332> 359 56<-168.231 -89.5298> 472.5 125.5<254.094 325 328 348.422 348.422 370.042 370.042 397> 538 61<-168.184 -89.0898>
Fore
630 613 m 1,0,1
 621 553 621 553 578 525.5 c 128,-1,2
 535 498 535 498 477 498 c 0,3,4
 442 498 442 498 416.5 507.5 c 128,-1,5
 391 517 391 517 367 528.5 c 128,-1,6
 343 540 343 540 319.5 549 c 128,-1,7
 296 558 296 558 267 558 c 0,8,9
 215 558 215 558 183.5 523 c 128,-1,10
 152 488 152 488 152 446 c 1,11,-1
 603 446 l 1,12,13
 604 386 604 386 598 328 c 128,-1,14
 592 270 592 270 585 214 c 128,-1,15
 578 158 578 158 572.5 104.5 c 128,-1,16
 567 51 567 51 570 0 c 1,17,-1
 455 0 l 1,18,-1
 348 189 l 1,19,20
 340 164 340 164 324 146.5 c 128,-1,21
 308 129 308 129 289 117.5 c 128,-1,22
 270 106 270 106 249 100.5 c 128,-1,23
 228 95 228 95 210 95 c 0,24,25
 147 95 147 95 104 136.5 c 128,-1,26
 61 178 61 178 61 236 c 0,27,28
 61 265 61 265 72.5 290.5 c 128,-1,29
 84 316 84 316 103.5 335 c 128,-1,30
 123 354 123 354 150.5 365.5 c 128,-1,31
 178 377 178 377 210 377 c 0,32,33
 255 377 255 377 294.5 358 c 128,-1,34
 334 339 334 339 365 285 c 2,35,-1
 454 126 l 1,36,37
 451 152 451 152 454.5 185 c 128,-1,38
 458 218 458 218 463 253 c 128,-1,39
 468 288 468 288 472.5 325 c 128,-1,40
 477 362 477 362 477 397 c 1,41,-1
 8 397 l 1,42,43
 8 452 8 452 24 493.5 c 128,-1,44
 40 535 40 535 68.5 563.5 c 128,-1,45
 97 592 97 592 135 606.5 c 128,-1,46
 173 621 173 621 219 621 c 256,47,48
 265 621 265 621 295 611 c 128,-1,49
 325 601 325 601 348 588.5 c 128,-1,50
 371 576 371 576 390 566.5 c 128,-1,51
 409 557 409 557 432 557 c 0,52,53
 454 557 454 557 471.5 572 c 128,-1,54
 489 587 489 587 489 613 c 1,55,-1
 630 613 l 1,0,1
599 -140 m 0,56,57
 599 -193 599 -193 555 -227.5 c 128,-1,58
 511 -262 511 -262 449 -262 c 0,59,60
 405 -262 405 -262 368 -247.5 c 128,-1,61
 331 -233 331 -233 307 -213 c 1,62,63
 302 -221 302 -221 296 -228 c 128,-1,64
 290 -235 290 -235 285 -241 c 2,65,66
 279 -247 279 -247 273 -255 c 1,67,-1
 221 -255 l 1,68,69
 204 -224 204 -224 192 -209 c 1,70,71
 167 -228 167 -228 134 -240.5 c 128,-1,72
 101 -253 101 -253 69 -253 c 0,73,74
 21 -253 21 -253 -16.5 -230 c 128,-1,75
 -54 -207 -54 -207 -54 -164 c 0,76,77
 -54 -126 -54 -126 -18 -100.5 c 128,-1,78
 18 -75 18 -75 71 -75 c 0,79,80
 104 -75 104 -75 137 -86.5 c 128,-1,81
 170 -98 170 -98 190 -117 c 1,82,83
 199 -101 199 -101 207 -85 c 128,-1,84
 215 -69 215 -69 218 -51 c 1,85,-1
 285 -51 l 1,86,87
 279 -81 279 -81 265 -113.5 c 128,-1,88
 251 -146 251 -146 236 -163 c 1,89,90
 239 -167 239 -167 244.5 -174.5 c 128,-1,91
 250 -182 250 -182 255 -190 c 1,92,93
 262 -182 262 -182 275 -166 c 128,-1,94
 288 -150 288 -150 301 -133 c 1,95,96
 317 -159 317 -159 351 -182 c 128,-1,97
 385 -205 385 -205 423 -210 c 1,98,99
 394 -198 394 -198 376.5 -175 c 128,-1,100
 359 -152 359 -152 359 -126 c 0,101,102
 359 -86 359 -86 393.5 -58.5 c 128,-1,103
 428 -31 428 -31 477 -31 c 256,104,105
 526 -31 526 -31 562.5 -60 c 128,-1,106
 599 -89 599 -89 599 -140 c 0,56,57
310 236 m 256,107,108
 310 274 310 274 281.5 303.5 c 128,-1,109
 253 333 253 333 213 333 c 256,110,111
 173 333 173 333 145 303.5 c 128,-1,112
 117 274 117 274 117 236 c 256,113,114
 117 198 117 198 145 169 c 128,-1,115
 173 140 173 140 213 140 c 256,116,117
 253 140 253 140 281.5 169 c 128,-1,118
 310 198 310 198 310 236 c 256,107,108
538 -129 m 256,119,120
 538 -106 538 -106 520.5 -90.5 c 128,-1,121
 503 -75 503 -75 477 -75 c 256,122,123
 451 -75 451 -75 433 -90.5 c 128,-1,124
 415 -106 415 -106 415 -129 c 256,125,126
 415 -152 415 -152 433 -167 c 128,-1,127
 451 -182 451 -182 477 -182 c 256,128,129
 503 -182 503 -182 520.5 -167 c 128,-1,130
 538 -152 538 -152 538 -129 c 256,119,120
159 -164 m 1,131,132
 143 -146 143 -146 121.5 -133.5 c 128,-1,133
 100 -121 100 -121 72 -121 c 0,134,135
 51 -121 51 -121 34 -133.5 c 128,-1,136
 17 -146 17 -146 17 -164 c 0,137,138
 17 -186 17 -186 34.5 -196.5 c 128,-1,139
 52 -207 52 -207 75 -207 c 0,140,141
 100 -207 100 -207 120.5 -194.5 c 128,-1,142
 141 -182 141 -182 159 -164 c 1,131,132
EndSplineSet
Substitution2: "Single Substitution lookup 22 subtable" uni0E10.alt1
Substitution2: "Single Substitution lookup 22 subtable" uni0E10.alt1
EndChar
StartChar: uni0E11
Encoding: 3601 3601 228
Width: 910
VWidth: 1533
Flags: W
HStem: 0 21G<262 389.294 711 834> 282 52<105.685 189.976> 492 40<110.445 114.906 115 119.453 119.547 179.806> 573 53<141.165 233.325 298.899 366.323>
VStem: 0 69<365.36 466.365> 227 55<369.884 450.526> 262 123<127 306.794> 386 115<423.478 548.595> 711 123<0 504>
Fore
711 0 m 1,0,-1
 711 504 l 1,1,-1
 376 0 l 1,2,-1
 262 0 l 1,3,-1
 262 251 l 2,4,5
 262 285 262 285 281.5 307.5 c 128,-1,6
 301 330 301 330 324.5 353 c 128,-1,7
 348 376 348 376 367 405 c 128,-1,8
 386 434 386 434 386 483 c 0,9,10
 386 520 386 520 370 545 c 128,-1,11
 354 570 354 570 328 572 c 0,12,13
 311 572 311 572 295 561 c 128,-1,14
 279 550 279 550 267 529 c 1,15,16
 255 546 255 546 235 559.5 c 128,-1,17
 215 573 215 573 184 573 c 0,18,19
 159 573 159 573 138.5 561 c 128,-1,20
 118 549 118 549 110 532 c 1,21,22
 112 532 112 532 115 534 c 1,23,24
 118 534 118 534 119.5 534.5 c 128,-1,25
 121 535 121 535 124 535 c 0,26,27
 163 538 163 538 192 528 c 128,-1,28
 221 518 221 518 241 499.5 c 128,-1,29
 261 481 261 481 271.5 456.5 c 128,-1,30
 282 432 282 432 282 406 c 256,31,32
 282 380 282 380 271.5 358 c 128,-1,33
 261 336 261 336 242.5 319 c 128,-1,34
 224 302 224 302 200 292 c 128,-1,35
 176 282 176 282 149 282 c 256,36,37
 121 282 121 282 94 291.5 c 128,-1,38
 67 301 67 301 46.5 320 c 128,-1,39
 26 339 26 339 13 369.5 c 128,-1,40
 0 400 0 400 0 442 c 0,41,42
 0 480 0 480 14 513.5 c 128,-1,43
 28 547 28 547 51.5 572.5 c 128,-1,44
 75 598 75 598 106.5 612 c 128,-1,45
 138 626 138 626 175 626 c 0,46,47
 210 626 210 626 233 612.5 c 128,-1,48
 256 599 256 599 264 584 c 1,49,50
 276 601 276 601 301.5 613.5 c 128,-1,51
 327 626 327 626 357 626 c 0,52,53
 417 626 417 626 459 592 c 128,-1,54
 501 558 501 558 501 484 c 0,55,56
 501 448 501 448 483 425.5 c 128,-1,57
 465 403 465 403 443.5 384 c 128,-1,58
 422 365 422 365 403.5 344.5 c 128,-1,59
 385 324 385 324 385 288 c 2,60,-1
 385 127 l 1,61,-1
 713 621 l 1,62,63
 771 621 771 621 802.5 598 c 128,-1,64
 834 575 834 575 834 530 c 2,65,-1
 834 0 l 1,66,-1
 711 0 l 1,0,-1
227 412 m 0,67,68
 227 445 227 445 203 468.5 c 128,-1,69
 179 492 179 492 149 492 c 0,70,71
 117 492 117 492 93 468.5 c 128,-1,72
 69 445 69 445 69 412 c 0,73,74
 69 382 69 382 93 358 c 128,-1,75
 117 334 117 334 149 334 c 0,76,77
 179 334 179 334 203 358 c 128,-1,78
 227 382 227 382 227 412 c 0,67,68
EndSplineSet
EndChar
StartChar: uni0E12
Encoding: 3602 3602 229
Width: 1117
VWidth: 1533
Flags: W
HStem: -11 55<606.677 707.767> 202 53<317.792 395.355> 429 52<317.915 430.398> 570 56<239.227 336.358 434.253 536.497>
VStem: 61 125<319.887 444.369> 80.5 123.5<73.3583 115.5 115.5 176.038> 230 57<285.993 397.72> 461 62<285.689 397.739> 503 61<86.7304 188.277> 560 122<274 540.088> 739 60<75.5435 123> 918 123<103 613>
Fore
928 0 m 1,0,1
 915 14 915 14 898.5 31 c 128,-1,2
 882 48 882 48 864 64.5 c 128,-1,3
 846 81 846 81 829.5 96.5 c 128,-1,4
 813 112 813 112 799 123 c 1,5,6
 799 69 799 69 756.5 29 c 128,-1,7
 714 -11 714 -11 652 -11 c 0,8,9
 621 -11 621 -11 594 0 c 128,-1,10
 567 11 567 11 546.5 30 c 128,-1,11
 526 49 526 49 514.5 74.5 c 128,-1,12
 503 100 503 100 503 127 c 0,13,14
 503 166 503 166 521.5 200.5 c 128,-1,15
 540 235 540 235 576 251 c 1,16,17
 573 253 573 253 571 254.5 c 128,-1,18
 569 256 569 256 566 258 c 2,19,-1
 560 261 l 1,20,-1
 560 461 l 2,21,22
 560 512 560 512 542 541 c 128,-1,23
 524 570 524 570 484 570 c 0,24,25
 454 570 454 570 435.5 555 c 128,-1,26
 417 540 417 540 403 518 c 1,27,-1
 359 518 l 1,28,29
 348 544 348 544 332.5 557 c 128,-1,30
 317 570 317 570 291 570 c 256,31,32
 265 570 265 570 245 558 c 128,-1,33
 225 546 225 546 212 524.5 c 128,-1,34
 199 503 199 503 192.5 474.5 c 128,-1,35
 186 446 186 446 186 415 c 0,36,37
 186 337 186 337 196.5 250.5 c 128,-1,38
 207 164 207 164 204 72 c 1,39,40
 258 92 258 92 314 129.5 c 128,-1,41
 370 167 370 167 402 207 c 1,42,43
 396 205 396 205 389 203.5 c 128,-1,44
 382 202 382 202 374 202 c 0,45,46
 310 202 310 202 270 243.5 c 128,-1,47
 230 285 230 285 230 343 c 0,48,49
 230 400 230 400 271.5 440.5 c 128,-1,50
 313 481 313 481 374 481 c 256,51,52
 435 481 435 481 479 443 c 128,-1,53
 523 405 523 405 523 343 c 0,54,55
 523 302 523 302 503.5 255.5 c 128,-1,56
 484 209 484 209 444.5 163 c 128,-1,57
 405 117 405 117 342 74.5 c 128,-1,58
 279 32 279 32 190 0 c 1,59,-1
 78 0 l 1,60,61
 83 64 83 64 80.5 115.5 c 128,-1,62
 78 167 78 167 74.5 212.5 c 128,-1,63
 71 258 71 258 66 300.5 c 128,-1,64
 61 343 61 343 61 389 c 0,65,66
 61 432 61 432 74 474.5 c 128,-1,67
 87 517 87 517 113.5 550.5 c 128,-1,68
 140 584 140 584 179 605 c 128,-1,69
 218 626 218 626 270 626 c 0,70,71
 314 626 314 626 342.5 609.5 c 128,-1,72
 371 593 371 593 385 567 c 1,73,74
 402 589 402 589 431.5 607.5 c 128,-1,75
 461 626 461 626 506 626 c 0,76,77
 584 626 584 626 633 580.5 c 128,-1,78
 682 535 682 535 682 449 c 2,79,-1
 682 274 l 1,80,81
 711 262 711 262 745 241.5 c 128,-1,82
 779 221 779 221 811 196.5 c 128,-1,83
 843 172 843 172 871.5 147.5 c 128,-1,84
 900 123 900 123 918 103 c 1,85,-1
 918 613 l 1,86,-1
 1041 613 l 1,87,-1
 1041 0 l 1,88,-1
 928 0 l 1,0,1
739 132 m 256,89,90
 739 167 739 167 713 193 c 128,-1,91
 687 219 687 219 652 219 c 256,92,93
 616 219 616 219 590 193 c 128,-1,94
 564 167 564 167 564 132 c 256,95,96
 564 97 564 97 590 70.5 c 128,-1,97
 616 44 616 44 652 44 c 256,98,99
 687 44 687 44 713 70.5 c 128,-1,100
 739 97 739 97 739 132 c 256,89,90
461 342 m 256,101,102
 461 377 461 377 435 403 c 128,-1,103
 409 429 409 429 374 429 c 256,104,105
 339 429 339 429 313 403 c 128,-1,106
 287 377 287 377 287 342 c 256,107,108
 287 307 287 307 313 281 c 128,-1,109
 339 255 339 255 374 255 c 256,110,111
 409 255 409 255 435 281 c 128,-1,112
 461 307 461 307 461 342 c 256,101,102
EndSplineSet
EndChar
StartChar: uni0E13
Encoding: 3603 3603 230
Width: 1091
VWidth: 1533
Flags: W
HStem: -8 56<205.562 309.586 841.999 943.818> 222 56<214.146 301.434> 570 54<255.139 437.424>
VStem: 77 93<80.0092 191.046> 345 55<79.1313 178.434> 534 122<107 503.197> 891 122<285 613> 986 69<75.6786 188.319>
Fore
1055 132 m 0,0,1
 1055 101 1055 101 1042.5 75 c 128,-1,2
 1030 49 1030 49 1008.5 30 c 128,-1,3
 987 11 987 11 959 -0.5 c 128,-1,4
 931 -12 931 -12 898 -12 c 0,5,6
 836 -12 836 -12 791.5 27 c 128,-1,7
 747 66 747 66 744 124 c 1,8,9
 736 118 736 118 723.5 103.5 c 128,-1,10
 711 89 711 89 698 71.5 c 128,-1,11
 685 54 685 54 673.5 34.5 c 128,-1,12
 662 15 662 15 658 0 c 1,13,-1
 534 0 l 1,14,-1
 534 429 l 2,15,16
 534 497 534 497 484.5 533.5 c 128,-1,17
 435 570 435 570 357 570 c 256,18,19
 279 570 279 570 225.5 530.5 c 128,-1,20
 172 491 172 491 172 422 c 1,21,-1
 268 422 l 1,22,-1
 268 382 l 1,23,24
 199 356 199 356 199 282 c 2,25,-1
 199 265 l 1,26,27
 228 278 228 278 258 278 c 256,28,29
 287 278 287 278 313 266.5 c 128,-1,30
 339 255 339 255 358 235.5 c 128,-1,31
 377 216 377 216 388.5 190 c 128,-1,32
 400 164 400 164 400 135 c 0,33,34
 400 77 400 77 358.5 34.5 c 128,-1,35
 317 -8 317 -8 245 -8 c 0,36,37
 167 -8 167 -8 122 36.5 c 128,-1,38
 77 81 77 81 77 159 c 2,39,-1
 77 268 l 2,40,41
 77 285 77 285 84.5 303.5 c 128,-1,42
 92 322 92 322 106 337.5 c 128,-1,43
 120 353 120 353 140.5 364.5 c 128,-1,44
 161 376 161 376 187 380 c 1,45,-1
 41 380 l 1,46,47
 46 440 46 440 73 486 c 128,-1,48
 100 532 100 532 142 562.5 c 128,-1,49
 184 593 184 593 239 608.5 c 128,-1,50
 294 624 294 624 357 624 c 0,51,52
 414 624 414 624 468.5 611.5 c 128,-1,53
 523 599 523 599 564.5 574 c 128,-1,54
 606 549 606 549 631 509 c 128,-1,55
 656 469 656 469 656 414 c 2,56,-1
 656 107 l 1,57,58
 675 133 675 133 698.5 160 c 128,-1,59
 722 187 722 187 750.5 211 c 128,-1,60
 779 235 779 235 814 254.5 c 128,-1,61
 849 274 849 274 891 285 c 1,62,-1
 891 613 l 1,63,-1
 1013 613 l 1,64,-1
 1013 278 l 1,65,66
 998 273 998 273 989 268.5 c 128,-1,67
 980 264 980 264 967 256 c 1,68,69
 1003 244 1003 244 1029 208 c 128,-1,70
 1055 172 1055 172 1055 132 c 0,0,1
986 132 m 256,71,72
 986 167 986 167 960 193 c 128,-1,73
 934 219 934 219 898 219 c 256,74,75
 863 219 863 219 837 193 c 128,-1,76
 811 167 811 167 811 132 c 256,77,78
 811 97 811 97 837 70.5 c 128,-1,79
 863 44 863 44 898 44 c 256,80,81
 934 44 934 44 960 70.5 c 128,-1,82
 986 97 986 97 986 132 c 256,71,72
345 135 m 256,83,84
 345 170 345 170 319 196 c 128,-1,85
 293 222 293 222 258 222 c 256,86,87
 222 222 222 222 196 196 c 128,-1,88
 170 170 170 170 170 135 c 256,89,90
 170 100 170 100 196 74 c 128,-1,91
 222 48 222 48 258 48 c 256,92,93
 293 48 293 48 319 74 c 128,-1,94
 345 100 345 100 345 135 c 256,83,84
EndSplineSet
EndChar
StartChar: uni0E14
Encoding: 3604 3604 231
Width: 758
VWidth: 1533
Flags: W
HStem: 0 21G<78 226.5 560 682> 212 52<309.792 397.589> 438 53<309.915 423.206> 570 54<276.019 460.121>
VStem: 66 123.5<281.016 300.5 322 351.388 351.388 363.938 357.663 480.21> 80.5 121<75.1172 115.5 115.5 118.819 118.819 169.25 169.25 205.216 205.216 212.5 243 299.171> 222 57<295.173 406.904> 454 61<295.123 406.93> 560 122<0 497.256>
Fore
560 0 m 1,0,-1
 560 428 l 2,1,2
 560 491 560 491 509 530.5 c 128,-1,3
 458 570 458 570 379 570 c 0,4,5
 296 570 296 570 241 526.5 c 128,-1,6
 186 483 186 483 186 406 c 0,7,8
 186 362 186 362 189.5 322 c 128,-1,9
 193 282 193 282 196 243 c 128,-1,10
 199 204 199 204 201.5 162.5 c 128,-1,11
 204 121 204 121 202 75 c 1,12,13
 230 86 230 86 259 101.5 c 128,-1,14
 288 117 288 117 314 136 c 128,-1,15
 340 155 340 155 363 175.5 c 128,-1,16
 386 196 386 196 402 218 c 1,17,18
 386 212 386 212 366 212 c 0,19,20
 302 212 302 212 262 253 c 128,-1,21
 222 294 222 294 222 353 c 0,22,23
 222 409 222 409 263.5 450 c 128,-1,24
 305 491 305 491 366 491 c 256,25,26
 428 491 428 491 471.5 452.5 c 128,-1,27
 515 414 515 414 515 353 c 0,28,29
 515 311 515 311 496 263 c 128,-1,30
 477 215 477 215 437 166.5 c 128,-1,31
 397 118 397 118 334 75 c 128,-1,32
 271 32 271 32 182 0 c 1,33,-1
 78 0 l 1,34,35
 83 64 83 64 80.5 115.5 c 128,-1,36
 78 167 78 167 74.5 212.5 c 128,-1,37
 71 258 71 258 66 300.5 c 128,-1,38
 61 343 61 343 61 389 c 0,39,40
 61 446 61 446 88 490 c 128,-1,41
 115 534 115 534 159.5 563.5 c 128,-1,42
 204 593 204 593 261.5 608.5 c 128,-1,43
 319 624 319 624 379 624 c 0,44,45
 440 624 440 624 495 611 c 128,-1,46
 550 598 550 598 591.5 571 c 128,-1,47
 633 544 633 544 657.5 502.5 c 128,-1,48
 682 461 682 461 682 405 c 2,49,-1
 682 0 l 1,50,-1
 560 0 l 1,0,-1
454 351 m 256,51,52
 454 386 454 386 428 412 c 128,-1,53
 402 438 402 438 366 438 c 256,54,55
 331 438 331 438 305 412 c 128,-1,56
 279 386 279 386 279 351 c 256,57,58
 279 316 279 316 305 290 c 128,-1,59
 331 264 331 264 366 264 c 256,60,61
 402 264 402 264 428 290 c 128,-1,62
 454 316 454 316 454 351 c 256,51,52
EndSplineSet
EndChar
